<svg class="main-svg" xmlns="http://www.w3.org/2000/svg" xmlns:xlink="http://www.w3.org/1999/xlink" width="700" height="350" style="" viewBox="0 0 700 350"><rect x="0" y="0" width="700" height="350" style="fill: rgb(255, 255, 255); fill-opacity: 1;"/><defs id="defs-16732f"><g class="clips"><clipPath id="clip16732fxyplot" class="plotclip"><rect width="609" height="274"/></clipPath><clipPath class="axesclip" id="clip16732fx"><rect x="61" y="0" width="609" height="350"/></clipPath><clipPath class="axesclip" id="clip16732fy"><rect x="0" y="46" width="700" height="274"/></clipPath><clipPath class="axesclip" id="clip16732fxy"><rect x="61" y="46" width="609" height="274"/></clipPath></g><g class="gradients"/><g class="patterns"/></defs><g class="bglayer"><rect class="bg" x="61" y="46" width="609" height="274" style="fill: rgb(229, 236, 246); fill-opacity: 1; stroke-width: 0;"/></g><g class="layer-below"><g class="imagelayer"/><g class="shapelayer"/></g><g class="cartesianlayer"><g class="subplot xy"><g class="layer-subplot"><g class="shapelayer"/><g class="imagelayer"/></g><g class="minor-gridlayer"><g class="x"/><g class="y"/></g><g class="gridlayer"><g class="x"><path class="xgrid crisp" transform="translate(182.89,0)" d="M0,46v274" style="stroke: rgb(255, 255, 255); stroke-opacity: 1; stroke-width: 1px;"/><path class="xgrid crisp" transform="translate(304.78,0)" d="M0,46v274" style="stroke: rgb(255, 255, 255); stroke-opacity: 1; stroke-width: 1px;"/><path class="xgrid crisp" transform="translate(426.67,0)" d="M0,46v274" style="stroke: rgb(255, 255, 255); stroke-opacity: 1; stroke-width: 1px;"/><path class="xgrid crisp" transform="translate(548.5699999999999,0)" d="M0,46v274" style="stroke: rgb(255, 255, 255); stroke-opacity: 1; stroke-width: 1px;"/></g><g class="y"><path class="ygrid crisp" transform="translate(0,258.64)" d="M61,0h609" style="stroke: rgb(255, 255, 255); stroke-opacity: 1; stroke-width: 1px;"/><path class="ygrid crisp" transform="translate(0,210.93)" d="M61,0h609" style="stroke: rgb(255, 255, 255); stroke-opacity: 1; stroke-width: 1px;"/><path class="ygrid crisp" transform="translate(0,163.20999999999998)" d="M61,0h609" style="stroke: rgb(255, 255, 255); stroke-opacity: 1; stroke-width: 1px;"/><path class="ygrid crisp" transform="translate(0,115.49)" d="M61,0h609" style="stroke: rgb(255, 255, 255); stroke-opacity: 1; stroke-width: 1px;"/><path class="ygrid crisp" transform="translate(0,67.78)" d="M61,0h609" style="stroke: rgb(255, 255, 255); stroke-opacity: 1; stroke-width: 1px;"/></g></g><g class="zerolinelayer"><path class="yzl zl crisp" transform="translate(0,306.36)" d="M61,0h609" style="stroke: rgb(255, 255, 255); stroke-opacity: 1; stroke-width: 2px;"/></g><g class="layer-between"><g class="shapelayer"/><g class="imagelayer"/></g><path class="xlines-below"/><path class="ylines-below"/><g class="overlines-below"/><g class="xaxislayer-below"/><g class="yaxislayer-below"/><g class="overaxes-below"/><g class="overplot"><g class="xy" transform="translate(61,46)" clip-path="url(#clip16732fxyplot)"><g class="scatterlayer mlayer"><g class="trace scatter traceb59c1706-2fb8-4f47-888a-494d68c4e335" style="stroke-miterlimit: 2; opacity: 1;"><g class="fills"/><g class="errorbars"/><g class="lines"><path class="js-line" d="M0,13.7L1.37,215.23L1.83,233.58L3.21,255.84L3.67,258.16L6.87,258.87L7.33,258.93L9.16,260.01L9.62,260.05L27.49,260.3L27.95,228.77L28.41,234.49L28.87,169.02L29.79,188.18L30.24,119.82L31.16,144.17L31.62,104.28L32.99,138.79L33.45,147.62L37.12,207.27L37.58,160.49L39.87,219.18L40.33,225.18L42.62,247.38L43.07,249.72L45.82,256.82L46.28,257.05L53.61,258.61L54.07,253.62L55.45,254.1L55.91,219.18L58.65,242.89L59.11,245.49L59.57,225.4L60.03,229.13L60.49,233.53L62.78,243.63L63.24,174.33L64.15,53L64.61,69.94L65.07,82.13L71.49,194.03L71.94,199.07L72.86,207.78L73.32,224.14L75.61,244.07L76.07,246.19L76.53,236.01L76.98,241.49L77.44,244.32L80.65,253.84L81.11,254.43L84.77,258.15L85.23,258.15L87.07,258.34L87.52,228.52L87.98,230.48L88.44,239.73L92.11,250.71L92.56,250.72L93.02,251.07L93.48,252.86L95.77,256.56L96.23,256.56L103.1,258.07L103.56,258.06L106.31,258.07L106.77,240.34L107.69,248.42L108.14,247.42L111.35,256.32L111.81,256.9L114.1,257.85L114.56,257.85L121.43,259.19L121.89,205.2L122.35,196.14L122.81,209.17L125.1,237.97L125.56,241.04L126.47,170.91L126.93,183.63L128.77,238.1L129.22,174.73L131.06,224.8L131.51,158.7L133.35,204.48L133.81,146.58L134.72,178.09L135.18,126.95L135.64,126.73L136.1,129.37L136.56,134.21L137.01,124.13L138.85,169.98L139.3,187.38L139.76,190.19L140.22,203.64L141.6,222.89L142.05,228.32L142.51,232.24L142.97,168.48L143.43,170.75L143.89,182.2L145.72,210.75L146.18,216.31L148.93,248.86L149.39,238.02L151.22,249.62L151.68,251.36L154.88,259.26L155.34,259.61L159.47,259.85L159.93,191.69L160.84,205.28L161.3,133.94L161.76,119.1L162.22,141.24L162.67,142.69L163.13,73.84L163.59,76.28L164.05,32.47L164.97,101.49L165.42,65.83L165.88,88.87L166.34,76.71L166.8,79.52L168.63,94.24L169.09,108.02L170.92,136.23L171.38,137.19L172.76,146.47L173.21,148.38L173.67,125.03L174.13,126.81L174.59,129.74L175.05,132.46L175.51,140.28L177.34,155.45L177.8,165.66L180.55,203.87L181,138.03L181.92,176.49L182.38,149.33L182.84,154.32L183.3,179.62L183.75,181.87L184.21,181.25L184.67,194.75L185.13,157.74L185.59,171.09L186.05,172.82L187.88,207.62L188.34,214.52L188.79,182.58L189.25,197.51L189.71,221.45L190.63,245.69L191.09,240.68L191.54,242.61L192,248.23L192.92,250.52L193.38,254.06L194.75,255.63L195.21,255.99L196.58,256.56L197.04,251.83L199.79,254.46L200.25,254.79L203,257.05L203.46,257.25L206.67,257.93L207.12,257.95L210.33,258.07L210.79,251.18L211.71,252.74L212.16,215.78L212.62,208.34L213.08,214.77L215.83,236.68L216.29,241.5L218.12,249.3L218.58,250.36L220.41,254.41L220.87,250.49L222.7,255.09L223.16,254.22L225.45,256.99L225.91,255.1L228.2,257.03L228.66,257.03L230.95,257.74L231.41,257.91L241.49,259.71L241.95,259.71L243.33,259.73L243.78,94.24L244.24,72.87L244.7,73.92L245.16,86.1L246.99,174.82L247.45,177.66L249.28,217.37L249.74,196.98L250.2,197.62L250.66,207.56L251.57,224.77L252.03,205.22L253.86,232.31L254.32,236.67L256.16,247.56L256.61,249.01L259.82,257.84L260.28,257.89L265.78,258.45L266.24,259.37L271.74,259.86L272.19,188.93L272.65,126.91L273.11,142.93L273.57,162.09L275.86,221.54L276.32,225.17L279.53,240.28L279.98,220.61L280.9,225.43L281.36,234.57L281.82,166.63L282.28,178.4L282.73,190.51L284.57,220.73L285.02,218.08L286.4,120.94L286.86,124.24L288.69,177.88L289.15,171.77L291.9,223.57L292.36,227.76L293.73,234.07L294.19,236.55L294.65,237.77L295.11,242.58L296.02,246.25L296.48,250.96L297.86,254.57L298.31,255.2L300.6,256.13L301.06,256.58L301.52,257.03L301.98,250.27L304.27,253.92L304.73,182.72L305.19,179.76L305.65,180.95L306.1,181.03L307.02,89.41L307.48,92.66L307.94,94.14L308.4,119.19L308.85,120.38L309.31,126.45L309.77,128.85L310.23,135.91L311.6,142.38L312.06,143.77L312.98,148.51L313.44,102.83L315.27,149.8L315.73,154.51L319.85,225.2L320.31,226.18L322.14,234.41L322.6,238.93L323.06,227.04L323.52,231.29L323.98,234.58L325.81,242.77L326.27,244.16L329.93,252.53L330.39,253.45L332.68,256.4L333.14,256.51L340.93,258.03L341.39,252.92L343.68,257.29L344.14,257.92L345.51,258.74L345.97,241.25L348.26,251.42L348.72,252.59L351.93,257.58L352.39,258.05L361.55,259.57L362.01,252.74L364.3,253.15L364.76,181.75L365.22,182.55L365.67,78.18L366.13,70.33L366.59,110.64L367.97,146.85L368.42,163.08L369.34,196.52L369.8,186.29L372.09,231.99L372.55,237.84L373.92,248.36L374.38,191.33L375.3,213.8L375.76,151.47L378.51,224.28L378.96,229.67L380.8,244.45L381.26,247.62L382.17,251.06L382.63,190.47L384.46,226.54L384.92,232.22L385.38,165.2L385.84,182L386.3,197.8L388.13,224.91L388.59,228.61L389.05,233.07L389.5,194.99L392.25,236.32L392.71,240.05L393.63,246.18L394.09,199.99L395.92,232.67L396.38,235.77L396.84,168.74L397.29,182.91L397.75,195.5L399.58,226.2L400.04,231.72L402.33,245.07L402.79,247.33L405.08,255.07L405.54,255.14L406.92,255.7L407.37,256.46L408.75,257.31L409.21,257.59L409.67,249.53L410.12,211.41L411.04,220.81L411.5,240.94L413.33,250.05L413.79,251.72L414.71,253.75L415.16,246.41L416.08,249.57L416.54,251.72L417,252.78L417.46,252.42L417.91,252.72L419.29,254.34L419.75,213.7L422.04,237.84L422.5,241.35L427.08,252.11L427.54,252.99L428,253.92L428.45,190.16L429.37,204.46L429.83,211.78L433.04,237.26L433.49,237.72L433.95,238.39L434.41,240.67L434.87,166.12L435.33,167.6L435.79,174.85L438.08,213.04L438.53,216.13L438.99,217.16L439.45,225.03L443.58,247.12L444.03,248.17L444.49,248.95L444.95,187.24L446.33,214.66L446.78,144.56L448.62,217.05L449.07,225.26L449.99,235.5L450.45,225.22L452.28,240.64L452.74,242.62L453.2,234.54L453.66,237.83L454.12,239.9L454.57,239.12L455.03,240.72L457.78,251.02L458.24,251.45L460.07,254.16L460.53,256.05L461.91,256.82L462.36,233.6L463.74,242.81L464.2,242.69L466.49,250.31L466.95,250.73L469.7,257.29L470.15,257.47L471.53,258.3L471.99,258.3L473.82,258.59L474.28,254.4L474.74,197.12L475.19,202.27L475.65,212.66L476.57,223.75L477.03,171.76L478.86,212.45L479.32,211.54L481.15,229.88L481.61,233.9L482.98,239.9L483.44,183.14L486.65,206.71L487.11,226.14L488.02,182.34L488.48,180.85L489.4,227.56L489.86,212.02L490.32,226.83L490.77,163.13L491.69,30.66L492.15,42.92L494.44,227.28L494.9,238L496.73,254.98L497.19,256.27L499.02,258.73L499.48,257.86L499.94,221.44L500.4,227.66L500.86,230.91L501.31,236.78L501.77,203.67L504.52,233.55L504.98,234.56L505.44,235.35L505.9,238.49L506.81,239.61L507.27,240.59L508.19,251.17L508.65,252.31L510.48,255.4L510.94,256.02L511.4,256.14L511.85,252.68L512.77,254.47L513.23,255.07L515.06,255.99L515.52,256.57L516.89,208.44L517.35,210.28L518.27,246.35L518.73,248.57L519.19,231.03L519.64,235.77L520.1,176.45L520.56,173.61L521.02,153.16L521.48,171.79L521.93,100.44L522.39,47.66L522.85,49.61L523.31,52.53L525.14,71.98L525.6,76.47L526.06,76.91L526.52,81.2L526.98,82.24L527.43,90.3L528.81,98.21L529.27,114.97L530.64,156.37L531.1,164.62L531.56,168.21L532.02,161.74L532.93,165.16L533.39,172.49L536.14,208.75L536.6,211.07L537.97,219.15L538.43,225.15L539.81,235.99L540.26,234.63L541.18,236.87L541.64,238.46L543.93,248.56L544.39,249.42L545.3,251.42L545.76,202.47L548.97,230.68L549.43,217.45L551.72,234.68L552.18,237.65L552.64,240.45L553.09,223.21L555.39,254.03L555.84,257.32L557.68,258.76L558.14,258.76L566.38,259.5L566.84,259.68L569.59,259.8L570.05,254.18L570.51,254.68L570.97,203.4L571.42,209.71L571.88,171.4L572.8,236.78L573.26,240.66L574.63,248.57L575.09,245.88L576.47,187.18L576.92,189.58L581.05,241.1L581.51,244.4L583.34,251.93L583.8,248.93L585.17,253.25L585.63,250.86L587.92,256.1L588.38,256.19L589.75,256.79L590.21,256.8L590.67,229.58L591.13,229.82L591.59,230.45L592.96,243.61L593.42,245.34L597.09,255.98L597.54,256.07L600.75,258.58L601.21,234.92L603.5,250.32L603.96,252.16L606.71,257.33L607.17,257.86L608.54,258.94L609,217.04" style="vector-effect: none; fill: none; stroke: rgb(31, 119, 180); stroke-opacity: 1; stroke-width: 2px; opacity: 1;"/></g><g class="points"/><g class="text"/></g></g></g></g><path class="xlines-above crisp" d="M0,0" style="fill: none;"/><path class="ylines-above crisp" d="M0,0" style="fill: none;"/><g class="overlines-above"/><g class="xaxislayer-above"><g class="xtick"><text text-anchor="middle" x="0" y="333" transform="translate(61,0)" style="font-family: 'Open Sans', verdana, arial, sans-serif; font-size: 12px; fill: rgb(42, 63, 95); fill-opacity: 1; white-space: pre; opacity: 1;">2025-05-26</text></g><g class="xtick"><text text-anchor="middle" x="0" y="333" transform="translate(182.89,0)" style="font-family: 'Open Sans', verdana, arial, sans-serif; font-size: 12px; fill: rgb(42, 63, 95); fill-opacity: 1; white-space: pre; opacity: 1;">2025-05-27</text></g><g class="xtick"><text text-anchor="middle" x="0" y="333" transform="translate(304.78,0)" style="font-family: 'Open Sans', verdana, arial, sans-serif; font-size: 12px; fill: rgb(42, 63, 95); fill-opacity: 1; white-space: pre; opacity: 1;">2025-05-28</text></g><g class="xtick"><text text-anchor="middle" x="0" y="333" transform="translate(426.67,0)" style="font-family: 'Open Sans', verdana, arial, sans-serif; font-size: 12px; fill: rgb(42, 63, 95); fill-opacity: 1; white-space: pre; opacity: 1;">2025-05-29</text></g><g class="xtick"><text text-anchor="middle" x="0" y="333" transform="translate(548.5699999999999,0)" style="font-family: 'Open Sans', verdana, arial, sans-serif; font-size: 12px; fill: rgb(42, 63, 95); fill-opacity: 1; white-space: pre; opacity: 1;">2025-06-02</text></g></g><g class="yaxislayer-above"><g class="ytick"><text text-anchor="end" x="60" y="4.199999999999999" transform="translate(0,306.36)" style="font-family: 'Open Sans', verdana, arial, sans-serif; font-size: 12px; fill: rgb(42, 63, 95); fill-opacity: 1; white-space: pre; opacity: 1;">0.00%</text></g><g class="ytick"><text text-anchor="end" x="60" y="4.199999999999999" style="font-family: 'Open Sans', verdana, arial, sans-serif; font-size: 12px; fill: rgb(42, 63, 95); fill-opacity: 1; white-space: pre; opacity: 1;" transform="translate(0,258.64)">10.00%</text></g><g class="ytick"><text text-anchor="end" x="60" y="4.199999999999999" style="font-family: 'Open Sans', verdana, arial, sans-serif; font-size: 12px; fill: rgb(42, 63, 95); fill-opacity: 1; white-space: pre; opacity: 1;" transform="translate(0,210.93)">20.00%</text></g><g class="ytick"><text text-anchor="end" x="60" y="4.199999999999999" style="font-family: 'Open Sans', verdana, arial, sans-serif; font-size: 12px; fill: rgb(42, 63, 95); fill-opacity: 1; white-space: pre; opacity: 1;" transform="translate(0,163.20999999999998)">30.00%</text></g><g class="ytick"><text text-anchor="end" x="60" y="4.199999999999999" style="font-family: 'Open Sans', verdana, arial, sans-serif; font-size: 12px; fill: rgb(42, 63, 95); fill-opacity: 1; white-space: pre; opacity: 1;" transform="translate(0,115.49)">40.00%</text></g><g class="ytick"><text text-anchor="end" x="60" y="4.199999999999999" style="font-family: 'Open Sans', verdana, arial, sans-serif; font-size: 12px; fill: rgb(42, 63, 95); fill-opacity: 1; white-space: pre; opacity: 1;" transform="translate(0,67.78)">50.00%</text></g></g><g class="overaxes-above"/></g></g><g class="polarlayer"/><g class="smithlayer"/><g class="ternarylayer"/><g class="geolayer"/><g class="funnelarealayer"/><g class="pielayer"/><g class="iciclelayer"/><g class="treemaplayer"/><g class="sunburstlayer"/><g class="glimages"/><defs id="topdefs-16732f"><g class="clips"/><clipPath id="legend16732f"><rect width="80" height="29" x="0" y="0"/></clipPath></defs><g class="layer-above"><g class="imagelayer"/><g class="shapelayer"/></g><g class="infolayer"><g class="legend" pointer-events="all" transform="translate(590,11.519999999999996)"><rect class="bg" shape-rendering="crispEdges" width="80" height="29" x="0" y="0" style="stroke: rgb(68, 68, 68); stroke-opacity: 1; fill: rgb(255, 255, 255); fill-opacity: 1; stroke-width: 0px;"/><g class="scrollbox" transform="" clip-path="url(#legend16732f)"><g class="groups"><g class="traces" transform="translate(0,14.5)" style="opacity: 1;"><text class="legendtext" text-anchor="start" x="40" y="4.680000000000001" style="font-family: 'Open Sans', verdana, arial, sans-serif; font-size: 12px; fill: rgb(42, 63, 95); fill-opacity: 1; white-space: pre;">group</text><g class="layers" style="opacity: 1;"><g class="legendfill"/><g class="legendlines"><path class="js-line" d="M5,0h30" style="fill: none; stroke: rgb(31, 119, 180); stroke-opacity: 1; stroke-width: 2px;"/></g><g class="legendsymbols"><g class="legendpoints"/></g></g><rect class="legendtoggle" x="0" y="-9.5" width="77.453125" height="19" style="fill: rgb(0, 0, 0); fill-opacity: 0;"/></g></g></g><rect class="scrollbar" rx="20" ry="3" width="0" height="0" x="0" y="0" style="fill: rgb(128, 139, 164); fill-opacity: 1;"/></g><g class="g-gtitle"><text class="gtitle" x="35" y="23" text-anchor="start" dy="0em" style="opacity: 1; font-family: 'Open Sans', verdana, arial, sans-serif; font-size: 17px; fill: rgb(42, 63, 95); fill-opacity: 1; white-space: pre;">Portfolio Cash-to-Equity Ratio</text></g><g class="g-xtitle"/><g class="g-ytitle"/></g></svg>