<svg class="main-svg" xmlns="http://www.w3.org/2000/svg" xmlns:xlink="http://www.w3.org/1999/xlink" width="700" height="350" style="" viewBox="0 0 700 350"><rect x="0" y="0" width="700" height="350" style="fill: rgb(255, 255, 255); fill-opacity: 1;"/><defs id="defs-6dcaf6"><g class="clips"><clipPath id="clip6dcaf6xyplot" class="plotclip"><rect width="602" height="274"/></clipPath><clipPath class="axesclip" id="clip6dcaf6x"><rect x="68" y="0" width="602" height="350"/></clipPath><clipPath class="axesclip" id="clip6dcaf6y"><rect x="0" y="46" width="700" height="274"/></clipPath><clipPath class="axesclip" id="clip6dcaf6xy"><rect x="68" y="46" width="602" height="274"/></clipPath></g><g class="gradients"/><g class="patterns"/></defs><g class="bglayer"><rect class="bg" x="68" y="46" width="602" height="274" style="fill: rgb(229, 236, 246); fill-opacity: 1; stroke-width: 0;"/></g><g class="layer-below"><g class="imagelayer"/><g class="shapelayer"/></g><g class="cartesianlayer"><g class="subplot xy"><g class="layer-subplot"><g class="shapelayer"/><g class="imagelayer"/></g><g class="minor-gridlayer"><g class="x"/><g class="y"/></g><g class="gridlayer"><g class="x"><path class="xgrid crisp" transform="translate(188.49,0)" d="M0,46v274" style="stroke: rgb(255, 255, 255); stroke-opacity: 1; stroke-width: 1px;"/><path class="xgrid crisp" transform="translate(308.98,0)" d="M0,46v274" style="stroke: rgb(255, 255, 255); stroke-opacity: 1; stroke-width: 1px;"/><path class="xgrid crisp" transform="translate(429.47,0)" d="M0,46v274" style="stroke: rgb(255, 255, 255); stroke-opacity: 1; stroke-width: 1px;"/><path class="xgrid crisp" transform="translate(549.96,0)" d="M0,46v274" style="stroke: rgb(255, 255, 255); stroke-opacity: 1; stroke-width: 1px;"/></g><g class="y"><path class="ygrid crisp" transform="translate(0,296.81)" d="M68,0h602" style="stroke: rgb(255, 255, 255); stroke-opacity: 1; stroke-width: 1px;"/><path class="ygrid crisp" transform="translate(0,255.82)" d="M68,0h602" style="stroke: rgb(255, 255, 255); stroke-opacity: 1; stroke-width: 1px;"/><path class="ygrid crisp" transform="translate(0,214.83)" d="M68,0h602" style="stroke: rgb(255, 255, 255); stroke-opacity: 1; stroke-width: 1px;"/><path class="ygrid crisp" transform="translate(0,173.84)" d="M68,0h602" style="stroke: rgb(255, 255, 255); stroke-opacity: 1; stroke-width: 1px;"/><path class="ygrid crisp" transform="translate(0,132.85)" d="M68,0h602" style="stroke: rgb(255, 255, 255); stroke-opacity: 1; stroke-width: 1px;"/><path class="ygrid crisp" transform="translate(0,91.86)" d="M68,0h602" style="stroke: rgb(255, 255, 255); stroke-opacity: 1; stroke-width: 1px;"/><path class="ygrid crisp" transform="translate(0,50.87)" d="M68,0h602" style="stroke: rgb(255, 255, 255); stroke-opacity: 1; stroke-width: 1px;"/></g></g><g class="zerolinelayer"/><g class="layer-between"><g class="shapelayer"/><g class="imagelayer"/></g><path class="xlines-below"/><path class="ylines-below"/><g class="overlines-below"/><g class="xaxislayer-below"/><g class="yaxislayer-below"/><g class="overaxes-below"/><g class="overplot"><g class="xy" transform="translate(68,46)" clip-path="url(#clip6dcaf6xyplot)"><g class="scatterlayer mlayer"><g class="trace scatter trace4f1ed69b-1057-4a56-bc26-3b86ef2ca436" style="stroke-miterlimit: 2; opacity: 1;"><g class="fills"/><g class="errorbars"/><g class="lines"><path class="js-line" d="M0,209.82L0.91,205.53L1.36,208.28L1.81,208L2.26,209.51L4.98,200.56L5.44,202.09L6.34,199.34L6.79,199.72L7.25,200.43L8.61,199.38L9.06,201.21L9.51,203.53L9.97,202.34L10.42,203L10.87,201.12L11.32,203.08L12.23,204.15L12.68,204.69L13.59,206.7L14.04,206.29L15.85,203.82L16.31,203.67L16.76,204.12L17.21,203.31L17.67,203.02L18.12,200.86L18.57,201.4L19.02,200.07L19.48,200.36L19.93,201.89L20.38,198.57L20.84,199.94L21.29,199.89L21.74,198.74L22.2,199.32L22.65,200.16L23.1,200.91L23.55,200.41L24.01,202.84L24.46,203.43L24.91,202.58L25.37,202.5L25.82,200.48L27.18,197.59L27.63,199.03L29.44,195.71L29.9,195.3L30.8,196.09L31.26,195.78L33.07,197.55L33.52,198.24L33.97,198.04L34.43,199.57L35.33,196.74L35.78,197.53L36.69,199.37L37.14,198.79L37.6,198.3L38.05,199.3L38.96,198.91L39.41,199.99L41.67,199.24L42.13,199.84L42.58,198.36L43.03,199.96L44.39,200.55L44.84,199.35L45.3,199.68L45.75,198.92L46.66,199.56L47.11,198.83L48.02,200.43L48.47,199.28L51.19,200.5L51.64,199.91L53,201.27L53.45,199.73L55.72,197.75L56.17,198.61L57.53,197.43L57.98,198.01L59.34,199.25L59.79,198.52L60.7,199.68L61.15,198.86L62.06,200.34L62.51,199L62.96,199.45L63.42,198.59L64.32,200.35L64.78,199.42L68.4,201.24L68.85,201.9L72.02,201.56L72.48,202.46L72.93,204.07L73.38,203.07L73.83,202.62L74.74,202.22L75.19,200.1L76.55,202.15L77.01,202.39L77.91,202.06L78.36,201.01L78.82,200.32L79.27,201.06L80.63,202.23L81.08,202.51L81.53,202.58L81.99,201.26L82.89,201.91L83.35,201.17L84.25,201.35L84.71,201.46L87.88,203.79L88.33,203.43L89.24,203.95L89.69,203.72L91.5,202.74L91.95,203.39L92.41,203L92.86,203.56L93.31,203.75L94.22,203.62L94.67,201.87L95.58,200.26L96.03,201.08L98.29,201.37L98.75,200.4L99.2,199.51L99.65,200.05L100.11,199.92L101.47,201.07L101.92,201.51L103.28,201.79L103.73,203.04L104.64,203.23L105.09,203L105.54,204.13L106,203.61L106.45,204.05L108.71,204.78L109.17,205.8L110.07,206.67L110.53,205.97L110.98,204.19L111.43,204.54L111.88,204.5L112.34,204.05L112.79,204.81L113.24,204.08L113.7,204.43L114.15,204.78L114.6,205.31L115.05,204.71L115.51,205.13L116.87,206.34L117.32,205.46L118.23,208.02L118.68,206.87L119.13,206.75L119.58,205.78L120.49,212.36L120.94,209.22L121.85,212.86L122.3,212.49L122.76,212.73L123.21,211.73L123.66,214.05L124.57,214.41L125.02,213.75L127.74,217.49L128.19,217.74L128.64,216.81L129.1,217.07L129.55,216.67L130.46,215.29L130.91,215.77L131.36,215.96L132.27,215.47L132.72,215.56L133.63,209.8L134.08,210.38L134.53,210.33L136.34,212.56L136.8,211.63L137.7,213.71L138.16,211.58L138.61,213.18L139.06,212.88L139.52,212.59L139.97,211.91L140.42,212.73L140.87,212.77L141.33,211.67L141.78,212.14L142.23,213.79L143.59,215.58L144.05,216.01L145.86,221.62L146.31,220.64L147.22,222.95L147.67,220.36L148.12,220.76L148.57,220.12L149.03,220.49L149.48,221.83L151.29,221.88L151.75,220.93L152.65,223.16L153.1,223.36L153.56,223.25L154.01,222.18L154.46,222.15L154.92,221.26L155.37,220.8L155.82,221.94L156.28,222.39L156.73,221.73L157.63,221.38L158.09,220.44L159.9,220.21L160.35,219.81L160.81,220.21L161.26,218.84L161.71,218.18L162.16,218.79L162.62,218.44L163.07,218.34L163.52,219.16L163.98,219.38L164.43,216.94L165.79,217.8L166.24,216.52L168.05,220.77L168.51,220.25L168.96,219.42L169.41,219.81L169.86,220.14L170.77,221L171.22,219.92L172.13,219.91L172.58,220.04L173.49,219.91L173.94,220.36L175.75,221.8L176.21,220.48L177.11,222.13L177.57,222.31L178.02,223.36L178.47,222.77L178.92,222.69L180.74,225.98L181.19,225.49L181.64,224.91L182.09,225.55L182.55,225.78L183.45,225.69L183.91,224.16L185.72,226.32L186.17,225.85L187.53,228.08L187.98,226.87L188.44,227.08L188.89,226.27L189.34,226.74L189.8,225.44L190.7,226.79L191.15,226.7L191.61,225.84L192.06,226.41L192.51,226.57L193.87,226.36L194.33,226.66L194.78,225.99L195.23,226.47L195.68,226.56L198.4,225.55L198.85,226.4L200.67,227.43L201.12,229.65L202.48,228.61L202.93,226.81L203.84,228.01L204.29,227.32L206.56,228.45L207.01,228.12L207.46,228.63L207.91,227.72L208.82,228.2L209.27,228.56L210.63,227.66L211.09,227.77L211.99,228.37L212.44,229.34L212.9,228.72L213.35,230.28L214.26,228.59L214.71,229.24L215.61,227.5L216.07,228.14L217.43,229.54L217.88,228.3L219.69,227.57L220.14,227.69L221.96,226.43L222.41,227.48L223.32,228.19L223.77,229.17L224.67,227.47L225.13,227.88L225.58,227.72L226.49,228.77L226.94,226.86L227.84,227.33L228.3,226.68L228.75,227.32L229.2,226.64L229.66,228.01L230.11,227.04L230.56,227.15L231.47,226.69L231.92,226.93L232.37,227.3L232.83,226.58L234.64,227.58L235.09,227.22L236,228.67L236.45,227.93L238.26,229.33L238.72,228.66L240.08,231.19L240.53,232.85L240.98,213.48L241.43,214.3L241.89,213.62L242.34,213.52L242.79,214.57L244.15,216.76L244.6,218.03L246.42,216.39L246.87,217.11L247.32,216.31L247.78,217L248.23,217.12L248.68,218.36L249.13,217.65L249.59,218.04L250.95,217.72L251.4,217.12L252.31,216.61L252.76,217.08L254.12,218.49L254.57,220.01L255.02,219.42L255.48,220.92L256.38,222.44L256.84,220.87L257.74,222.03L258.19,221.49L258.65,219.71L259.1,219.98L259.55,220.57L260.01,219.4L260.46,220.95L260.91,220.52L261.36,221.57L262.27,220.86L262.72,221.26L264.99,220.9L265.44,221.52L265.89,222.8L266.35,222.4L266.8,221.93L267.25,221.56L267.71,222.32L268.61,220.57L269.07,219.76L269.52,219.16L269.97,220.09L270.88,218.6L271.33,219.14L271.78,219.29L272.69,217.94L273.14,218.87L273.6,216.94L274.05,217.91L274.5,217.11L275.86,217.97L276.31,217.19L277.22,219.72L277.67,219.32L278.12,219L278.58,219.44L279.03,218.82L280.39,220.99L280.84,220.21L281.3,220.48L281.75,218.93L282.2,219.28L282.65,218.54L284.01,219.39L284.47,218.35L285.83,217.85L286.28,219.18L286.73,219.81L287.18,218.77L288.54,220.71L289,221.05L289.45,220.88L289.9,219.88L290.36,218.68L290.81,219L291.26,219.51L294.88,222.39L295.34,220.97L296.24,219.22L296.7,219.75L300.32,220.33L300.77,219.88L302.13,219.15L302.59,219.41L303.49,219.07L303.94,219.95L304.4,219.86L304.85,220.98L305.3,220.78L305.76,221.73L306.66,221.8L307.12,221.37L307.57,221.73L308.02,221.14L308.47,221.08L309.83,223.04L310.29,223.79L311.64,225.22L312.1,224.03L312.55,224.04L313,224.96L313.46,224.86L313.91,225.6L314.36,224.61L314.82,225.66L315.27,225.8L315.72,224.84L316.63,225.84L317.08,225.41L317.99,226.92L318.44,226.44L318.89,226.24L320.25,226.28L320.7,225.33L321.16,226.21L321.61,225.56L322.06,225.35L323.42,226.6L323.88,226.06L324.33,225.82L324.78,226.65L325.23,225.33L325.69,225.93L326.14,226.52L327.5,226.19L327.95,226.82L328.4,226.06L328.86,226.86L329.31,227.35L329.76,226.89L330.22,227.18L330.67,227.08L331.12,228.4L332.03,228.6L332.48,228.04L332.93,229.26L333.39,228.28L334.29,229.9L334.75,229.85L335.65,229.63L336.11,229.57L337.01,229.61L337.46,229.51L339.73,232.95L340.18,232.14L340.64,233.06L341.09,232.57L341.54,232.9L342.45,230.95L342.9,231.29L343.81,231.48L344.26,230.86L344.71,230.52L345.16,231.57L345.62,230.06L346.07,230.61L346.52,231.01L347.43,232.26L347.88,231.74L348.34,231.65L348.79,232.73L349.24,232.95L349.69,228.88L351.51,226.01L351.96,226.14L353.77,222.83L354.22,222.56L355.13,223.4L355.58,222.67L356.04,223.23L356.49,222.48L357.85,221.69L358.3,221.67L359.66,221.03L360.11,221.87L360.57,220.27L361.02,226.07L361.92,209.65L362.38,212.03L363.28,212.1L363.74,213.38L364.64,215.65L365.1,215.32L365.55,214.61L367.36,221.62L367.81,219.71L368.27,218.82L368.72,219.6L370.08,220.89L370.53,220.25L372.34,218.66L372.8,218.95L373.25,219.66L373.7,218.18L374.16,219.04L374.61,217.51L375.06,216.26L375.51,217.24L375.97,218.44L376.42,217.32L378.68,216.62L379.14,215.57L379.59,215.49L380.04,213.74L381.4,213.02L381.86,214.13L383.21,216.45L383.67,218.01L384.12,216.87L384.57,217.56L385.03,218.14L386.39,217.2L386.84,216.83L388.2,216.92L388.65,215.31L389.56,214.63L390.01,215.66L391.37,218.12L391.82,217.51L392.27,216.62L392.73,217.53L393.18,216.96L393.63,217.61L394.09,216.56L394.54,216.96L394.99,217.54L395.44,217.29L395.9,217.93L396.8,219.2L397.26,219.17L397.71,219.8L398.16,219.05L399.52,218.75L399.97,219.81L400.43,219.8L400.88,218.4L401.33,218.29L401.79,219.67L402.69,218.25L403.15,219.04L403.6,217.42L404.05,218.26L404.5,218.26L405.41,218.64L405.86,218.16L406.77,218.81L407.22,219.28L408.13,217.7L408.58,218.5L409.49,219.25L409.94,218.24L410.85,218.8L411.3,219.46L411.75,219.23L412.2,219.92L413.11,218.72L413.56,219.65L414.92,219.04L415.38,218.8L416.73,219.24L417.19,218.58L417.64,219.61L418.09,218.85L418.55,218.9L419,219.9L419.45,219.39L419.91,218.8L420.81,220.09L421.26,218.56L422.62,218.2L423.08,217.96L424.43,218.89L424.89,218.41L426.25,218.57L426.7,216.63L428.06,217.61L428.51,216.37L429.87,216.8L430.32,216.95L430.78,216.64L431.23,218.37L432.14,217.6L432.59,217.53L433.49,219.13L433.95,219.68L434.4,220.54L434.85,219.83L435.31,219.52L435.76,220.67L436.21,219.46L436.67,219.72L437.12,218.82L437.57,218.49L438.02,219.19L438.93,219.2L439.38,218.9L440.29,218.6L440.74,219.77L441.65,218.14L442.1,218.32L442.55,218.52L443.91,220.07L444.37,218.96L444.82,218.38L445.27,218.96L445.72,218.97L446.18,217.99L446.63,219.61L447.99,218.69L448.44,218.54L449.35,219.9L449.8,219.56L450.71,219.38L451.16,221.14L451.61,221.37L452.07,220.56L452.52,221.25L452.97,220.4L453.88,220.48L454.33,221.56L454.78,220.3L455.24,221.05L455.69,221.77L456.14,220.21L456.6,221L457.05,220.78L457.95,221.74L458.41,220.48L459.77,221.46L460.22,221.43L460.67,221.19L461.13,222.24L463.84,221.51L464.3,221.55L465.66,221.07L466.11,221.42L467.47,222.29L467.92,222.64L469.28,221.98L469.73,221.86L471.09,224.06L471.54,225.18L472,225.13L472.45,225.89L472.9,226.03L473.36,227.15L474.71,225.75L475.17,226.52L476.53,225.84L476.98,226L478.34,225.56L478.79,225.99L479.7,224.1L480.15,224.43L480.6,224.42L481.06,227.01L482.87,252.78L483.32,252.5L483.77,252.26L484.23,250.22L485.59,243.42L486.04,244.96L486.95,247.54L487.4,245.9L487.85,248.88L488.3,248.16L488.76,249.71L489.66,247.37L490.12,249.98L490.57,249.74L491.02,251.75L491.93,248.74L492.38,249.26L492.83,249.55L493.29,250.39L493.74,247.66L494.19,246.98L494.65,248.53L495.1,248.51L495.55,250.23L496,249.2L496.46,249.8L496.91,251.25L497.36,251.5L497.82,250.6L498.72,251.16L499.18,250.38L499.63,249.92L500.08,251.26L500.53,250L500.99,250.93L501.44,251.01L501.89,252.67L502.35,250.69L503.25,250.36L503.71,250.7L504.61,249.89L505.06,250.53L505.97,249.66L506.42,249.7L507.33,250.85L507.78,249.88L508.23,249.74L508.69,251.05L510.05,249.05L510.5,248.52L510.95,249.42L511.41,248.6L513.22,247.5L513.67,246.88L514.58,243.97L515.03,244.79L515.48,245.32L515.94,244.59L517.29,243.24L517.75,246.44L518.2,245.27L518.65,246.29L520.01,246.59L520.47,248.07L520.92,247.26L521.37,247.63L521.82,247.75L522.73,249.05L523.18,250.35L524.54,250.56L524.99,251.67L526.81,249.83L527.26,251.4L527.71,253.03L528.17,252.32L528.62,252.64L530.88,253.89L531.34,253.44L531.79,253.62L532.24,255.8L532.7,256.78L533.15,255.48L533.6,255.77L534.05,253.78L534.51,253.36L534.96,254.32L535.41,254.26L535.87,255L536.32,254.33L536.77,255.25L538.58,255.55L539.04,257.14L540.4,256.32L540.85,256.53L541.3,256.54L541.75,257.44L543.11,257.27L543.57,256.13L544.02,254.72L544.47,255.67L544.93,254.71L545.83,255.6L546.28,255.57L548.55,258.41L549,257.93L549.46,259.65L549.91,259.11L550.36,259.26L550.81,258.37L551.27,260.3L552.17,258.05L552.63,258.28L553.08,258.06L553.53,258.27L553.98,257.38L554.44,257.79L554.89,257.04L555.8,257.1L556.25,256.41L557.16,257.35L557.61,257.62L558.51,256.25L558.97,255.98L559.87,254.87L560.33,257.23L561.23,256.11L561.69,256.74L562.14,255.59L562.59,256.34L563.04,255.8L563.5,254.29L563.95,255.28L564.4,256.57L565.31,255.43L565.76,256.92L566.22,256.96L566.67,255.53L567.57,255.2L568.03,256.37L568.93,253.77L569.39,254.18L569.84,253.92L570.29,253.35L570.74,254.56L572.1,254.49L572.56,254.02L573.92,253.6L574.37,254.07L574.82,253.25L575.27,253.71L575.73,253.62L576.63,254.41L577.09,253.56L577.99,254.19L578.45,253.99L579.35,253.56L579.8,253.84L580.71,253.83L581.16,253.61L581.62,254.67L582.07,253.62L583.88,252.84L584.33,253.36L584.79,253.17L585.24,255.13L585.69,255.47L586.15,254.19L587.05,255.66L587.5,255.56L588.41,255.5L588.86,254.59L589.32,255.42L589.77,254.53L590.22,254.57L590.68,252.71L591.13,251.87L591.58,252.49L592.03,252.67L592.94,253.48L593.39,253.35L593.85,253.21L594.3,253.99L594.75,252.53L595.21,253.13L595.66,252.54L596.11,253.26L596.56,252.34L597.47,253.09L597.92,253.3L599.74,253.32L600.19,254.28L601.55,254.05L602,248.69" style="vector-effect: none; fill: none; stroke: rgb(127, 127, 127); stroke-opacity: 1; stroke-width: 2px; opacity: 1;"/></g><g class="points"/><g class="text"/></g><g class="trace scatter tracee503b165-cc17-4e45-b194-13f2c69743e4" style="stroke-miterlimit: 2;"><g class="fills"><g><path class="js-fill" d="M0,209.82L0.91,207.59L1.36,208.25L2.26,207.14L2.72,201.73L3.62,206.87L4.08,205.18L4.98,196.14L5.44,200.45L6.34,193.85L6.79,194.55L7.25,192.61L8.61,185.08L9.06,186.23L10.42,197.17L10.87,194.87L11.32,193.15L11.78,194.87L12.68,195.05L13.14,197.56L13.59,197.78L14.04,196.25L14.5,197.97L14.95,196.09L15.4,194.71L15.85,196.68L18.12,193.65L18.57,190.78L19.02,188.17L19.48,191.09L20.38,189.07L20.84,191.61L21.74,190.94L22.2,191.66L23.1,191.36L23.55,190L24.46,193.45L24.91,191.86L25.37,195.62L25.82,190.9L26.73,191.51L27.18,191.07L27.63,191.26L28.08,184.71L28.54,185.1L28.99,181.27L30.35,184.73L30.8,182.89L31.26,183.06L31.71,185.3L32.16,183.14L32.61,183.42L33.07,183.78L34.43,184.33L34.88,186.26L35.33,183.14L35.78,183.34L36.24,188.31L37.14,185.08L37.6,187.6L38.5,187.88L38.96,190.07L39.41,190.85L39.86,193.5L40.31,196.21L40.77,196.08L41.22,195.61L43.03,188.69L43.49,191.93L45.3,191.22L45.75,187.9L46.66,188.17L47.11,187.57L47.56,187.69L48.02,191.13L49.83,190.77L50.28,191.04L50.73,191.4L51.19,184.95L51.64,184.74L52.09,187.89L54.36,178.02L54.81,180.64L55.26,180.62L55.72,183.66L56.17,183.69L56.62,180.6L57.53,180.3L57.98,183.71L58.89,184.03L59.34,180.99L59.79,177.82L60.25,178.01L60.7,177.98L62.51,165.83L62.96,166.7L63.42,167.59L64.32,171.32L64.78,171.15L65.23,172.48L70.66,173.08L71.12,171.29L72.02,173.09L72.48,171.94L72.93,174.66L73.38,174.2L73.83,171.35L74.74,171.77L75.19,166.93L76.1,167.41L76.55,170.04L77.91,169.71L78.36,169.3L80.63,175.56L81.08,173.71L81.53,175.54L81.99,173.13L84.25,170.4L84.71,172.71L85.61,170.77L86.06,171.07L86.52,170.74L86.97,172.54L87.42,171.41L87.88,172.91L88.78,172.32L89.24,174.12L90.14,173.69L90.59,171.71L91.05,173.54L91.5,173.01L91.95,173.41L94.22,173.85L94.67,170.82L95.58,170.16L96.03,172.43L98.29,172.89L98.75,170L99.2,170.01L99.65,168.02L100.56,169.87L101.01,169.39L101.92,170.18L102.37,172.68L104.18,173.47L104.64,169.77L105.09,169.65L105.54,173.71L107.81,173.96L108.26,174.25L108.71,174.39L109.17,172.58L110.53,172.72L110.98,171.35L111.43,171.36L111.88,169.51L112.34,169.11L112.79,171.56L115.05,170.27L115.51,170.55L115.96,171L116.41,169.62L118.23,172.57L118.68,169.63L119.58,169.87L120.04,169.95L120.49,178.48L120.94,173.81L121.4,177.26L121.85,179.2L122.3,175.87L122.76,178.71L123.21,178.08L123.66,178.92L124.11,179.11L124.57,178.49L125.02,177.1L125.47,177.79L125.93,178.59L127.29,181.47L127.74,178.66L129.1,178.94L129.55,179.23L130,173.73L130.46,173.99L130.91,174.71L131.36,175.44L131.81,173.22L132.72,170.79L133.17,168.43L133.63,164.71L134.08,167.08L134.53,167.47L135.89,168.95L136.34,169.22L136.8,169.25L137.25,170.15L137.7,172.59L138.16,169.1L138.61,171.94L139.06,171.75L139.52,169.45L140.42,166.43L140.87,168.81L141.78,165.22L142.23,167.02L142.69,168.51L143.14,167.83L143.59,166.31L144.95,168.83L145.4,167.65L145.86,170.1L146.31,169.28L146.76,168.89L147.67,167.62L148.12,169.36L149.03,166.69L149.48,167.35L149.93,168.19L150.84,169.41L151.29,168.63L151.75,166.7L152.2,171.47L152.65,167.92L153.1,169.75L153.56,168.06L154.01,165.31L154.46,166.57L154.92,165.92L155.37,165.94L155.82,164.34L156.28,163.06L156.73,165.74L158.09,159.74L158.54,158.81L160.35,161.73L160.81,159.84L161.71,156.48L162.16,157.1L163.98,159.07L164.43,157.91L164.88,156.59L165.33,156.92L165.79,156.71L166.24,155.98L166.69,156.46L167.15,158.2L168.05,159.63L168.51,159.28L168.96,156.45L169.41,156.73L169.86,159.55L170.32,156.61L170.77,157.24L171.22,157.26L171.68,154.35L172.13,156.95L173.04,157.39L173.49,159.28L174.85,156.6L175.3,159.64L175.75,161.05L176.21,156.95L176.66,161.19L177.11,160.75L177.57,160.8L178.47,161.45L178.92,155.33L179.83,158.06L180.28,156.81L181.19,157.85L181.64,156.77L182.09,156.07L182.55,157.62L183.45,157.56L183.91,156.69L184.81,157.32L185.27,157.19L185.72,158.28L186.17,156.9L186.62,156.85L187.08,158.59L187.53,161.14L187.98,159.61L188.44,159.54L188.89,155.98L189.34,156.11L189.8,154.99L190.25,154.09L190.7,155.84L191.15,156.76L191.61,155.78L192.06,155.98L192.51,154.26L193.42,155.26L193.87,156.88L194.33,156.78L194.78,155.31L195.23,155.27L195.68,157.06L196.59,155.25L197.04,155.48L197.5,155.97L197.95,154.08L198.4,153.07L198.85,153.93L199.31,154.02L199.76,155.49L200.21,153.42L200.67,155.31L201.57,157.28L202.03,154.73L202.48,153.9L202.93,155.19L203.38,154.09L203.84,156.56L204.29,156.1L204.74,154.23L205.2,153.76L205.65,156.36L207.01,155.33L207.46,156.29L207.91,153.56L208.37,153.81L208.82,155.29L209.27,154.97L209.73,153.11L210.63,153.32L211.09,151.55L211.54,151.56L211.99,153.53L212.44,154.52L212.9,152.83L213.35,155.53L213.8,154.74L214.26,154.34L214.71,154.31L215.16,152.34L216.07,154.09L216.52,154.36L217.43,158.01L217.88,156.86L219.24,156.78L219.69,157.71L220.6,156.86L221.05,155.8L221.96,154.77L222.41,156.62L223.77,155.87L224.22,153.96L225.58,155.64L226.03,155.52L227.39,152.65L227.84,150.95L229.2,150.57L229.66,151.69L230.56,150.72L231.02,148.98L231.47,149.17L231.92,151.56L233.28,151.64L233.73,153.28L234.64,154.5L235.09,153.5L236,156.31L236.45,155.2L236.9,153.5L237.36,156.1L238.72,153.2L239.17,155.24L240.08,153.99L240.53,156.13L240.98,121.12L241.43,122.15L241.89,119.27L242.34,117.29L242.79,119.78L243.25,119.66L243.7,121.22L244.15,123.83L244.6,122.16L245.06,120.15L246.42,120.57L246.87,122.8L247.32,122.91L247.78,124.27L248.23,124.45L248.68,126.95L249.59,127.21L250.04,124.59L250.49,124.93L250.95,124.2L251.85,124.15L252.31,121.48L253.66,122.27L254.12,125.62L254.57,125.75L255.02,128.35L255.48,128.47L255.93,134.14L256.38,134.14L256.84,130.59L257.74,131.67L258.19,131.22L259.55,127.87L260.01,125.95L260.46,126.59L260.91,126.17L261.36,126.18L262.27,126.04L262.72,123.23L263.63,122.84L264.08,125.44L264.54,124.95L264.99,127.72L266.35,127.83L266.8,121.84L268.16,121.8L268.61,119.04L269.52,112.65L269.97,116.32L271.78,116.12L272.24,114.48L272.69,114.42L273.14,113.42L273.6,113.12L274.05,114.77L274.5,114.22L274.95,114.82L275.41,113.06L276.31,111.5L276.77,112.28L277.22,112.33L277.67,113.66L278.58,110.22L279.03,112.11L279.48,111.62L279.94,113.98L280.39,114.25L280.84,112.88L282.65,111.72L283.11,112.07L284.01,112.53L284.47,111.74L284.92,112.85L285.37,111.32L285.83,110.63L286.28,112.45L286.73,112.03L287.18,113.13L288.09,112.72L288.54,113.96L289.45,113.59L289.9,110.42L291.26,108.19L291.71,110.08L292.17,110.15L292.62,111.5L293.07,111.58L293.53,110.9L294.43,110.85L294.88,110.08L296.24,106.25L296.7,106.51L297.15,105.66L297.6,107.15L298.06,107.85L298.51,107.23L298.96,105.77L300.32,106.95L300.77,106.93L301.68,106.71L302.13,107.33L302.59,107.81L303.04,107.06L303.94,108.37L304.4,107.83L306.21,108.09L306.66,107.97L307.12,108.74L307.57,108.06L308.02,108.7L309.38,107.31L309.83,107.36L311.64,109.06L312.1,108.38L312.55,108.62L313,109.99L313.46,109.2L313.91,111.81L314.36,109.59L314.82,109.93L315.27,111.02L315.72,109.69L316.17,110.64L316.63,111.89L317.08,111.42L317.53,111.96L317.99,112.24L318.44,112.15L318.89,113.58L319.35,110.33L319.8,110.6L320.25,112.26L321.16,110.75L321.61,111.23L322.06,110.07L322.52,110.98L325.23,110.3L325.69,113.11L327.5,112.42L327.95,113.96L328.86,110.83L329.31,111.16L329.76,111.24L330.22,112.31L330.67,110.63L331.12,113.16L331.58,113.02L332.03,113.31L333.39,112.43L333.84,113.95L335.2,114.46L335.65,114.27L336.56,114.58L337.01,113.88L337.46,114.41L337.92,116.23L338.82,115.69L339.28,116.61L339.73,119.31L340.18,118.38L340.64,118.7L341.09,119.36L341.54,117.9L342.9,114.99L343.35,116.33L344.71,115.88L345.16,115.26L345.62,114.22L346.07,115.82L346.52,115.29L346.98,115.86L347.43,116.82L348.34,116.18L348.79,117.61L349.24,117.88L349.69,113.15L350.6,109.52L351.05,110.57L353.77,103.66L354.22,103.99L355.13,106.1L355.58,104.13L356.49,103.82L356.94,103.46L357.4,103.7L357.85,105.32L358.75,102.69L359.21,103.93L360.11,103.55L360.57,102.27L361.02,108.73L361.47,83.82L363.28,87.63L363.74,86.21L365.1,90.86L365.55,89.16L366.91,96.95L367.36,97.37L368.27,93.67L368.72,93.44L369.17,95.82L369.63,95.57L370.08,93.12L371.44,87.67L371.89,88.39L373.25,91.53L373.7,88.23L374.16,88.75L374.61,86.25L375.06,84.81L375.51,86.32L375.97,87.95L376.42,85.94L379.59,79.3L380.04,75.99L380.95,74.66L381.4,74.84L382.31,74.99L382.76,74.5L383.67,79.8L384.12,77.84L385.93,77.95L386.39,76.4L386.84,74.7L387.29,75.71L387.74,76.47L388.65,73.03L389.1,71.35L389.56,71.24L390.01,73.92L390.46,72.91L390.91,73.39L391.37,73.65L392.27,71.93L392.73,72.86L393.18,72.94L393.63,73.95L394.99,72.02L395.44,73L397.71,76.77L398.16,74.49L399.07,75.15L399.52,74.44L399.97,75.62L400.43,68.84L401.33,67.64L401.79,70.05L402.69,65.8L403.15,67.28L403.6,65.8L404.05,67.85L404.5,67.84L404.96,66.17L405.41,66.61L405.86,64.65L407.22,67.4L407.67,64.98L408.13,61.32L408.58,62.72L409.03,62.51L409.49,62.83L409.94,60.83L410.39,59.27L410.85,62.12L411.3,62.42L411.75,63.92L412.2,63.66L412.66,64.36L413.56,63.95L414.02,62.77L414.47,63.28L414.92,62.32L415.38,63L415.83,61.75L416.28,62.02L416.73,63.47L417.64,62.22L418.09,59.47L418.55,59.34L419,61.05L419.91,56.86L420.36,63.87L420.81,64.65L421.26,63.43L422.62,62.14L423.08,62.17L423.53,61.92L423.98,62.69L424.43,63.31L424.89,62.95L425.34,62.52L426.25,62.43L426.7,57.37L428.06,57.29L428.51,56.1L429.42,56.25L429.87,56.94L430.78,57L431.23,57.87L432.59,56.78L433.04,57.48L434.4,60.25L434.85,59.31L435.31,59.37L435.76,60.74L437.12,55.93L437.57,56.35L438.02,55.9L439.38,57.35L439.84,55.82L440.29,58.33L440.74,57.8L441.19,56.34L441.65,55.55L442.1,56.03L442.55,55.71L443.91,58.4L444.37,57.61L445.27,55.9L445.72,56.65L446.18,53.64L446.63,55.02L447.08,54.51L447.99,56.08L448.44,55.5L449.8,60.02L450.25,60.08L450.71,57.14L451.16,58.74L451.61,58.2L452.07,57.68L452.52,58.71L453.88,56.84L454.33,57.34L455.24,57.36L455.69,52.94L456.6,52.42L457.05,56.74L457.95,56.04L458.41,54.93L458.86,55.41L459.31,53.22L460.67,52.15L461.13,52.14L461.58,51.62L462.03,52.68L462.94,50.86L463.39,52.27L465.66,51.91L466.11,49.07L468.37,48.64L468.83,52.01L469.73,47.83L470.19,51.58L470.64,52.95L471.09,51.63L472,52.16L472.45,52.98L473.36,54.79L473.81,53.44L474.71,54.65L475.17,53.52L476.53,52.51L476.98,53.67L478.34,52.5L478.79,53.26L480.15,50.05L480.6,49.49L481.06,52.88L481.51,63.56L482.87,81.89L483.32,80.32L484.23,81.38L484.68,68.31L485.59,55.38L486.04,57.99L486.95,62.3L487.4,60.09L488.76,64.38L489.21,63.23L490.12,61.98L490.57,60.44L491.02,61.71L491.47,59.4L492.83,48.17L493.29,48.04L494.19,40.44L494.65,43.56L496,40.04L496.46,42.64L497.82,40.16L498.27,44.19L499.63,38.58L500.08,39.46L500.53,36.86L500.99,40.01L501.44,40.57L501.89,42.44L502.8,37.04L503.25,38.41L503.71,39.73L504.16,38.3L504.61,37.22L505.06,39.69L505.97,37.08L506.42,38.07L506.88,37.53L507.33,38.61L507.78,35.12L508.23,35.35L508.69,35.49L509.59,35.92L510.05,33.03L510.95,32.21L511.41,32.11L512.31,30.45L512.76,30.04L513.22,30.19L513.67,28.94L514.12,25.69L514.58,26.07L515.03,28.1L515.94,25.97L516.39,26.45L517.29,25.46L517.75,27.14L518.2,24.64L518.65,25.41L519.11,23.88L519.56,25.39L520.01,24.53L520.47,24.71L523.18,27.43L523.64,26.74L525.45,29.28L525.9,27.87L526.81,28.08L527.26,29.52L528.17,28.42L528.62,29.23L529.07,29.45L529.52,30.79L529.98,30.06L530.43,31.55L531.34,31.85L531.79,30.24L532.7,35.3L533.15,34.51L533.6,34.14L534.05,31.41L534.51,31.27L534.96,32.11L535.41,32.17L535.87,33.67L536.32,31.63L536.77,31.9L537.22,33.02L537.68,31.02L538.13,32.09L538.58,31.72L539.94,31.89L540.4,31.52L541.3,30.5L541.75,31.34L543.11,32.35L543.57,28.6L544.93,27.22L545.38,27.4L546.28,27.37L546.74,28.28L547.19,28.26L547.64,29.06L548.1,27.9L548.55,29.95L549.91,28.19L550.36,28.02L550.81,27.84L551.27,28.78L552.17,26.82L552.63,28L553.98,25.6L554.44,26.9L556.25,24.99L556.7,25.56L557.16,25.18L557.61,27.76L558.97,23.87L559.42,22.91L559.87,22.25L560.33,25.15L561.23,22.86L561.69,24.75L562.59,22.59L563.04,23.7L563.5,21.97L563.95,22.48L564.4,22.83L565.31,22.24L565.76,22.94L567.57,21.28L568.03,21.68L568.48,21.86L568.93,20.11L569.84,19.51L570.29,20.01L571.65,22.24L572.1,22.61L572.56,22.91L573.01,22.29L574.37,22.75L574.82,22.16L576.18,20.78L576.63,23.24L577.99,22.24L578.45,22.8L578.9,21.37L579.35,21.74L579.8,21.83L581.62,20.49L582.07,20.31L582.52,21.16L582.98,19.62L583.43,20.09L583.88,19.52L584.33,19.69L584.79,19.83L585.24,20.96L585.69,22.63L586.15,22.03L586.6,21.46L587.05,21.95L587.5,21.5L587.96,21.61L588.86,21.39L589.32,22.98L589.77,22.38L590.22,19.39L591.58,17.39L592.03,18.08L592.49,20.8L592.94,20.06L593.39,19.19L594.3,19.97L594.75,19.08L595.21,20.47L595.66,17.97L596.11,20.04L596.56,17.11L597.02,18.14L597.47,17.76L597.92,17.24L598.38,14.36L598.83,16.2L599.28,14.11L599.74,14.75L600.19,16.77L601.09,15.59L601.55,16.18L602,13.7L602,209.82L0,209.82Z" style="fill: rgb(0, 128, 0); fill-opacity: 0.3; stroke-width: 0;"/></g></g><g class="errorbars"/><g class="lines"><path class="js-line" d="M0,209.82L602,209.82" style="vector-effect: none; fill: none; stroke: rgb(0, 0, 0); stroke-opacity: 0; stroke-width: 0px; opacity: 1;"/></g><g class="points"/><g class="text"/></g><g class="trace scatter tracef99d5ccd-06fd-4f7f-80b5-90a8f954b44b" style="stroke-miterlimit: 2;"><g class="fills"/><g class="errorbars"/><g class="lines"><path class="js-line" d="M0,209.82L0.91,207.59L1.36,208.25L2.26,207.14L2.72,201.73L3.62,206.87L4.08,205.18L4.98,196.14L5.44,200.45L6.34,193.85L6.79,194.55L7.25,192.61L8.61,185.08L9.06,186.23L10.42,197.17L10.87,194.87L11.32,193.15L11.78,194.87L12.68,195.05L13.14,197.56L13.59,197.78L14.04,196.25L14.5,197.97L14.95,196.09L15.4,194.71L15.85,196.68L18.12,193.65L18.57,190.78L19.02,188.17L19.48,191.09L20.38,189.07L20.84,191.61L21.74,190.94L22.2,191.66L23.1,191.36L23.55,190L24.46,193.45L24.91,191.86L25.37,195.62L25.82,190.9L26.73,191.51L27.18,191.07L27.63,191.26L28.08,184.71L28.54,185.1L28.99,181.27L30.35,184.73L30.8,182.89L31.26,183.06L31.71,185.3L32.16,183.14L32.61,183.42L33.07,183.78L34.43,184.33L34.88,186.26L35.33,183.14L35.78,183.34L36.24,188.31L37.14,185.08L37.6,187.6L38.5,187.88L38.96,190.07L39.41,190.85L39.86,193.5L40.31,196.21L40.77,196.08L41.22,195.61L43.03,188.69L43.49,191.93L45.3,191.22L45.75,187.9L46.66,188.17L47.11,187.57L47.56,187.69L48.02,191.13L49.83,190.77L50.28,191.04L50.73,191.4L51.19,184.95L51.64,184.74L52.09,187.89L54.36,178.02L54.81,180.64L55.26,180.62L55.72,183.66L56.17,183.69L56.62,180.6L57.53,180.3L57.98,183.71L58.89,184.03L59.34,180.99L59.79,177.82L60.25,178.01L60.7,177.98L62.51,165.83L62.96,166.7L63.42,167.59L64.32,171.32L64.78,171.15L65.23,172.48L70.66,173.08L71.12,171.29L72.02,173.09L72.48,171.94L72.93,174.66L73.38,174.2L73.83,171.35L74.74,171.77L75.19,166.93L76.1,167.41L76.55,170.04L77.91,169.71L78.36,169.3L80.63,175.56L81.08,173.71L81.53,175.54L81.99,173.13L84.25,170.4L84.71,172.71L85.61,170.77L86.06,171.07L86.52,170.74L86.97,172.54L87.42,171.41L87.88,172.91L88.78,172.32L89.24,174.12L90.14,173.69L90.59,171.71L91.05,173.54L91.5,173.01L91.95,173.41L94.22,173.85L94.67,170.82L95.58,170.16L96.03,172.43L98.29,172.89L98.75,170L99.2,170.01L99.65,168.02L100.56,169.87L101.01,169.39L101.92,170.18L102.37,172.68L104.18,173.47L104.64,169.77L105.09,169.65L105.54,173.71L107.81,173.96L108.26,174.25L108.71,174.39L109.17,172.58L110.53,172.72L110.98,171.35L111.43,171.36L111.88,169.51L112.34,169.11L112.79,171.56L115.05,170.27L115.51,170.55L115.96,171L116.41,169.62L118.23,172.57L118.68,169.63L119.58,169.87L120.04,169.95L120.49,178.48L120.94,173.81L121.4,177.26L121.85,179.2L122.3,175.87L122.76,178.71L123.21,178.08L123.66,178.92L124.11,179.11L124.57,178.49L125.02,177.1L125.47,177.79L125.93,178.59L127.29,181.47L127.74,178.66L129.1,178.94L129.55,179.23L130,173.73L130.46,173.99L130.91,174.71L131.36,175.44L131.81,173.22L132.72,170.79L133.17,168.43L133.63,164.71L134.08,167.08L134.53,167.47L135.89,168.95L136.34,169.22L136.8,169.25L137.25,170.15L137.7,172.59L138.16,169.1L138.61,171.94L139.06,171.75L139.52,169.45L140.42,166.43L140.87,168.81L141.78,165.22L142.23,167.02L142.69,168.51L143.14,167.83L143.59,166.31L144.95,168.83L145.4,167.65L145.86,170.1L146.31,169.28L146.76,168.89L147.67,167.62L148.12,169.36L149.03,166.69L149.48,167.35L149.93,168.19L150.84,169.41L151.29,168.63L151.75,166.7L152.2,171.47L152.65,167.92L153.1,169.75L153.56,168.06L154.01,165.31L154.46,166.57L154.92,165.92L155.37,165.94L155.82,164.34L156.28,163.06L156.73,165.74L158.09,159.74L158.54,158.81L160.35,161.73L160.81,159.84L161.71,156.48L162.16,157.1L163.98,159.07L164.43,157.91L164.88,156.59L165.33,156.92L165.79,156.71L166.24,155.98L166.69,156.46L167.15,158.2L168.05,159.63L168.51,159.28L168.96,156.45L169.41,156.73L169.86,159.55L170.32,156.61L170.77,157.24L171.22,157.26L171.68,154.35L172.13,156.95L173.04,157.39L173.49,159.28L174.85,156.6L175.3,159.64L175.75,161.05L176.21,156.95L176.66,161.19L177.11,160.75L177.57,160.8L178.47,161.45L178.92,155.33L179.83,158.06L180.28,156.81L181.19,157.85L181.64,156.77L182.09,156.07L182.55,157.62L183.45,157.56L183.91,156.69L184.81,157.32L185.27,157.19L185.72,158.28L186.17,156.9L186.62,156.85L187.08,158.59L187.53,161.14L187.98,159.61L188.44,159.54L188.89,155.98L189.34,156.11L189.8,154.99L190.25,154.09L190.7,155.84L191.15,156.76L191.61,155.78L192.06,155.98L192.51,154.26L193.42,155.26L193.87,156.88L194.33,156.78L194.78,155.31L195.23,155.27L195.68,157.06L196.59,155.25L197.04,155.48L197.5,155.97L197.95,154.08L198.4,153.07L198.85,153.93L199.31,154.02L199.76,155.49L200.21,153.42L200.67,155.31L201.57,157.28L202.03,154.73L202.48,153.9L202.93,155.19L203.38,154.09L203.84,156.56L204.29,156.1L204.74,154.23L205.2,153.76L205.65,156.36L207.01,155.33L207.46,156.29L207.91,153.56L208.37,153.81L208.82,155.29L209.27,154.97L209.73,153.11L210.63,153.32L211.09,151.55L211.54,151.56L211.99,153.53L212.44,154.52L212.9,152.83L213.35,155.53L213.8,154.74L214.26,154.34L214.71,154.31L215.16,152.34L216.07,154.09L216.52,154.36L217.43,158.01L217.88,156.86L219.24,156.78L219.69,157.71L220.6,156.86L221.05,155.8L221.96,154.77L222.41,156.62L223.77,155.87L224.22,153.96L225.58,155.64L226.03,155.52L227.39,152.65L227.84,150.95L229.2,150.57L229.66,151.69L230.56,150.72L231.02,148.98L231.47,149.17L231.92,151.56L233.28,151.64L233.73,153.28L234.64,154.5L235.09,153.5L236,156.31L236.45,155.2L236.9,153.5L237.36,156.1L238.72,153.2L239.17,155.24L240.08,153.99L240.53,156.13L240.98,121.12L241.43,122.15L241.89,119.27L242.34,117.29L242.79,119.78L243.25,119.66L243.7,121.22L244.15,123.83L244.6,122.16L245.06,120.15L246.42,120.57L246.87,122.8L247.32,122.91L247.78,124.27L248.23,124.45L248.68,126.95L249.59,127.21L250.04,124.59L250.49,124.93L250.95,124.2L251.85,124.15L252.31,121.48L253.66,122.27L254.12,125.62L254.57,125.75L255.02,128.35L255.48,128.47L255.93,134.14L256.38,134.14L256.84,130.59L257.74,131.67L258.19,131.22L259.55,127.87L260.01,125.95L260.46,126.59L260.91,126.17L261.36,126.18L262.27,126.04L262.72,123.23L263.63,122.84L264.08,125.44L264.54,124.95L264.99,127.72L266.35,127.83L266.8,121.84L268.16,121.8L268.61,119.04L269.52,112.65L269.97,116.32L271.78,116.12L272.24,114.48L272.69,114.42L273.14,113.42L273.6,113.12L274.05,114.77L274.5,114.22L274.95,114.82L275.41,113.06L276.31,111.5L276.77,112.28L277.22,112.33L277.67,113.66L278.58,110.22L279.03,112.11L279.48,111.62L279.94,113.98L280.39,114.25L280.84,112.88L282.65,111.72L283.11,112.07L284.01,112.53L284.47,111.74L284.92,112.85L285.37,111.32L285.83,110.63L286.28,112.45L286.73,112.03L287.18,113.13L288.09,112.72L288.54,113.96L289.45,113.59L289.9,110.42L291.26,108.19L291.71,110.08L292.17,110.15L292.62,111.5L293.07,111.58L293.53,110.9L294.43,110.85L294.88,110.08L296.24,106.25L296.7,106.51L297.15,105.66L297.6,107.15L298.06,107.85L298.51,107.23L298.96,105.77L300.32,106.95L300.77,106.93L301.68,106.71L302.13,107.33L302.59,107.81L303.04,107.06L303.94,108.37L304.4,107.83L306.21,108.09L306.66,107.97L307.12,108.74L307.57,108.06L308.02,108.7L309.38,107.31L309.83,107.36L311.64,109.06L312.1,108.38L312.55,108.62L313,109.99L313.46,109.2L313.91,111.81L314.36,109.59L314.82,109.93L315.27,111.02L315.72,109.69L316.17,110.64L316.63,111.89L317.08,111.42L317.53,111.96L317.99,112.24L318.44,112.15L318.89,113.58L319.35,110.33L319.8,110.6L320.25,112.26L321.16,110.75L321.61,111.23L322.06,110.07L322.52,110.98L325.23,110.3L325.69,113.11L327.5,112.42L327.95,113.96L328.86,110.83L329.31,111.16L329.76,111.24L330.22,112.31L330.67,110.63L331.12,113.16L331.58,113.02L332.03,113.31L333.39,112.43L333.84,113.95L335.2,114.46L335.65,114.27L336.56,114.58L337.01,113.88L337.46,114.41L337.92,116.23L338.82,115.69L339.28,116.61L339.73,119.31L340.18,118.38L340.64,118.7L341.09,119.36L341.54,117.9L342.9,114.99L343.35,116.33L344.71,115.88L345.16,115.26L345.62,114.22L346.07,115.82L346.52,115.29L346.98,115.86L347.43,116.82L348.34,116.18L348.79,117.61L349.24,117.88L349.69,113.15L350.6,109.52L351.05,110.57L353.77,103.66L354.22,103.99L355.13,106.1L355.58,104.13L356.49,103.82L356.94,103.46L357.4,103.7L357.85,105.32L358.75,102.69L359.21,103.93L360.11,103.55L360.57,102.27L361.02,108.73L361.47,83.82L363.28,87.63L363.74,86.21L365.1,90.86L365.55,89.16L366.91,96.95L367.36,97.37L368.27,93.67L368.72,93.44L369.17,95.82L369.63,95.57L370.08,93.12L371.44,87.67L371.89,88.39L373.25,91.53L373.7,88.23L374.16,88.75L374.61,86.25L375.06,84.81L375.51,86.32L375.97,87.95L376.42,85.94L379.59,79.3L380.04,75.99L380.95,74.66L381.4,74.84L382.31,74.99L382.76,74.5L383.67,79.8L384.12,77.84L385.93,77.95L386.39,76.4L386.84,74.7L387.29,75.71L387.74,76.47L388.65,73.03L389.1,71.35L389.56,71.24L390.01,73.92L390.46,72.91L390.91,73.39L391.37,73.65L392.27,71.93L392.73,72.86L393.18,72.94L393.63,73.95L394.99,72.02L395.44,73L397.71,76.77L398.16,74.49L399.07,75.15L399.52,74.44L399.97,75.62L400.43,68.84L401.33,67.64L401.79,70.05L402.69,65.8L403.15,67.28L403.6,65.8L404.05,67.85L404.5,67.84L404.96,66.17L405.41,66.61L405.86,64.65L407.22,67.4L407.67,64.98L408.13,61.32L408.58,62.72L409.03,62.51L409.49,62.83L409.94,60.83L410.39,59.27L410.85,62.12L411.3,62.42L411.75,63.92L412.2,63.66L412.66,64.36L413.56,63.95L414.02,62.77L414.47,63.28L414.92,62.32L415.38,63L415.83,61.75L416.28,62.02L416.73,63.47L417.64,62.22L418.09,59.47L418.55,59.34L419,61.05L419.91,56.86L420.36,63.87L420.81,64.65L421.26,63.43L422.62,62.14L423.08,62.17L423.53,61.92L423.98,62.69L424.43,63.31L424.89,62.95L425.34,62.52L426.25,62.43L426.7,57.37L428.06,57.29L428.51,56.1L429.42,56.25L429.87,56.94L430.78,57L431.23,57.87L432.59,56.78L433.04,57.48L434.4,60.25L434.85,59.31L435.31,59.37L435.76,60.74L437.12,55.93L437.57,56.35L438.02,55.9L439.38,57.35L439.84,55.82L440.29,58.33L440.74,57.8L441.19,56.34L441.65,55.55L442.1,56.03L442.55,55.71L443.91,58.4L444.37,57.61L445.27,55.9L445.72,56.65L446.18,53.64L446.63,55.02L447.08,54.51L447.99,56.08L448.44,55.5L449.8,60.02L450.25,60.08L450.71,57.14L451.16,58.74L451.61,58.2L452.07,57.68L452.52,58.71L453.88,56.84L454.33,57.34L455.24,57.36L455.69,52.94L456.6,52.42L457.05,56.74L457.95,56.04L458.41,54.93L458.86,55.41L459.31,53.22L460.67,52.15L461.13,52.14L461.58,51.62L462.03,52.68L462.94,50.86L463.39,52.27L465.66,51.91L466.11,49.07L468.37,48.64L468.83,52.01L469.73,47.83L470.19,51.58L470.64,52.95L471.09,51.63L472,52.16L472.45,52.98L473.36,54.79L473.81,53.44L474.71,54.65L475.17,53.52L476.53,52.51L476.98,53.67L478.34,52.5L478.79,53.26L480.15,50.05L480.6,49.49L481.06,52.88L481.51,63.56L482.87,81.89L483.32,80.32L484.23,81.38L484.68,68.31L485.59,55.38L486.04,57.99L486.95,62.3L487.4,60.09L488.76,64.38L489.21,63.23L490.12,61.98L490.57,60.44L491.02,61.71L491.47,59.4L492.83,48.17L493.29,48.04L494.19,40.44L494.65,43.56L496,40.04L496.46,42.64L497.82,40.16L498.27,44.19L499.63,38.58L500.08,39.46L500.53,36.86L500.99,40.01L501.44,40.57L501.89,42.44L502.8,37.04L503.25,38.41L503.71,39.73L504.16,38.3L504.61,37.22L505.06,39.69L505.97,37.08L506.42,38.07L506.88,37.53L507.33,38.61L507.78,35.12L508.23,35.35L508.69,35.49L509.59,35.92L510.05,33.03L510.95,32.21L511.41,32.11L512.31,30.45L512.76,30.04L513.22,30.19L513.67,28.94L514.12,25.69L514.58,26.07L515.03,28.1L515.94,25.97L516.39,26.45L517.29,25.46L517.75,27.14L518.2,24.64L518.65,25.41L519.11,23.88L519.56,25.39L520.01,24.53L520.47,24.71L523.18,27.43L523.64,26.74L525.45,29.28L525.9,27.87L526.81,28.08L527.26,29.52L528.17,28.42L528.62,29.23L529.07,29.45L529.52,30.79L529.98,30.06L530.43,31.55L531.34,31.85L531.79,30.24L532.7,35.3L533.15,34.51L533.6,34.14L534.05,31.41L534.51,31.27L534.96,32.11L535.41,32.17L535.87,33.67L536.32,31.63L536.77,31.9L537.22,33.02L537.68,31.02L538.13,32.09L538.58,31.72L539.94,31.89L540.4,31.52L541.3,30.5L541.75,31.34L543.11,32.35L543.57,28.6L544.93,27.22L545.38,27.4L546.28,27.37L546.74,28.28L547.19,28.26L547.64,29.06L548.1,27.9L548.55,29.95L549.91,28.19L550.36,28.02L550.81,27.84L551.27,28.78L552.17,26.82L552.63,28L553.98,25.6L554.44,26.9L556.25,24.99L556.7,25.56L557.16,25.18L557.61,27.76L558.97,23.87L559.42,22.91L559.87,22.25L560.33,25.15L561.23,22.86L561.69,24.75L562.59,22.59L563.04,23.7L563.5,21.97L563.95,22.48L564.4,22.83L565.31,22.24L565.76,22.94L567.57,21.28L568.03,21.68L568.48,21.86L568.93,20.11L569.84,19.51L570.29,20.01L571.65,22.24L572.1,22.61L572.56,22.91L573.01,22.29L574.37,22.75L574.82,22.16L576.18,20.78L576.63,23.24L577.99,22.24L578.45,22.8L578.9,21.37L579.35,21.74L579.8,21.83L581.62,20.49L582.07,20.31L582.52,21.16L582.98,19.62L583.43,20.09L583.88,19.52L584.33,19.69L584.79,19.83L585.24,20.96L585.69,22.63L586.15,22.03L586.6,21.46L587.05,21.95L587.5,21.5L587.96,21.61L588.86,21.39L589.32,22.98L589.77,22.38L590.22,19.39L591.58,17.39L592.03,18.08L592.49,20.8L592.94,20.06L593.39,19.19L594.3,19.97L594.75,19.08L595.21,20.47L595.66,17.97L596.11,20.04L596.56,17.11L597.02,18.14L597.47,17.76L597.92,17.24L598.38,14.36L598.83,16.2L599.28,14.11L599.74,14.75L600.19,16.77L601.09,15.59L601.55,16.18L602,13.7" style="vector-effect: none; fill: none; stroke: rgb(0, 0, 0); stroke-opacity: 0; stroke-width: 0px; opacity: 1;"/></g><g class="points"/><g class="text"/></g><g class="trace scatter trace98e2d72f-eeec-4285-8f7f-f79939a820c6" style="stroke-miterlimit: 2;"><g class="fills"><g><path class="js-fill" d="M0,212.22L0.91,209.82L1.36,209.82L602,209.82L602,209.82L0,209.82Z" style="fill: rgb(255, 0, 0); fill-opacity: 0.3; stroke-width: 0;"/></g></g><g class="errorbars"/><g class="lines"><path class="js-line" d="M0,209.82L602,209.82" style="vector-effect: none; fill: none; stroke: rgb(0, 0, 0); stroke-opacity: 0; stroke-width: 0px; opacity: 1;"/></g><g class="points"/><g class="text"/></g><g class="trace scatter tracefeadabbb-3977-44c4-8f1b-3df622dc004f" style="stroke-miterlimit: 2;"><g class="fills"/><g class="errorbars"/><g class="lines"><path class="js-line" d="M0,212.22L0.91,209.82L1.36,209.82L602,209.82" style="vector-effect: none; fill: none; stroke: rgb(0, 0, 0); stroke-opacity: 0; stroke-width: 0px; opacity: 1;"/></g><g class="points"/><g class="text"/></g><g class="trace scatter trace021cbba6-976e-45e9-973f-41538915fbb5" style="stroke-miterlimit: 2; opacity: 1;"><g class="fills"/><g class="errorbars"/><g class="lines"><path class="js-line" d="M0,212.22L0.91,207.59L1.36,208.25L2.26,207.14L2.72,201.73L3.62,206.87L4.08,205.18L4.98,196.14L5.44,200.45L6.34,193.85L6.79,194.55L7.25,192.61L8.61,185.08L9.06,186.23L10.42,197.17L10.87,194.87L11.32,193.15L11.78,194.87L12.68,195.05L13.14,197.56L13.59,197.78L14.04,196.25L14.5,197.97L14.95,196.09L15.4,194.71L15.85,196.68L18.12,193.65L18.57,190.78L19.02,188.17L19.48,191.09L20.38,189.07L20.84,191.61L21.74,190.94L22.2,191.66L23.1,191.36L23.55,190L24.46,193.45L24.91,191.86L25.37,195.62L25.82,190.9L26.73,191.51L27.18,191.07L27.63,191.26L28.08,184.71L28.54,185.1L28.99,181.27L30.35,184.73L30.8,182.89L31.26,183.06L31.71,185.3L32.16,183.14L32.61,183.42L33.07,183.78L34.43,184.33L34.88,186.26L35.33,183.14L35.78,183.34L36.24,188.31L37.14,185.08L37.6,187.6L38.5,187.88L38.96,190.07L39.41,190.85L39.86,193.5L40.31,196.21L40.77,196.08L41.22,195.61L43.03,188.69L43.49,191.93L45.3,191.22L45.75,187.9L46.66,188.17L47.11,187.57L47.56,187.69L48.02,191.13L49.83,190.77L50.28,191.04L50.73,191.4L51.19,184.95L51.64,184.74L52.09,187.89L54.36,178.02L54.81,180.64L55.26,180.62L55.72,183.66L56.17,183.69L56.62,180.6L57.53,180.3L57.98,183.71L58.89,184.03L59.34,180.99L59.79,177.82L60.25,178.01L60.7,177.98L62.51,165.83L62.96,166.7L63.42,167.59L64.32,171.32L64.78,171.15L65.23,172.48L70.66,173.08L71.12,171.29L72.02,173.09L72.48,171.94L72.93,174.66L73.38,174.2L73.83,171.35L74.74,171.77L75.19,166.93L76.1,167.41L76.55,170.04L77.91,169.71L78.36,169.3L80.63,175.56L81.08,173.71L81.53,175.54L81.99,173.13L84.25,170.4L84.71,172.71L85.61,170.77L86.06,171.07L86.52,170.74L86.97,172.54L87.42,171.41L87.88,172.91L88.78,172.32L89.24,174.12L90.14,173.69L90.59,171.71L91.05,173.54L91.5,173.01L91.95,173.41L94.22,173.85L94.67,170.82L95.58,170.16L96.03,172.43L98.29,172.89L98.75,170L99.2,170.01L99.65,168.02L100.56,169.87L101.01,169.39L101.92,170.18L102.37,172.68L104.18,173.47L104.64,169.77L105.09,169.65L105.54,173.71L107.81,173.96L108.26,174.25L108.71,174.39L109.17,172.58L110.53,172.72L110.98,171.35L111.43,171.36L111.88,169.51L112.34,169.11L112.79,171.56L115.05,170.27L115.51,170.55L115.96,171L116.41,169.62L118.23,172.57L118.68,169.63L119.58,169.87L120.04,169.95L120.49,178.48L120.94,173.81L121.4,177.26L121.85,179.2L122.3,175.87L122.76,178.71L123.21,178.08L123.66,178.92L124.11,179.11L124.57,178.49L125.02,177.1L125.47,177.79L125.93,178.59L127.29,181.47L127.74,178.66L129.1,178.94L129.55,179.23L130,173.73L130.46,173.99L130.91,174.71L131.36,175.44L131.81,173.22L132.72,170.79L133.17,168.43L133.63,164.71L134.08,167.08L134.53,167.47L135.89,168.95L136.34,169.22L136.8,169.25L137.25,170.15L137.7,172.59L138.16,169.1L138.61,171.94L139.06,171.75L139.52,169.45L140.42,166.43L140.87,168.81L141.78,165.22L142.23,167.02L142.69,168.51L143.14,167.83L143.59,166.31L144.95,168.83L145.4,167.65L145.86,170.1L146.31,169.28L146.76,168.89L147.67,167.62L148.12,169.36L149.03,166.69L149.48,167.35L149.93,168.19L150.84,169.41L151.29,168.63L151.75,166.7L152.2,171.47L152.65,167.92L153.1,169.75L153.56,168.06L154.01,165.31L154.46,166.57L154.92,165.92L155.37,165.94L155.82,164.34L156.28,163.06L156.73,165.74L158.09,159.74L158.54,158.81L160.35,161.73L160.81,159.84L161.71,156.48L162.16,157.1L163.98,159.07L164.43,157.91L164.88,156.59L165.33,156.92L165.79,156.71L166.24,155.98L166.69,156.46L167.15,158.2L168.05,159.63L168.51,159.28L168.96,156.45L169.41,156.73L169.86,159.55L170.32,156.61L170.77,157.24L171.22,157.26L171.68,154.35L172.13,156.95L173.04,157.39L173.49,159.28L174.85,156.6L175.3,159.64L175.75,161.05L176.21,156.95L176.66,161.19L177.11,160.75L177.57,160.8L178.47,161.45L178.92,155.33L179.83,158.06L180.28,156.81L181.19,157.85L181.64,156.77L182.09,156.07L182.55,157.62L183.45,157.56L183.91,156.69L184.81,157.32L185.27,157.19L185.72,158.28L186.17,156.9L186.62,156.85L187.08,158.59L187.53,161.14L187.98,159.61L188.44,159.54L188.89,155.98L189.34,156.11L189.8,154.99L190.25,154.09L190.7,155.84L191.15,156.76L191.61,155.78L192.06,155.98L192.51,154.26L193.42,155.26L193.87,156.88L194.33,156.78L194.78,155.31L195.23,155.27L195.68,157.06L196.59,155.25L197.04,155.48L197.5,155.97L197.95,154.08L198.4,153.07L198.85,153.93L199.31,154.02L199.76,155.49L200.21,153.42L200.67,155.31L201.57,157.28L202.03,154.73L202.48,153.9L202.93,155.19L203.38,154.09L203.84,156.56L204.29,156.1L204.74,154.23L205.2,153.76L205.65,156.36L207.01,155.33L207.46,156.29L207.91,153.56L208.37,153.81L208.82,155.29L209.27,154.97L209.73,153.11L210.63,153.32L211.09,151.55L211.54,151.56L211.99,153.53L212.44,154.52L212.9,152.83L213.35,155.53L213.8,154.74L214.26,154.34L214.71,154.31L215.16,152.34L216.07,154.09L216.52,154.36L217.43,158.01L217.88,156.86L219.24,156.78L219.69,157.71L220.6,156.86L221.05,155.8L221.96,154.77L222.41,156.62L223.77,155.87L224.22,153.96L225.58,155.64L226.03,155.52L227.39,152.65L227.84,150.95L229.2,150.57L229.66,151.69L230.56,150.72L231.02,148.98L231.47,149.17L231.92,151.56L233.28,151.64L233.73,153.28L234.64,154.5L235.09,153.5L236,156.31L236.45,155.2L236.9,153.5L237.36,156.1L238.72,153.2L239.17,155.24L240.08,153.99L240.53,156.13L240.98,121.12L241.43,122.15L241.89,119.27L242.34,117.29L242.79,119.78L243.25,119.66L243.7,121.22L244.15,123.83L244.6,122.16L245.06,120.15L246.42,120.57L246.87,122.8L247.32,122.91L247.78,124.27L248.23,124.45L248.68,126.95L249.59,127.21L250.04,124.59L250.49,124.93L250.95,124.2L251.85,124.15L252.31,121.48L253.66,122.27L254.12,125.62L254.57,125.75L255.02,128.35L255.48,128.47L255.93,134.14L256.38,134.14L256.84,130.59L257.74,131.67L258.19,131.22L259.55,127.87L260.01,125.95L260.46,126.59L260.91,126.17L261.36,126.18L262.27,126.04L262.72,123.23L263.63,122.84L264.08,125.44L264.54,124.95L264.99,127.72L266.35,127.83L266.8,121.84L268.16,121.8L268.61,119.04L269.52,112.65L269.97,116.32L271.78,116.12L272.24,114.48L272.69,114.42L273.14,113.42L273.6,113.12L274.05,114.77L274.5,114.22L274.95,114.82L275.41,113.06L276.31,111.5L276.77,112.28L277.22,112.33L277.67,113.66L278.58,110.22L279.03,112.11L279.48,111.62L279.94,113.98L280.39,114.25L280.84,112.88L282.65,111.72L283.11,112.07L284.01,112.53L284.47,111.74L284.92,112.85L285.37,111.32L285.83,110.63L286.28,112.45L286.73,112.03L287.18,113.13L288.09,112.72L288.54,113.96L289.45,113.59L289.9,110.42L291.26,108.19L291.71,110.08L292.17,110.15L292.62,111.5L293.07,111.58L293.53,110.9L294.43,110.85L294.88,110.08L296.24,106.25L296.7,106.51L297.15,105.66L297.6,107.15L298.06,107.85L298.51,107.23L298.96,105.77L300.32,106.95L300.77,106.93L301.68,106.71L302.13,107.33L302.59,107.81L303.04,107.06L303.94,108.37L304.4,107.83L306.21,108.09L306.66,107.97L307.12,108.74L307.57,108.06L308.02,108.7L309.38,107.31L309.83,107.36L311.64,109.06L312.1,108.38L312.55,108.62L313,109.99L313.46,109.2L313.91,111.81L314.36,109.59L314.82,109.93L315.27,111.02L315.72,109.69L316.17,110.64L316.63,111.89L317.08,111.42L317.53,111.96L317.99,112.24L318.44,112.15L318.89,113.58L319.35,110.33L319.8,110.6L320.25,112.26L321.16,110.75L321.61,111.23L322.06,110.07L322.52,110.98L325.23,110.3L325.69,113.11L327.5,112.42L327.95,113.96L328.86,110.83L329.31,111.16L329.76,111.24L330.22,112.31L330.67,110.63L331.12,113.16L331.58,113.02L332.03,113.31L333.39,112.43L333.84,113.95L335.2,114.46L335.65,114.27L336.56,114.58L337.01,113.88L337.46,114.41L337.92,116.23L338.82,115.69L339.28,116.61L339.73,119.31L340.18,118.38L340.64,118.7L341.09,119.36L341.54,117.9L342.9,114.99L343.35,116.33L344.71,115.88L345.16,115.26L345.62,114.22L346.07,115.82L346.52,115.29L346.98,115.86L347.43,116.82L348.34,116.18L348.79,117.61L349.24,117.88L349.69,113.15L350.6,109.52L351.05,110.57L353.77,103.66L354.22,103.99L355.13,106.1L355.58,104.13L356.49,103.82L356.94,103.46L357.4,103.7L357.85,105.32L358.75,102.69L359.21,103.93L360.11,103.55L360.57,102.27L361.02,108.73L361.47,83.82L363.28,87.63L363.74,86.21L365.1,90.86L365.55,89.16L366.91,96.95L367.36,97.37L368.27,93.67L368.72,93.44L369.17,95.82L369.63,95.57L370.08,93.12L371.44,87.67L371.89,88.39L373.25,91.53L373.7,88.23L374.16,88.75L374.61,86.25L375.06,84.81L375.51,86.32L375.97,87.95L376.42,85.94L379.59,79.3L380.04,75.99L380.95,74.66L381.4,74.84L382.31,74.99L382.76,74.5L383.67,79.8L384.12,77.84L385.93,77.95L386.39,76.4L386.84,74.7L387.29,75.71L387.74,76.47L388.65,73.03L389.1,71.35L389.56,71.24L390.01,73.92L390.46,72.91L390.91,73.39L391.37,73.65L392.27,71.93L392.73,72.86L393.18,72.94L393.63,73.95L394.99,72.02L395.44,73L397.71,76.77L398.16,74.49L399.07,75.15L399.52,74.44L399.97,75.62L400.43,68.84L401.33,67.64L401.79,70.05L402.69,65.8L403.15,67.28L403.6,65.8L404.05,67.85L404.5,67.84L404.96,66.17L405.41,66.61L405.86,64.65L407.22,67.4L407.67,64.98L408.13,61.32L408.58,62.72L409.03,62.51L409.49,62.83L409.94,60.83L410.39,59.27L410.85,62.12L411.3,62.42L411.75,63.92L412.2,63.66L412.66,64.36L413.56,63.95L414.02,62.77L414.47,63.28L414.92,62.32L415.38,63L415.83,61.75L416.28,62.02L416.73,63.47L417.64,62.22L418.09,59.47L418.55,59.34L419,61.05L419.91,56.86L420.36,63.87L420.81,64.65L421.26,63.43L422.62,62.14L423.08,62.17L423.53,61.92L423.98,62.69L424.43,63.31L424.89,62.95L425.34,62.52L426.25,62.43L426.7,57.37L428.06,57.29L428.51,56.1L429.42,56.25L429.87,56.94L430.78,57L431.23,57.87L432.59,56.78L433.04,57.48L434.4,60.25L434.85,59.31L435.31,59.37L435.76,60.74L437.12,55.93L437.57,56.35L438.02,55.9L439.38,57.35L439.84,55.82L440.29,58.33L440.74,57.8L441.19,56.34L441.65,55.55L442.1,56.03L442.55,55.71L443.91,58.4L444.37,57.61L445.27,55.9L445.72,56.65L446.18,53.64L446.63,55.02L447.08,54.51L447.99,56.08L448.44,55.5L449.8,60.02L450.25,60.08L450.71,57.14L451.16,58.74L451.61,58.2L452.07,57.68L452.52,58.71L453.88,56.84L454.33,57.34L455.24,57.36L455.69,52.94L456.6,52.42L457.05,56.74L457.95,56.04L458.41,54.93L458.86,55.41L459.31,53.22L460.67,52.15L461.13,52.14L461.58,51.62L462.03,52.68L462.94,50.86L463.39,52.27L465.66,51.91L466.11,49.07L468.37,48.64L468.83,52.01L469.73,47.83L470.19,51.58L470.64,52.95L471.09,51.63L472,52.16L472.45,52.98L473.36,54.79L473.81,53.44L474.71,54.65L475.17,53.52L476.53,52.51L476.98,53.67L478.34,52.5L478.79,53.26L480.15,50.05L480.6,49.49L481.06,52.88L481.51,63.56L482.87,81.89L483.32,80.32L484.23,81.38L484.68,68.31L485.59,55.38L486.04,57.99L486.95,62.3L487.4,60.09L488.76,64.38L489.21,63.23L490.12,61.98L490.57,60.44L491.02,61.71L491.47,59.4L492.83,48.17L493.29,48.04L494.19,40.44L494.65,43.56L496,40.04L496.46,42.64L497.82,40.16L498.27,44.19L499.63,38.58L500.08,39.46L500.53,36.86L500.99,40.01L501.44,40.57L501.89,42.44L502.8,37.04L503.25,38.41L503.71,39.73L504.16,38.3L504.61,37.22L505.06,39.69L505.97,37.08L506.42,38.07L506.88,37.53L507.33,38.61L507.78,35.12L508.23,35.35L508.69,35.49L509.59,35.92L510.05,33.03L510.95,32.21L511.41,32.11L512.31,30.45L512.76,30.04L513.22,30.19L513.67,28.94L514.12,25.69L514.58,26.07L515.03,28.1L515.94,25.97L516.39,26.45L517.29,25.46L517.75,27.14L518.2,24.64L518.65,25.41L519.11,23.88L519.56,25.39L520.01,24.53L520.47,24.71L523.18,27.43L523.64,26.74L525.45,29.28L525.9,27.87L526.81,28.08L527.26,29.52L528.17,28.42L528.62,29.23L529.07,29.45L529.52,30.79L529.98,30.06L530.43,31.55L531.34,31.85L531.79,30.24L532.7,35.3L533.15,34.51L533.6,34.14L534.05,31.41L534.51,31.27L534.96,32.11L535.41,32.17L535.87,33.67L536.32,31.63L536.77,31.9L537.22,33.02L537.68,31.02L538.13,32.09L538.58,31.72L539.94,31.89L540.4,31.52L541.3,30.5L541.75,31.34L543.11,32.35L543.57,28.6L544.93,27.22L545.38,27.4L546.28,27.37L546.74,28.28L547.19,28.26L547.64,29.06L548.1,27.9L548.55,29.95L549.91,28.19L550.36,28.02L550.81,27.84L551.27,28.78L552.17,26.82L552.63,28L553.98,25.6L554.44,26.9L556.25,24.99L556.7,25.56L557.16,25.18L557.61,27.76L558.97,23.87L559.42,22.91L559.87,22.25L560.33,25.15L561.23,22.86L561.69,24.75L562.59,22.59L563.04,23.7L563.5,21.97L563.95,22.48L564.4,22.83L565.31,22.24L565.76,22.94L567.57,21.28L568.03,21.68L568.48,21.86L568.93,20.11L569.84,19.51L570.29,20.01L571.65,22.24L572.1,22.61L572.56,22.91L573.01,22.29L574.37,22.75L574.82,22.16L576.18,20.78L576.63,23.24L577.99,22.24L578.45,22.8L578.9,21.37L579.35,21.74L579.8,21.83L581.62,20.49L582.07,20.31L582.52,21.16L582.98,19.62L583.43,20.09L583.88,19.52L584.33,19.69L584.79,19.83L585.24,20.96L585.69,22.63L586.15,22.03L586.6,21.46L587.05,21.95L587.5,21.5L587.96,21.61L588.86,21.39L589.32,22.98L589.77,22.38L590.22,19.39L591.58,17.39L592.03,18.08L592.49,20.8L592.94,20.06L593.39,19.19L594.3,19.97L594.75,19.08L595.21,20.47L595.66,17.97L596.11,20.04L596.56,17.11L597.02,18.14L597.47,17.76L597.92,17.24L598.38,14.36L598.83,16.2L599.28,14.11L599.74,14.75L600.19,16.77L601.09,15.59L601.55,16.18L602,13.7" style="vector-effect: none; fill: none; stroke: rgb(148, 103, 189); stroke-opacity: 1; stroke-width: 2px; opacity: 1;"/></g><g class="points"/><g class="text"/></g><g class="trace scatter traceca724784-1bd2-4c1d-94d7-9ba53bf1ca8a" style="stroke-miterlimit: 2; opacity: 0;"><g class="fills"/><g class="errorbars"/><g class="lines"><path class="js-line" d="M0,209.82L602,209.82" style="vector-effect: none; fill: none; stroke: rgb(0, 0, 0); stroke-opacity: 0; stroke-width: 0px; opacity: 1;"/></g><g class="points"/><g class="text"/></g></g></g></g><path class="xlines-above crisp" d="M0,0" style="fill: none;"/><path class="ylines-above crisp" d="M0,0" style="fill: none;"/><g class="overlines-above"/><g class="xaxislayer-above"><g class="xtick"><text text-anchor="middle" x="0" y="333" transform="translate(68,0)" style="font-family: 'Open Sans', verdana, arial, sans-serif; font-size: 12px; fill: rgb(42, 63, 95); fill-opacity: 1; white-space: pre; opacity: 1;">2025-05-26</text></g><g class="xtick"><text text-anchor="middle" x="0" y="333" transform="translate(188.49,0)" style="font-family: 'Open Sans', verdana, arial, sans-serif; font-size: 12px; fill: rgb(42, 63, 95); fill-opacity: 1; white-space: pre; opacity: 1;">2025-05-27</text></g><g class="xtick"><text text-anchor="middle" x="0" y="333" transform="translate(308.98,0)" style="font-family: 'Open Sans', verdana, arial, sans-serif; font-size: 12px; fill: rgb(42, 63, 95); fill-opacity: 1; white-space: pre; opacity: 1;">2025-05-28</text></g><g class="xtick"><text text-anchor="middle" x="0" y="333" transform="translate(429.47,0)" style="font-family: 'Open Sans', verdana, arial, sans-serif; font-size: 12px; fill: rgb(42, 63, 95); fill-opacity: 1; white-space: pre; opacity: 1;">2025-05-29</text></g><g class="xtick"><text text-anchor="middle" x="0" y="333" transform="translate(549.96,0)" style="font-family: 'Open Sans', verdana, arial, sans-serif; font-size: 12px; fill: rgb(42, 63, 95); fill-opacity: 1; white-space: pre; opacity: 1;">2025-06-02</text></g></g><g class="yaxislayer-above"><g class="ytick"><text text-anchor="end" x="67" y="4.199999999999999" transform="translate(0,296.81)" style="font-family: 'Open Sans', verdana, arial, sans-serif; font-size: 12px; fill: rgb(42, 63, 95); fill-opacity: 1; white-space: pre; opacity: 1;">98.00%</text></g><g class="ytick"><text text-anchor="end" x="67" y="4.199999999999999" style="font-family: 'Open Sans', verdana, arial, sans-serif; font-size: 12px; fill: rgb(42, 63, 95); fill-opacity: 1; white-space: pre; opacity: 1;" transform="translate(0,255.82)">100.00%</text></g><g class="ytick"><text text-anchor="end" x="67" y="4.199999999999999" style="font-family: 'Open Sans', verdana, arial, sans-serif; font-size: 12px; fill: rgb(42, 63, 95); fill-opacity: 1; white-space: pre; opacity: 1;" transform="translate(0,214.83)">102.00%</text></g><g class="ytick"><text text-anchor="end" x="67" y="4.199999999999999" style="font-family: 'Open Sans', verdana, arial, sans-serif; font-size: 12px; fill: rgb(42, 63, 95); fill-opacity: 1; white-space: pre; opacity: 1;" transform="translate(0,173.84)">104.00%</text></g><g class="ytick"><text text-anchor="end" x="67" y="4.199999999999999" style="font-family: 'Open Sans', verdana, arial, sans-serif; font-size: 12px; fill: rgb(42, 63, 95); fill-opacity: 1; white-space: pre; opacity: 1;" transform="translate(0,132.85)">106.00%</text></g><g class="ytick"><text text-anchor="end" x="67" y="4.199999999999999" style="font-family: 'Open Sans', verdana, arial, sans-serif; font-size: 12px; fill: rgb(42, 63, 95); fill-opacity: 1; white-space: pre; opacity: 1;" transform="translate(0,91.86)">108.00%</text></g><g class="ytick"><text text-anchor="end" x="67" y="4.199999999999999" style="font-family: 'Open Sans', verdana, arial, sans-serif; font-size: 12px; fill: rgb(42, 63, 95); fill-opacity: 1; white-space: pre; opacity: 1;" transform="translate(0,50.87)">110.00%</text></g></g><g class="overaxes-above"/></g></g><g class="polarlayer"/><g class="smithlayer"/><g class="ternarylayer"/><g class="geolayer"/><g class="funnelarealayer"/><g class="pielayer"/><g class="iciclelayer"/><g class="treemaplayer"/><g class="sunburstlayer"/><g class="glimages"/><defs id="topdefs-6dcaf6"><g class="clips"/><clipPath id="legend6dcaf6"><rect width="192" height="29" x="0" y="0"/></clipPath></defs><g class="layer-above"><g class="imagelayer"/><g class="shapelayer"><g class="shape-group" data-index="0" clip-path="url(#clip6dcaf6y)"><path data-index="0" fill-rule="evenodd" d="M68,255.82L670,255.82" style="opacity: 1; stroke: rgb(128, 128, 128); stroke-opacity: 1; fill: rgb(0, 0, 0); fill-opacity: 0; stroke-dasharray: 9px, 9px; stroke-width: 2px;"/></g></g></g><g class="infolayer"><g class="legend" pointer-events="all" transform="translate(478,11.519999999999996)"><rect class="bg" shape-rendering="crispEdges" width="192" height="29" x="0" y="0" style="stroke: rgb(68, 68, 68); stroke-opacity: 1; fill: rgb(255, 255, 255); fill-opacity: 1; stroke-width: 0px;"/><g class="scrollbox" transform="" clip-path="url(#legend6dcaf6)"><g class="groups"><g class="traces" transform="translate(0,14.5)" style="opacity: 1;"><text class="legendtext" text-anchor="start" x="40" y="4.680000000000001" style="font-family: 'Open Sans', verdana, arial, sans-serif; font-size: 12px; fill: rgb(42, 63, 95); fill-opacity: 1; white-space: pre;">Benchmark</text><g class="layers" style="opacity: 1;"><g class="legendfill"/><g class="legendlines"><path class="js-line" d="M5,0h30" style="fill: none; stroke: rgb(127, 127, 127); stroke-opacity: 1; stroke-width: 2px;"/></g><g class="legendsymbols"><g class="legendpoints"/></g></g><rect class="legendtoggle" x="0" y="-9.5" width="111.328125" height="19" style="fill: rgb(0, 0, 0); fill-opacity: 0;"/></g><g class="traces" transform="translate(113.828125,14.5)" style="opacity: 1;"><text class="legendtext" text-anchor="start" x="40" y="4.680000000000001" style="font-family: 'Open Sans', verdana, arial, sans-serif; font-size: 12px; fill: rgb(42, 63, 95); fill-opacity: 1; white-space: pre;">Value</text><g class="layers" style="opacity: 1;"><g class="legendfill"/><g class="legendlines"><path class="js-line" d="M5,0h30" style="fill: none; stroke: rgb(148, 103, 189); stroke-opacity: 1; stroke-width: 2px;"/></g><g class="legendsymbols"><g class="legendpoints"/></g></g><rect class="legendtoggle" x="0" y="-9.5" width="75.359375" height="19" style="fill: rgb(0, 0, 0); fill-opacity: 0;"/></g></g></g><rect class="scrollbar" rx="20" ry="3" width="0" height="0" x="0" y="0" style="fill: rgb(128, 139, 164); fill-opacity: 1;"/></g><g class="g-gtitle"><text class="gtitle" x="35" y="23" text-anchor="start" dy="0em" style="opacity: 1; font-family: 'Open Sans', verdana, arial, sans-serif; font-size: 17px; fill: rgb(42, 63, 95); fill-opacity: 1; white-space: pre;">Portfolio Cumulative Returns</text></g><g class="g-xtitle"/><g class="g-ytitle"/></g></svg>