<svg class="main-svg" xmlns="http://www.w3.org/2000/svg" xmlns:xlink="http://www.w3.org/1999/xlink" width="700" height="350" style="" viewBox="0 0 700 350"><rect x="0" y="0" width="700" height="350" style="fill: rgb(255, 255, 255); fill-opacity: 1;"/><defs id="defs-e2c920"><g class="clips"><clipPath id="clipe2c920xyplot" class="plotclip"><rect width="607" height="274"/></clipPath><clipPath class="axesclip" id="clipe2c920x"><rect x="63" y="0" width="607" height="350"/></clipPath><clipPath class="axesclip" id="clipe2c920y"><rect x="0" y="46" width="700" height="274"/></clipPath><clipPath class="axesclip" id="clipe2c920xy"><rect x="63" y="46" width="607" height="274"/></clipPath></g><g class="gradients"/><g class="patterns"/></defs><g class="bglayer"><rect class="bg" x="63" y="46" width="607" height="274" style="fill: rgb(229, 236, 246); fill-opacity: 1; stroke-width: 0;"/></g><g class="layer-below"><g class="imagelayer"/><g class="shapelayer"/></g><g class="cartesianlayer"><g class="subplot xy"><g class="layer-subplot"><g class="shapelayer"/><g class="imagelayer"/></g><g class="minor-gridlayer"><g class="x"/><g class="y"/></g><g class="gridlayer"><g class="x"><path class="xgrid crisp" transform="translate(184.49,0)" d="M0,46v274" style="stroke: rgb(255, 255, 255); stroke-opacity: 1; stroke-width: 1px;"/><path class="xgrid crisp" transform="translate(305.98,0)" d="M0,46v274" style="stroke: rgb(255, 255, 255); stroke-opacity: 1; stroke-width: 1px;"/><path class="xgrid crisp" transform="translate(427.47,0)" d="M0,46v274" style="stroke: rgb(255, 255, 255); stroke-opacity: 1; stroke-width: 1px;"/><path class="xgrid crisp" transform="translate(548.97,0)" d="M0,46v274" style="stroke: rgb(255, 255, 255); stroke-opacity: 1; stroke-width: 1px;"/></g><g class="y"><path class="ygrid crisp" transform="translate(0,299.52)" d="M63,0h607" style="stroke: rgb(255, 255, 255); stroke-opacity: 1; stroke-width: 1px;"/><path class="ygrid crisp" transform="translate(0,215.35)" d="M63,0h607" style="stroke: rgb(255, 255, 255); stroke-opacity: 1; stroke-width: 1px;"/><path class="ygrid crisp" transform="translate(0,131.17000000000002)" d="M63,0h607" style="stroke: rgb(255, 255, 255); stroke-opacity: 1; stroke-width: 1px;"/></g></g><g class="zerolinelayer"><path class="yzl zl crisp" transform="translate(0,47)" d="M63,0h607" style="stroke: rgb(255, 255, 255); stroke-opacity: 1; stroke-width: 2px;"/></g><g class="layer-between"><g class="shapelayer"/><g class="imagelayer"/></g><path class="xlines-below"/><path class="ylines-below"/><g class="overlines-below"/><g class="xaxislayer-below"/><g class="yaxislayer-below"/><g class="overaxes-below"/><g class="overplot"><g class="xy" transform="translate(63,46)" clip-path="url(#clipe2c920xyplot)"><g class="scatterlayer mlayer"><g class="trace scatter trace1004d025-5ad1-4248-b2f4-94c47de5c8f1" style="stroke-miterlimit: 2;"><g class="fills"><g><path class="js-fill" d="M607,1L0,1L0,1L0.91,1L1.37,6.41L2.74,1L3.2,23.5L3.65,43.04L4.11,29.22L5.02,1L5.48,36.17L6.39,1L6.85,6.72L7.76,1L8.22,12.94L8.68,1L9.13,10.28L10.5,99.08L10.96,80.47L11.42,66.48L11.88,80.47L12.33,82.35L12.79,81.89L13.25,102.24L13.7,104.09L14.16,91.64L14.62,105.57L15.07,90.37L15.53,79.18L15.99,95.12L17.81,81L18.27,70.55L19.18,26.05L19.64,49.72L20.1,45.94L20.55,33.4L21.01,53.98L21.47,53.41L21.92,48.53L22.38,54.42L22.84,51.93L23.29,51.95L23.75,40.93L24.21,56.52L24.66,68.95L25.12,56.04L25.58,86.49L26.03,48.22L26.49,55.11L26.95,53.15L27.4,49.63L27.86,51.12L28.32,1L28.77,4.16L29.23,1L30.6,28.99L31.06,14.12L31.51,15.47L31.97,33.61L32.43,16.14L32.88,18.38L33.34,21.3L33.8,22.65L34.26,21.96L34.71,25.79L35.17,41.38L35.63,16.17L36.08,17.77L36.54,57.99L37.45,31.88L37.91,52.28L38.82,54.5L39.28,72.3L39.74,78.59L40.19,100.08L40.65,122.01L41.11,121.01L41.56,117.15L43.39,61.13L43.85,87.34L44.76,85.5L45.22,80.85L45.67,81.57L46.13,54.68L47.04,56.85L47.5,52.06L47.96,52.98L48.41,80.86L49.33,78.19L49.78,80.72L50.24,77.97L50.7,80.12L51.15,83.05L51.61,30.76L52.07,29.13L52.52,54.62L54.35,1L54.81,1L56.18,46.56L56.64,46.82L57.55,18.91L58.01,19.42L58.92,48.01L59.38,49.58L60.29,1L60.75,2.56L61.2,2.33L61.66,1L62.12,1.67L62.57,1L63.03,1L63.49,7.99L63.94,15.13L64.4,35.72L65.77,54.5L66.23,54.65L67.14,56.56L67.6,55.8L69.88,60.52L70.34,60.29L70.79,58.9L71.25,59.33L71.71,44.88L72.16,59.99L72.62,59.39L73.08,50.13L73.53,71.99L73.99,68.32L74.45,45.41L74.9,44.19L75.36,48.74L75.82,9.83L76.27,13.88L76.73,13.7L77.64,35.82L78.1,37.21L79.02,28.95L79.47,39.3L79.93,45L80.39,64.18L81.3,79.25L81.76,64.36L82.21,79.09L82.67,59.7L83.13,53.81L83.58,55.94L84.04,40.08L84.5,36.39L84.95,37.73L85.41,56.31L86.32,40.71L86.78,43.11L87.24,40.48L87.69,54.95L88.15,45.86L88.61,57.91L89.06,51.37L89.52,53.24L89.98,67.68L90.89,64.21L91.35,48.29L91.8,63.01L92.26,58.78L92.72,61.97L93.17,62.15L93.63,63.97L94.09,65.23L94.54,63.49L95,65.46L95.46,41.14L96.37,35.86L96.83,54.05L97.28,55.63L97.74,53.29L98.65,58.57L99.11,57.8L99.57,34.56L100.02,34.61L100.48,18.62L101.4,33.48L101.85,29.64L102.77,35.96L103.22,56.08L103.68,58.1L104.14,57.97L104.59,58.59L105.05,62.41L105.51,32.66L105.96,31.73L106.42,64.34L107.33,62.86L107.79,63.15L108.25,66.17L108.7,66.36L109.16,68.73L109.62,69.83L110.07,55.26L110.53,55.8L110.99,58.4L111.44,56.45L111.9,45.42L112.36,45.48L112.81,30.6L113.27,27.36L113.73,47.11L114.18,43.84L114.64,44.66L115.1,44.25L116.01,36.75L116.47,38.97L116.92,42.58L117.38,31.52L117.84,37.86L118.29,34.8L118.75,52.05L119.21,55.19L119.66,31.57L120.12,30.31L120.58,33.52L121.03,34.14L121.49,102.73L121.95,65.16L122.4,92.92L122.86,108.54L123.32,81.76L123.78,104.57L124.23,99.52L124.69,106.28L125.15,107.81L125.6,102.79L126.06,91.61L126.52,97.22L126.97,103.64L128.34,126.78L128.8,104.22L129.71,101.77L130.17,106.41L130.63,108.75L131.08,64.58L131.54,66.6L132,72.41L132.45,78.28L132.91,60.41L133.82,40.88L134.28,21.91L134.74,1L135.19,20.06L135.65,23.24L136.11,32.09L137.48,37.25L137.93,37.53L138.39,44.78L138.85,64.38L139.3,36.34L139.76,59.18L140.22,57.61L140.67,39.13L141.59,14.82L142.04,33.96L142.96,5.14L143.41,19.63L143.87,31.55L144.33,26.13L144.78,13.89L146.16,34.15L146.61,24.66L147.07,44.35L147.53,37.77L147.98,34.63L148.44,31.99L148.9,24.43L149.35,38.37L149.81,32.15L150.27,16.95L152.09,38.8L152.55,32.54L153.01,17.05L153.46,55.4L153.92,26.81L154.38,41.5L154.83,27.96L155.29,5.85L155.75,16.02L156.2,10.8L156.66,10.92L157.12,1L157.57,1L158.03,22.54L158.94,1L159.4,1L159.86,1L160.31,7.83L160.77,8.18L161.23,20.16L161.68,24.39L162.14,9.25L163.05,1L163.51,6.01L165.34,21.77L165.79,12.48L166.25,1.87L166.71,4.52L167.16,2.87L167.62,1L168.08,4.83L169.45,30.2L169.91,27.37L170.36,4.74L170.82,7.01L171.28,29.51L171.73,6L172.19,11.08L172.65,11.23L173.1,1L173.56,21.8L174.47,25.31L174.93,40.44L176.3,18.94L176.76,43.26L177.21,54.54L177.67,21.74L178.13,55.69L178.58,52.17L179.04,52.53L179.95,57.78L180.41,8.81L180.87,14.64L181.32,30.62L181.78,20.66L182.24,24.81L182.69,28.97L183.61,14.72L184.06,27.1L184.52,29.94L184.98,26.64L185.43,19.68L185.89,26.52L186.8,23.72L187.26,32.44L188.17,20.95L188.63,34.92L189.09,55.26L189.54,43.05L190,42.5L190.46,14.01L190.91,15.07L191.37,6.12L191.83,1L192.29,15L192.74,22.29L193.2,14.47L193.66,16.08L194.11,2.36L194.57,4.04L195.03,10.32L195.48,23.32L195.94,22.48L196.4,10.75L196.85,10.39L197.31,24.7L198.22,10.29L198.68,12.11L199.14,16.02L199.59,1L200.05,1L200.51,7.88L200.96,8.62L201.42,20.36L201.88,3.86L202.33,18.96L202.79,34.92L203.25,34.69L203.7,14.28L204.16,7.63L204.62,17.98L205.07,9.2L205.53,28.91L205.99,25.21L206.44,10.32L206.9,6.53L207.36,27.34L207.81,22.56L208.27,26.92L208.73,19.11L209.18,26.74L209.64,4.92L210.1,6.91L210.55,18.76L211.01,16.23L211.47,1.36L212.38,3.04L212.84,1L213.29,1.05L213.75,16.79L214.21,24.68L214.67,11.21L215.12,32.8L215.58,26.46L216.04,23.29L216.49,23L216.95,7.29L217.86,21.3L218.32,23.39L219.23,52.59L219.69,43.39L221.06,42.76L221.52,50.21L221.97,49.38L222.43,43.37L223.8,26.69L224.26,41.47L225.17,33.58L225.63,35.48L226.08,20.26L226.54,27.23L227,33.76L227.45,33.69L227.91,32.68L228.37,26.77L228.82,10.98L229.28,9.76L229.74,1L231.11,1L231.56,9.99L232.02,8.73L232.48,2.25L232.93,1L233.39,2.51L234.3,21.75L234.76,21.61L235.22,22.24L235.67,35.32L236.59,45.01L237.05,37.07L237.96,59.46L238.42,50.58L238.87,37.03L239.33,57.82L240.7,34.64L241.16,50.92L242.07,40.96L242.53,58.04L242.98,1L243.44,9.13L243.9,1L244.35,1L244.81,20.57L245.27,19.57L245.72,31.87L246.18,52.36L246.64,39.27L247.09,23.42L247.55,27.42L248.01,29.28L248.46,26.75L248.92,44.3L249.38,45.12L249.83,55.83L250.29,57.27L250.75,76.87L251.2,76.59L251.66,78.9L252.12,58.36L252.57,60.98L253.03,55.25L253.49,55.94L253.94,54.9L254.4,33.88L254.86,34.18L255.31,34.61L255.77,40.08L256.23,66.43L256.68,67.44L257.14,87.87L257.6,88.84L258.05,133.39L258.51,133.38L258.97,105.48L259.43,114.84L259.88,114L260.34,110.44L261.71,84.14L262.17,69.06L262.62,74.09L263.08,70.8L263.99,70.25L264.45,69.74L265.36,46.29L265.82,44.55L267.19,82.97L267.65,85.71L268.1,85.92L268.56,83.8L269.02,36.75L269.47,38.33L269.93,38.08L270.39,36.45L270.84,14.75L271.76,1L272.21,29.8L272.67,28.71L273.13,24.68L274.04,28.17L274.5,15.37L274.95,14.9L275.41,7.01L275.87,4.66L276.32,17.58L276.78,13.27L277.24,18.01L278.15,1L278.61,1L279.98,17.89L280.43,8.82L280.89,1L281.35,15.81L281.81,12L282.26,30.45L282.72,32.57L283.18,21.83L284.09,13.83L284.55,14.68L285,12.74L286.37,19.08L286.83,12.94L287.29,21.66L287.74,9.61L288.2,4.23L288.66,18.48L289.11,15.22L289.57,23.83L290.03,20.26L290.48,20.59L290.94,30.35L291.85,27.42L292.31,2.56L292.77,1L293.22,3.45L293.68,1L294.14,15.81L294.59,16.34L295.05,26.87L295.51,27.48L295.96,22.18L296.42,24.17L296.88,21.8L298.7,1L299.16,2.99L299.62,1L300.07,12.65L300.53,18.05L300.99,13.22L301.44,1.81L301.9,7.09L302.36,7.04L302.81,11.06L303.27,10.9L303.73,7.81L304.19,9.18L304.64,14.05L305.1,17.8L305.56,11.92L306.47,22.16L306.93,17.91L307.38,19.02L307.84,17.83L308.3,24.66L308.75,19.95L309.21,19.04L309.67,25.04L310.12,19.75L310.58,24.73L311.95,13.86L312.41,14.27L312.86,16.61L313.32,25.51L313.78,25.15L314.23,27.55L314.69,22.22L315.15,24.13L315.6,34.84L316.06,28.6L316.52,49.06L316.97,31.69L317.43,34.36L317.89,42.83L318.34,32.45L318.8,39.92L319.26,49.67L319.71,46.01L320.17,50.22L320.63,52.42L321.08,51.66L321.54,62.88L322,37.47L322.45,39.57L322.91,52.58L323.82,40.78L324.28,44.51L324.74,35.4L325.19,42.53L325.65,41.26L326.11,41.99L326.57,41.42L327.02,36.81L327.48,40.7L327.94,37.27L328.39,59.17L328.85,56.75L329.31,59.67L330.22,53.82L330.68,65.83L331.59,41.38L332.05,43.93L332.5,44.61L332.96,52.95L333.42,39.81L333.87,59.59L334.33,58.48L334.79,60.73L335.24,57.69L335.7,60.46L336.16,53.91L336.61,65.78L337.98,69.76L338.44,68.26L339.35,70.71L339.81,65.18L340.27,69.38L340.72,83.61L341.18,78.87L341.64,79.37L342.09,86.55L342.55,107.67L343.01,100.38L343.46,102.93L343.92,108.08L344.38,96.66L345.29,73.63L345.75,73.86L346.2,84.41L346.66,84.8L347.12,81.05L347.57,80.83L348.03,76.04L348.49,67.9L348.95,80.39L349.4,76.25L349.86,80.67L350.32,88.18L350.77,86.82L351.23,83.19L352.14,96.52L352.6,59.53L353.51,31.1L353.97,39.34L355.8,4.95L356.25,1L356.71,1L357.17,3.56L358.08,20.08L358.54,4.69L358.99,4.88L359.45,2.22L359.91,1L360.36,2.85L360.82,15.52L361.28,1L361.73,1L362.19,10.73L363.1,7.73L363.56,1L364.02,51.42L364.47,1L366.3,30.45L366.76,19.47L368.13,55.47L368.58,42.32L369.95,102.6L370.41,105.83L371.33,77.23L371.78,75.42L372.24,93.86L372.7,91.91L373.15,72.95L374.52,30.81L374.98,36.36L376.35,60.67L376.81,35.12L377.26,39.12L377.72,19.8L378.18,8.65L378.63,20.29L379.09,32.9L379.55,17.41L380.46,1L380.92,1.79L381.37,1L384.11,1.72L384.57,3.12L385.03,4.64L385.48,4.27L385.94,1L386.85,41.82L387.31,26.7L387.77,26.86L388.22,28.42L388.68,24.69L389.14,27.53L390.05,2.49L390.51,10.26L390.96,16.16L391.42,8.57L392.33,1L392.79,1L393.25,21.67L393.71,13.92L394.16,17.61L394.62,19.55L395.08,16.65L395.53,6.31L395.99,13.5L396.45,14.09L396.9,21.88L398.27,7.01L398.73,14.6L401.01,43.57L401.47,26.07L401.93,27.31L402.38,31.12L402.84,25.69L403.3,34.75L404.21,1L404.67,1L405.12,19.5L405.58,1L406.04,1L406.49,12.3L406.95,1L407.41,16.73L407.86,16.65L408.32,3.81L408.78,7.16L409.23,1L410.15,11.1L410.6,22.08L411.52,1L411.97,11.73L412.43,10.13L412.89,12.61L413.8,1L414.26,22.81L414.71,25.08L415.17,36.61L415.63,34.59L416.09,39.91L416.54,39.16L417,36.77L418.37,24.35L418.83,29.5L419.28,19.97L419.74,22.02L420.2,33.14L421.11,23.57L421.57,2.51L422.02,1.54L422.48,14.59L423.39,1L423.85,54.57L424.31,60.55L424.76,51.19L426.13,41.36L426.59,41.55L427.05,39.66L427.5,45.56L427.96,50.28L428.42,47.55L428.87,44.22L429.33,40.67L429.79,43.56L430.7,2.68L431.16,1.73L431.61,4.31L432.07,1L432.53,1L432.98,2.19L433.44,7.5L433.9,5.12L434.35,7.93L434.81,14.56L435.27,11.58L435.72,8.03L436.18,6.22L436.64,11.57L438.01,32.78L438.47,25.58L438.92,26.01L439.38,36.48L440.75,1L441.21,4.2L441.66,1L442.12,5.97L442.58,1.88L443.03,12.03L443.49,1L443.95,20.16L444.4,16.14L444.86,5L445.32,1L445.77,4.66L446.23,2.2L446.69,10.05L447.6,22.72L448.06,16.71L448.51,3.03L448.97,3.66L449.43,9.39L449.88,1L450.34,11.57L450.8,7.63L451.25,20.23L451.71,19.65L452.17,15.25L453.08,50.07L453.54,49.71L453.99,50.2L454.45,27.71L454.91,39.94L455.36,35.81L455.82,31.83L456.28,39.72L457.65,25.46L458.1,29.28L458.56,27.06L459.02,29.38L459.93,1L460.39,1.66L460.84,34.67L461.3,32.57L461.76,29.3L463.59,2.14L464.04,3.07L464.96,1L465.41,1L465.87,9.05L466.33,1L466.78,1L467.24,11.77L468.15,11.47L468.61,12.51L469.07,13.55L469.52,8.98L469.98,1L470.44,1.06L470.89,1.35L471.81,1.9L472.26,1L472.72,26.61L473.18,1L473.63,1L474.09,29.58L474.55,40.03L475,29.97L475.46,29.97L475.92,33.99L477.29,54L477.74,43.76L478.66,52.95L479.11,44.37L480.48,36.66L480.94,45.46L482.31,36.61L482.77,42.34L484.14,17.91L484.6,13.66L485.05,39.48L485.51,120.77L486.88,260.3L487.34,248.34L487.79,250.46L488.25,256.44L489.62,58.53L490.08,78.41L490.99,111.22L491.45,94.39L492.82,127.04L493.27,118.28L494.19,108.79L494.64,97.02L495.1,106.68L495.56,89.13L496.93,3.62L497.38,2.63L498.3,1L498.75,24.62L500.12,1L500.58,20.68L501.95,1.9L502.41,32.45L503.32,1L503.78,1L504.23,7.71L504.69,1L506.06,43.28L506.52,13.17L506.98,2.39L507.43,12.73L507.89,22.76L508.35,11.96L508.8,3.78L509.26,22.44L510.17,2.66L510.63,10.21L511.09,6.12L511.54,14.28L512,1L512.46,2.72L512.91,3.79L513.37,4.07L513.83,7.09L514.74,1L515.2,1.91L516.57,1L517.02,1L517.48,2.16L517.94,1L518.39,1L518.85,3.83L519.31,19.16L519.76,7.38L520.22,3.1L520.68,6.7L521.59,1L522.05,13.65L522.5,1L522.96,6.78L523.42,1L523.87,12.37L524.33,5.9L524.79,7.25L525.7,11.71L526.16,11.36L527.07,18.93L527.53,27.72L527.98,22.54L528.44,29.23L528.9,29.75L529.36,36.51L529.81,41.68L530.27,31.08L531.18,32.66L531.64,43.46L532.55,35.23L533.01,41.32L533.47,42.98L533.92,53.04L534.38,47.52L534.84,58.76L535.29,56.66L535.75,61.07L536.21,48.94L536.66,77.63L537.12,86.98L537.58,81.04L538.03,78.31L538.49,57.7L538.95,56.69L539.4,62.99L539.86,63.45L540.32,74.72L540.77,59.36L541.23,61.45L541.69,69.84L542.14,54.8L542.6,62.88L543.06,60.05L543.51,62.72L543.97,61.35L544.43,61.37L545.8,50.88L546.25,57.23L547.17,61.56L547.62,64.82L548.54,31.52L548.99,27.28L549.45,26.19L549.91,27.51L550.36,25.86L550.82,27.26L552.19,40.05L552.65,31.3L553.11,46.7L553.56,36.86L554.02,42.14L554.93,32.2L555.39,30.83L555.85,37.94L556.3,28.68L556.76,23.13L557.22,32.07L558.59,13.98L559.04,23.79L560.87,9.39L561.33,13.67L561.78,10.81L562.24,30.25L562.7,8.34L563.15,11.43L563.61,1L564.52,1L564.98,22.88L565.89,5.63L566.35,19.86L567.26,3.58L567.72,11.93L568.18,1L568.63,4.79L569.09,7.44L569.55,2.25L570,3.06L570.46,8.32L571.37,1L571.83,2.67L572.29,1L573.2,5.29L573.66,1L574.57,1L575.03,4.8L575.94,22L576.4,21.51L576.86,24.29L577.31,26.59L577.77,21.93L579.14,25.38L579.6,20.95L580.97,10.56L581.42,29.06L581.88,22.61L582.34,25.5L582.79,21.55L583.25,25.73L583.71,14.98L584.62,18.46L585.08,14.41L585.99,6.21L586.45,8.35L586.9,7.06L587.36,13.42L587.82,1.81L588.27,5.35L588.73,1.11L589.64,3.42L590.1,11.9L590.56,24.46L591.01,19.98L591.47,15.69L591.93,19.35L592.38,16.01L592.84,16.79L593.3,15.62L593.75,15.17L594.21,27.09L594.67,22.59L595.12,1L596.5,1L596.95,6.16L597.41,26.65L597.87,21.06L598.32,14.53L598.78,21.79L599.24,20.35L599.69,13.68L600.15,24.1L600.61,5.35L601.06,20.87L601.52,1L601.98,8.72L602.43,5.83L602.89,1.94L603.35,1L603.8,14.82L604.26,1L604.72,5.83L605.17,20.95L606.09,12.09L606.54,16.53L607,1" style="fill: rgb(220, 57, 18); fill-opacity: 0.3; stroke-width: 0;"/></g></g><g class="errorbars"/><g class="lines"><path class="js-line" d="M0,1L0.91,1L1.37,6.41L2.74,1L3.2,23.5L3.65,43.04L4.11,29.22L5.02,1L5.48,36.17L6.39,1L6.85,6.72L7.76,1L8.22,12.94L8.68,1L9.13,10.28L10.5,99.08L10.96,80.47L11.42,66.48L11.88,80.47L12.33,82.35L12.79,81.89L13.25,102.24L13.7,104.09L14.16,91.64L14.62,105.57L15.07,90.37L15.53,79.18L15.99,95.12L17.81,81L18.27,70.55L19.18,26.05L19.64,49.72L20.1,45.94L20.55,33.4L21.01,53.98L21.47,53.41L21.92,48.53L22.38,54.42L22.84,51.93L23.29,51.95L23.75,40.93L24.21,56.52L24.66,68.95L25.12,56.04L25.58,86.49L26.03,48.22L26.49,55.11L26.95,53.15L27.4,49.63L27.86,51.12L28.32,1L28.77,4.16L29.23,1L30.6,28.99L31.06,14.12L31.51,15.47L31.97,33.61L32.43,16.14L32.88,18.38L33.34,21.3L33.8,22.65L34.26,21.96L34.71,25.79L35.17,41.38L35.63,16.17L36.08,17.77L36.54,57.99L37.45,31.88L37.91,52.28L38.82,54.5L39.28,72.3L39.74,78.59L40.19,100.08L40.65,122.01L41.11,121.01L41.56,117.15L43.39,61.13L43.85,87.34L44.76,85.5L45.22,80.85L45.67,81.57L46.13,54.68L47.04,56.85L47.5,52.06L47.96,52.98L48.41,80.86L49.33,78.19L49.78,80.72L50.24,77.97L50.7,80.12L51.15,83.05L51.61,30.76L52.07,29.13L52.52,54.62L54.35,1L54.81,1L56.18,46.56L56.64,46.82L57.55,18.91L58.01,19.42L58.92,48.01L59.38,49.58L60.29,1L60.75,2.56L61.2,2.33L61.66,1L62.12,1.67L62.57,1L63.03,1L63.49,7.99L63.94,15.13L64.4,35.72L65.77,54.5L66.23,54.65L67.14,56.56L67.6,55.8L69.88,60.52L70.34,60.29L70.79,58.9L71.25,59.33L71.71,44.88L72.16,59.99L72.62,59.39L73.08,50.13L73.53,71.99L73.99,68.32L74.45,45.41L74.9,44.19L75.36,48.74L75.82,9.83L76.27,13.88L76.73,13.7L77.64,35.82L78.1,37.21L79.02,28.95L79.47,39.3L79.93,45L80.39,64.18L81.3,79.25L81.76,64.36L82.21,79.09L82.67,59.7L83.13,53.81L83.58,55.94L84.04,40.08L84.5,36.39L84.95,37.73L85.41,56.31L86.32,40.71L86.78,43.11L87.24,40.48L87.69,54.95L88.15,45.86L88.61,57.91L89.06,51.37L89.52,53.24L89.98,67.68L90.89,64.21L91.35,48.29L91.8,63.01L92.26,58.78L92.72,61.97L93.17,62.15L93.63,63.97L94.09,65.23L94.54,63.49L95,65.46L95.46,41.14L96.37,35.86L96.83,54.05L97.28,55.63L97.74,53.29L98.65,58.57L99.11,57.8L99.57,34.56L100.02,34.61L100.48,18.62L101.4,33.48L101.85,29.64L102.77,35.96L103.22,56.08L103.68,58.1L104.14,57.97L104.59,58.59L105.05,62.41L105.51,32.66L105.96,31.73L106.42,64.34L107.33,62.86L107.79,63.15L108.25,66.17L108.7,66.36L109.16,68.73L109.62,69.83L110.07,55.26L110.53,55.8L110.99,58.4L111.44,56.45L111.9,45.42L112.36,45.48L112.81,30.6L113.27,27.36L113.73,47.11L114.18,43.84L114.64,44.66L115.1,44.25L116.01,36.75L116.47,38.97L116.92,42.58L117.38,31.52L117.84,37.86L118.29,34.8L118.75,52.05L119.21,55.19L119.66,31.57L120.12,30.31L120.58,33.52L121.03,34.14L121.49,102.73L121.95,65.16L122.4,92.92L122.86,108.54L123.32,81.76L123.78,104.57L124.23,99.52L124.69,106.28L125.15,107.81L125.6,102.79L126.06,91.61L126.52,97.22L126.97,103.64L128.34,126.78L128.8,104.22L129.71,101.77L130.17,106.41L130.63,108.75L131.08,64.58L131.54,66.6L132,72.41L132.45,78.28L132.91,60.41L133.82,40.88L134.28,21.91L134.74,1L135.19,20.06L135.65,23.24L136.11,32.09L137.48,37.25L137.93,37.53L138.39,44.78L138.85,64.38L139.3,36.34L139.76,59.18L140.22,57.61L140.67,39.13L141.59,14.82L142.04,33.96L142.96,5.14L143.41,19.63L143.87,31.55L144.33,26.13L144.78,13.89L146.16,34.15L146.61,24.66L147.07,44.35L147.53,37.77L147.98,34.63L148.44,31.99L148.9,24.43L149.35,38.37L149.81,32.15L150.27,16.95L152.09,38.8L152.55,32.54L153.01,17.05L153.46,55.4L153.92,26.81L154.38,41.5L154.83,27.96L155.29,5.85L155.75,16.02L156.2,10.8L156.66,10.92L157.12,1L157.57,1L158.03,22.54L158.94,1L159.4,1L159.86,1L160.31,7.83L160.77,8.18L161.23,20.16L161.68,24.39L162.14,9.25L163.05,1L163.51,6.01L165.34,21.77L165.79,12.48L166.25,1.87L166.71,4.52L167.16,2.87L167.62,1L168.08,4.83L169.45,30.2L169.91,27.37L170.36,4.74L170.82,7.01L171.28,29.51L171.73,6L172.19,11.08L172.65,11.23L173.1,1L173.56,21.8L174.47,25.31L174.93,40.44L176.3,18.94L176.76,43.26L177.21,54.54L177.67,21.74L178.13,55.69L178.58,52.17L179.04,52.53L179.95,57.78L180.41,8.81L180.87,14.64L181.32,30.62L181.78,20.66L182.24,24.81L182.69,28.97L183.61,14.72L184.06,27.1L184.52,29.94L184.98,26.64L185.43,19.68L185.89,26.52L186.8,23.72L187.26,32.44L188.17,20.95L188.63,34.92L189.09,55.26L189.54,43.05L190,42.5L190.46,14.01L190.91,15.07L191.37,6.12L191.83,1L192.29,15L192.74,22.29L193.2,14.47L193.66,16.08L194.11,2.36L194.57,4.04L195.03,10.32L195.48,23.32L195.94,22.48L196.4,10.75L196.85,10.39L197.31,24.7L198.22,10.29L198.68,12.11L199.14,16.02L199.59,1L200.05,1L200.51,7.88L200.96,8.62L201.42,20.36L201.88,3.86L202.33,18.96L202.79,34.92L203.25,34.69L203.7,14.28L204.16,7.63L204.62,17.98L205.07,9.2L205.53,28.91L205.99,25.21L206.44,10.32L206.9,6.53L207.36,27.34L207.81,22.56L208.27,26.92L208.73,19.11L209.18,26.74L209.64,4.92L210.1,6.91L210.55,18.76L211.01,16.23L211.47,1.36L212.38,3.04L212.84,1L213.29,1.05L213.75,16.79L214.21,24.68L214.67,11.21L215.12,32.8L215.58,26.46L216.04,23.29L216.49,23L216.95,7.29L217.86,21.3L218.32,23.39L219.23,52.59L219.69,43.39L221.06,42.76L221.52,50.21L221.97,49.38L222.43,43.37L223.8,26.69L224.26,41.47L225.17,33.58L225.63,35.48L226.08,20.26L226.54,27.23L227,33.76L227.45,33.69L227.91,32.68L228.37,26.77L228.82,10.98L229.28,9.76L229.74,1L231.11,1L231.56,9.99L232.02,8.73L232.48,2.25L232.93,1L233.39,2.51L234.3,21.75L234.76,21.61L235.22,22.24L235.67,35.32L236.59,45.01L237.05,37.07L237.96,59.46L238.42,50.58L238.87,37.03L239.33,57.82L240.7,34.64L241.16,50.92L242.07,40.96L242.53,58.04L242.98,1L243.44,9.13L243.9,1L244.35,1L244.81,20.57L245.27,19.57L245.72,31.87L246.18,52.36L246.64,39.27L247.09,23.42L247.55,27.42L248.01,29.28L248.46,26.75L248.92,44.3L249.38,45.12L249.83,55.83L250.29,57.27L250.75,76.87L251.2,76.59L251.66,78.9L252.12,58.36L252.57,60.98L253.03,55.25L253.49,55.94L253.94,54.9L254.4,33.88L254.86,34.18L255.31,34.61L255.77,40.08L256.23,66.43L256.68,67.44L257.14,87.87L257.6,88.84L258.05,133.39L258.51,133.38L258.97,105.48L259.43,114.84L259.88,114L260.34,110.44L261.71,84.14L262.17,69.06L262.62,74.09L263.08,70.8L263.99,70.25L264.45,69.74L265.36,46.29L265.82,44.55L267.19,82.97L267.65,85.71L268.1,85.92L268.56,83.8L269.02,36.75L269.47,38.33L269.93,38.08L270.39,36.45L270.84,14.75L271.76,1L272.21,29.8L272.67,28.71L273.13,24.68L274.04,28.17L274.5,15.37L274.95,14.9L275.41,7.01L275.87,4.66L276.32,17.58L276.78,13.27L277.24,18.01L278.15,1L278.61,1L279.98,17.89L280.43,8.82L280.89,1L281.35,15.81L281.81,12L282.26,30.45L282.72,32.57L283.18,21.83L284.09,13.83L284.55,14.68L285,12.74L286.37,19.08L286.83,12.94L287.29,21.66L287.74,9.61L288.2,4.23L288.66,18.48L289.11,15.22L289.57,23.83L290.03,20.26L290.48,20.59L290.94,30.35L291.85,27.42L292.31,2.56L292.77,1L293.22,3.45L293.68,1L294.14,15.81L294.59,16.34L295.05,26.87L295.51,27.48L295.96,22.18L296.42,24.17L296.88,21.8L298.7,1L299.16,2.99L299.62,1L300.07,12.65L300.53,18.05L300.99,13.22L301.44,1.81L301.9,7.09L302.36,7.04L302.81,11.06L303.27,10.9L303.73,7.81L304.19,9.18L304.64,14.05L305.1,17.8L305.56,11.92L306.47,22.16L306.93,17.91L307.38,19.02L307.84,17.83L308.3,24.66L308.75,19.95L309.21,19.04L309.67,25.04L310.12,19.75L310.58,24.73L311.95,13.86L312.41,14.27L312.86,16.61L313.32,25.51L313.78,25.15L314.23,27.55L314.69,22.22L315.15,24.13L315.6,34.84L316.06,28.6L316.52,49.06L316.97,31.69L317.43,34.36L317.89,42.83L318.34,32.45L318.8,39.92L319.26,49.67L319.71,46.01L320.17,50.22L320.63,52.42L321.08,51.66L321.54,62.88L322,37.47L322.45,39.57L322.91,52.58L323.82,40.78L324.28,44.51L324.74,35.4L325.19,42.53L325.65,41.26L326.11,41.99L326.57,41.42L327.02,36.81L327.48,40.7L327.94,37.27L328.39,59.17L328.85,56.75L329.31,59.67L330.22,53.82L330.68,65.83L331.59,41.38L332.05,43.93L332.5,44.61L332.96,52.95L333.42,39.81L333.87,59.59L334.33,58.48L334.79,60.73L335.24,57.69L335.7,60.46L336.16,53.91L336.61,65.78L337.98,69.76L338.44,68.26L339.35,70.71L339.81,65.18L340.27,69.38L340.72,83.61L341.18,78.87L341.64,79.37L342.09,86.55L342.55,107.67L343.01,100.38L343.46,102.93L343.92,108.08L344.38,96.66L345.29,73.63L345.75,73.86L346.2,84.41L346.66,84.8L347.12,81.05L347.57,80.83L348.03,76.04L348.49,67.9L348.95,80.39L349.4,76.25L349.86,80.67L350.32,88.18L350.77,86.82L351.23,83.19L352.14,96.52L352.6,59.53L353.51,31.1L353.97,39.34L355.8,4.95L356.25,1L356.71,1L357.17,3.56L358.08,20.08L358.54,4.69L358.99,4.88L359.45,2.22L359.91,1L360.36,2.85L360.82,15.52L361.28,1L361.73,1L362.19,10.73L363.1,7.73L363.56,1L364.02,51.42L364.47,1L366.3,30.45L366.76,19.47L368.13,55.47L368.58,42.32L369.95,102.6L370.41,105.83L371.33,77.23L371.78,75.42L372.24,93.86L372.7,91.91L373.15,72.95L374.52,30.81L374.98,36.36L376.35,60.67L376.81,35.12L377.26,39.12L377.72,19.8L378.18,8.65L378.63,20.29L379.09,32.9L379.55,17.41L380.46,1L380.92,1.79L381.37,1L384.11,1.72L384.57,3.12L385.03,4.64L385.48,4.27L385.94,1L386.85,41.82L387.31,26.7L387.77,26.86L388.22,28.42L388.68,24.69L389.14,27.53L390.05,2.49L390.51,10.26L390.96,16.16L391.42,8.57L392.33,1L392.79,1L393.25,21.67L393.71,13.92L394.16,17.61L394.62,19.55L395.08,16.65L395.53,6.31L395.99,13.5L396.45,14.09L396.9,21.88L398.27,7.01L398.73,14.6L401.01,43.57L401.47,26.07L401.93,27.31L402.38,31.12L402.84,25.69L403.3,34.75L404.21,1L404.67,1L405.12,19.5L405.58,1L406.04,1L406.49,12.3L406.95,1L407.41,16.73L407.86,16.65L408.32,3.81L408.78,7.16L409.23,1L410.15,11.1L410.6,22.08L411.52,1L411.97,11.73L412.43,10.13L412.89,12.61L413.8,1L414.26,22.81L414.71,25.08L415.17,36.61L415.63,34.59L416.09,39.91L416.54,39.16L417,36.77L418.37,24.35L418.83,29.5L419.28,19.97L419.74,22.02L420.2,33.14L421.11,23.57L421.57,2.51L422.02,1.54L422.48,14.59L423.39,1L423.85,54.57L424.31,60.55L424.76,51.19L426.13,41.36L426.59,41.55L427.05,39.66L427.5,45.56L427.96,50.28L428.42,47.55L428.87,44.22L429.33,40.67L429.79,43.56L430.7,2.68L431.16,1.73L431.61,4.31L432.07,1L432.53,1L432.98,2.19L433.44,7.5L433.9,5.12L434.35,7.93L434.81,14.56L435.27,11.58L435.72,8.03L436.18,6.22L436.64,11.57L438.01,32.78L438.47,25.58L438.92,26.01L439.38,36.48L440.75,1L441.21,4.2L441.66,1L442.12,5.97L442.58,1.88L443.03,12.03L443.49,1L443.95,20.16L444.4,16.14L444.86,5L445.32,1L445.77,4.66L446.23,2.2L446.69,10.05L447.6,22.72L448.06,16.71L448.51,3.03L448.97,3.66L449.43,9.39L449.88,1L450.34,11.57L450.8,7.63L451.25,20.23L451.71,19.65L452.17,15.25L453.08,50.07L453.54,49.71L453.99,50.2L454.45,27.71L454.91,39.94L455.36,35.81L455.82,31.83L456.28,39.72L457.65,25.46L458.1,29.28L458.56,27.06L459.02,29.38L459.93,1L460.39,1.66L460.84,34.67L461.3,32.57L461.76,29.3L463.59,2.14L464.04,3.07L464.96,1L465.41,1L465.87,9.05L466.33,1L466.78,1L467.24,11.77L468.15,11.47L468.61,12.51L469.07,13.55L469.52,8.98L469.98,1L470.44,1.06L470.89,1.35L471.81,1.9L472.26,1L472.72,26.61L473.18,1L473.63,1L474.09,29.58L474.55,40.03L475,29.97L475.46,29.97L475.92,33.99L477.29,54L477.74,43.76L478.66,52.95L479.11,44.37L480.48,36.66L480.94,45.46L482.31,36.61L482.77,42.34L484.14,17.91L484.6,13.66L485.05,39.48L485.51,120.77L486.88,260.3L487.34,248.34L487.79,250.46L488.25,256.44L489.62,58.53L490.08,78.41L490.99,111.22L491.45,94.39L492.82,127.04L493.27,118.28L494.19,108.79L494.64,97.02L495.1,106.68L495.56,89.13L496.93,3.62L497.38,2.63L498.3,1L498.75,24.62L500.12,1L500.58,20.68L501.95,1.9L502.41,32.45L503.32,1L503.78,1L504.23,7.71L504.69,1L506.06,43.28L506.52,13.17L506.98,2.39L507.43,12.73L507.89,22.76L508.35,11.96L508.8,3.78L509.26,22.44L510.17,2.66L510.63,10.21L511.09,6.12L511.54,14.28L512,1L512.46,2.72L512.91,3.79L513.37,4.07L513.83,7.09L514.74,1L515.2,1.91L516.57,1L517.02,1L517.48,2.16L517.94,1L518.39,1L518.85,3.83L519.31,19.16L519.76,7.38L520.22,3.1L520.68,6.7L521.59,1L522.05,13.65L522.5,1L522.96,6.78L523.42,1L523.87,12.37L524.33,5.9L524.79,7.25L525.7,11.71L526.16,11.36L527.07,18.93L527.53,27.72L527.98,22.54L528.44,29.23L528.9,29.75L529.36,36.51L529.81,41.68L530.27,31.08L531.18,32.66L531.64,43.46L532.55,35.23L533.01,41.32L533.47,42.98L533.92,53.04L534.38,47.52L534.84,58.76L535.29,56.66L535.75,61.07L536.21,48.94L536.66,77.63L537.12,86.98L537.58,81.04L538.03,78.31L538.49,57.7L538.95,56.69L539.4,62.99L539.86,63.45L540.32,74.72L540.77,59.36L541.23,61.45L541.69,69.84L542.14,54.8L542.6,62.88L543.06,60.05L543.51,62.72L543.97,61.35L544.43,61.37L545.8,50.88L546.25,57.23L547.17,61.56L547.62,64.82L548.54,31.52L548.99,27.28L549.45,26.19L549.91,27.51L550.36,25.86L550.82,27.26L552.19,40.05L552.65,31.3L553.11,46.7L553.56,36.86L554.02,42.14L554.93,32.2L555.39,30.83L555.85,37.94L556.3,28.68L556.76,23.13L557.22,32.07L558.59,13.98L559.04,23.79L560.87,9.39L561.33,13.67L561.78,10.81L562.24,30.25L562.7,8.34L563.15,11.43L563.61,1L564.52,1L564.98,22.88L565.89,5.63L566.35,19.86L567.26,3.58L567.72,11.93L568.18,1L568.63,4.79L569.09,7.44L569.55,2.25L570,3.06L570.46,8.32L571.37,1L571.83,2.67L572.29,1L573.2,5.29L573.66,1L574.57,1L575.03,4.8L575.94,22L576.4,21.51L576.86,24.29L577.31,26.59L577.77,21.93L579.14,25.38L579.6,20.95L580.97,10.56L581.42,29.06L581.88,22.61L582.34,25.5L582.79,21.55L583.25,25.73L583.71,14.98L584.62,18.46L585.08,14.41L585.99,6.21L586.45,8.35L586.9,7.06L587.36,13.42L587.82,1.81L588.27,5.35L588.73,1.11L589.64,3.42L590.1,11.9L590.56,24.46L591.01,19.98L591.47,15.69L591.93,19.35L592.38,16.01L592.84,16.79L593.3,15.62L593.75,15.17L594.21,27.09L594.67,22.59L595.12,1L596.5,1L596.95,6.16L597.41,26.65L597.87,21.06L598.32,14.53L598.78,21.79L599.24,20.35L599.69,13.68L600.15,24.1L600.61,5.35L601.06,20.87L601.52,1L601.98,8.72L602.43,5.83L602.89,1.94L603.35,1L603.8,14.82L604.26,1L604.72,5.83L605.17,20.95L606.09,12.09L606.54,16.53L607,1" style="vector-effect: none; fill: none; stroke: rgb(220, 57, 18); stroke-opacity: 1; stroke-width: 2px; opacity: 1;"/></g><g class="points"/><g class="text"/></g></g></g></g><path class="xlines-above crisp" d="M0,0" style="fill: none;"/><path class="ylines-above crisp" d="M0,0" style="fill: none;"/><g class="overlines-above"/><g class="xaxislayer-above"><g class="xtick"><text text-anchor="middle" x="0" y="333" transform="translate(63,0)" style="font-family: 'Open Sans', verdana, arial, sans-serif; font-size: 12px; fill: rgb(42, 63, 95); fill-opacity: 1; white-space: pre; opacity: 1;">2025-05-26</text></g><g class="xtick"><text text-anchor="middle" x="0" y="333" transform="translate(184.49,0)" style="font-family: 'Open Sans', verdana, arial, sans-serif; font-size: 12px; fill: rgb(42, 63, 95); fill-opacity: 1; white-space: pre; opacity: 1;">2025-05-27</text></g><g class="xtick"><text text-anchor="middle" x="0" y="333" transform="translate(305.98,0)" style="font-family: 'Open Sans', verdana, arial, sans-serif; font-size: 12px; fill: rgb(42, 63, 95); fill-opacity: 1; white-space: pre; opacity: 1;">2025-05-28</text></g><g class="xtick"><text text-anchor="middle" x="0" y="333" transform="translate(427.47,0)" style="font-family: 'Open Sans', verdana, arial, sans-serif; font-size: 12px; fill: rgb(42, 63, 95); fill-opacity: 1; white-space: pre; opacity: 1;">2025-05-29</text></g><g class="xtick"><text text-anchor="middle" x="0" y="333" transform="translate(548.97,0)" style="font-family: 'Open Sans', verdana, arial, sans-serif; font-size: 12px; fill: rgb(42, 63, 95); fill-opacity: 1; white-space: pre; opacity: 1;">2025-06-02</text></g></g><g class="yaxislayer-above"><g class="ytick"><text text-anchor="end" x="62" y="4.199999999999999" transform="translate(0,299.52)" style="font-family: 'Open Sans', verdana, arial, sans-serif; font-size: 12px; fill: rgb(42, 63, 95); fill-opacity: 1; white-space: pre; opacity: 1;">−1.50%</text></g><g class="ytick"><text text-anchor="end" x="62" y="4.199999999999999" style="font-family: 'Open Sans', verdana, arial, sans-serif; font-size: 12px; fill: rgb(42, 63, 95); fill-opacity: 1; white-space: pre; opacity: 1;" transform="translate(0,215.35)">−1.00%</text></g><g class="ytick"><text text-anchor="end" x="62" y="4.199999999999999" style="font-family: 'Open Sans', verdana, arial, sans-serif; font-size: 12px; fill: rgb(42, 63, 95); fill-opacity: 1; white-space: pre; opacity: 1;" transform="translate(0,131.17000000000002)">−0.50%</text></g><g class="ytick"><text text-anchor="end" x="62" y="4.199999999999999" style="font-family: 'Open Sans', verdana, arial, sans-serif; font-size: 12px; fill: rgb(42, 63, 95); fill-opacity: 1; white-space: pre; opacity: 1;" transform="translate(0,47)">0.00%</text></g></g><g class="overaxes-above"/></g></g><g class="polarlayer"/><g class="smithlayer"/><g class="ternarylayer"/><g class="geolayer"/><g class="funnelarealayer"/><g class="pielayer"/><g class="iciclelayer"/><g class="treemaplayer"/><g class="sunburstlayer"/><g class="glimages"/><defs id="topdefs-e2c920"><g class="clips"/><clipPath id="legende2c920"><rect width="109" height="29" x="0" y="0"/></clipPath></defs><g class="layer-above"><g class="imagelayer"/><g class="shapelayer"><g class="shape-group" data-index="0" clip-path="url(#clipe2c920y)"><path data-index="0" fill-rule="evenodd" d="M63,47L670,47" style="opacity: 1; stroke: rgb(128, 128, 128); stroke-opacity: 1; fill: rgb(0, 0, 0); fill-opacity: 0; stroke-dasharray: 9px, 9px; stroke-width: 2px;"/></g></g></g><g class="infolayer"><g class="legend" pointer-events="all" transform="translate(561,11.519999999999996)"><rect class="bg" shape-rendering="crispEdges" width="109" height="29" x="0" y="0" style="stroke: rgb(68, 68, 68); stroke-opacity: 1; fill: rgb(255, 255, 255); fill-opacity: 1; stroke-width: 0px;"/><g class="scrollbox" transform="" clip-path="url(#legende2c920)"><g class="groups"><g class="traces" transform="translate(0,14.5)" style="opacity: 1;"><text class="legendtext" text-anchor="start" x="40" y="4.680000000000001" style="font-family: 'Open Sans', verdana, arial, sans-serif; font-size: 12px; fill: rgb(42, 63, 95); fill-opacity: 1; white-space: pre;">Drawdown</text><g class="layers"><g class="legendfill"><path class="js-fill" d="M5,-2h30v6h-30z" style="stroke-width: 0; fill: rgb(220, 57, 18); fill-opacity: 0.3;"/></g><g class="legendlines"><path class="js-line" d="M5,-2h30" style="fill: none; stroke: rgb(220, 57, 18); stroke-opacity: 1; stroke-width: 2px;"/></g><g class="legendsymbols"><g class="legendpoints"/></g></g><rect class="legendtoggle" x="0" y="-9.5" width="105.8125" height="19" style="fill: rgb(0, 0, 0); fill-opacity: 0;"/></g></g></g><rect class="scrollbar" rx="20" ry="3" width="0" height="0" x="0" y="0" style="fill: rgb(128, 139, 164); fill-opacity: 1;"/></g><g class="g-gtitle"><text class="gtitle" x="35" y="23" text-anchor="start" dy="0em" style="opacity: 1; font-family: 'Open Sans', verdana, arial, sans-serif; font-size: 17px; fill: rgb(42, 63, 95); fill-opacity: 1; white-space: pre;">Portfolio Drawdown</text></g><g class="g-xtitle"/><g class="g-ytitle"/></g></svg>