<svg class="main-svg" xmlns="http://www.w3.org/2000/svg" xmlns:xlink="http://www.w3.org/1999/xlink" width="700" height="350" style="" viewBox="0 0 700 350"><rect x="0" y="0" width="700" height="350" style="fill: rgb(255, 255, 255); fill-opacity: 1;"/><defs id="defs-6d684a"><g class="clips"><clipPath id="clip6d684axyplot" class="plotclip"><rect width="602" height="274"/></clipPath><clipPath class="axesclip" id="clip6d684ax"><rect x="68" y="0" width="602" height="350"/></clipPath><clipPath class="axesclip" id="clip6d684ay"><rect x="0" y="46" width="700" height="274"/></clipPath><clipPath class="axesclip" id="clip6d684axy"><rect x="68" y="46" width="602" height="274"/></clipPath></g><g class="gradients"/><g class="patterns"/></defs><g class="bglayer"><rect class="bg" x="68" y="46" width="602" height="274" style="fill: rgb(229, 236, 246); fill-opacity: 1; stroke-width: 0;"/></g><g class="layer-below"><g class="imagelayer"/><g class="shapelayer"/></g><g class="cartesianlayer"><g class="subplot xy"><g class="layer-subplot"><g class="shapelayer"/><g class="imagelayer"/></g><g class="minor-gridlayer"><g class="x"/><g class="y"/></g><g class="gridlayer"><g class="x"><path class="xgrid crisp" transform="translate(188.49,0)" d="M0,46v274" style="stroke: rgb(255, 255, 255); stroke-opacity: 1; stroke-width: 1px;"/><path class="xgrid crisp" transform="translate(308.98,0)" d="M0,46v274" style="stroke: rgb(255, 255, 255); stroke-opacity: 1; stroke-width: 1px;"/><path class="xgrid crisp" transform="translate(429.47,0)" d="M0,46v274" style="stroke: rgb(255, 255, 255); stroke-opacity: 1; stroke-width: 1px;"/><path class="xgrid crisp" transform="translate(549.96,0)" d="M0,46v274" style="stroke: rgb(255, 255, 255); stroke-opacity: 1; stroke-width: 1px;"/></g><g class="y"><path class="ygrid crisp" transform="translate(0,294.03999999999996)" d="M68,0h602" style="stroke: rgb(255, 255, 255); stroke-opacity: 1; stroke-width: 1px;"/><path class="ygrid crisp" transform="translate(0,241.13)" d="M68,0h602" style="stroke: rgb(255, 255, 255); stroke-opacity: 1; stroke-width: 1px;"/><path class="ygrid crisp" transform="translate(0,188.22)" d="M68,0h602" style="stroke: rgb(255, 255, 255); stroke-opacity: 1; stroke-width: 1px;"/><path class="ygrid crisp" transform="translate(0,135.31)" d="M68,0h602" style="stroke: rgb(255, 255, 255); stroke-opacity: 1; stroke-width: 1px;"/><path class="ygrid crisp" transform="translate(0,82.4)" d="M68,0h602" style="stroke: rgb(255, 255, 255); stroke-opacity: 1; stroke-width: 1px;"/></g></g><g class="zerolinelayer"/><g class="layer-between"><g class="shapelayer"/><g class="imagelayer"/></g><path class="xlines-below"/><path class="ylines-below"/><g class="overlines-below"/><g class="xaxislayer-below"/><g class="yaxislayer-below"/><g class="overaxes-below"/><g class="overplot"><g class="xy" transform="translate(68,46)" clip-path="url(#clip6d684axyplot)"><g class="scatterlayer mlayer"><g class="trace scatter tracefce3efcc-e29c-488c-9d97-54e16824be0b" style="stroke-miterlimit: 2; opacity: 1;"><g class="fills"/><g class="errorbars"/><g class="lines"><path class="js-line" d="M0,195.13L0.91,189.6L1.36,193.15L1.81,192.79L2.26,194.74L4.98,183.18L5.44,185.17L6.34,181.61L6.79,182.1L7.25,183.02L8.15,181.23L8.61,181.66L9.06,184.02L9.51,187.01L9.97,185.48L10.42,186.33L10.87,183.91L11.32,186.44L11.78,186.69L12.23,187.82L12.68,188.51L13.14,190.98L14.04,190.58L14.5,189.21L15.4,187.83L15.85,187.39L16.76,187.78L17.21,186.73L17.67,186.36L18.12,183.57L18.57,184.27L19.02,182.55L19.48,182.93L19.93,184.9L20.38,180.61L20.84,182.39L21.29,182.32L21.74,180.83L22.2,181.58L22.65,182.67L23.1,183.64L23.55,183L24.01,186.12L24.46,186.88L24.91,185.79L25.37,185.69L25.82,183.09L27.18,179.35L27.63,181.2L29.44,176.92L29.9,176.4L30.35,177.65L30.8,177.41L31.26,177.02L33.07,179.3L33.52,180.19L33.97,179.93L34.43,181.91L35.33,178.25L35.78,179.27L36.69,181.65L37.14,180.9L37.6,180.27L38.05,181.56L38.96,181.06L39.41,182.45L41.67,181.48L42.13,182.25L42.58,180.35L43.03,182.41L44.39,183.18L44.84,181.63L45.3,182.04L45.75,181.07L46.66,181.9L47.11,180.95L48.02,183.02L48.47,181.54L50.73,183.04L51.19,183.1L51.64,182.35L52.09,182.68L52.54,183.53L53,184.1L53.45,182.11L55.72,179.56L56.17,180.67L57.53,179.14L57.98,179.9L59.34,181.49L59.79,180.55L60.7,182.04L61.15,181L62.06,182.9L62.51,181.17L62.96,181.75L63.42,180.65L64.32,182.91L64.78,181.72L67.04,182.58L67.49,182.6L69.3,184.85L69.76,184.86L71.12,184.25L71.57,184.84L72.02,184.47L72.48,185.64L72.93,187.72L73.38,186.42L73.83,185.84L74.29,185.06L74.74,185.33L75.19,182.6L76.55,185.23L77.01,185.55L77.46,185.75L77.91,185.12L78.82,182.87L79.27,183.84L80.63,185.34L81.08,185.7L81.53,185.79L81.99,184.09L82.89,184.93L83.35,183.97L84.25,184.2L84.71,184.35L87.88,187.35L88.33,186.89L88.78,187.84L89.24,187.56L89.69,187.26L91.5,186L91.95,186.84L92.41,186.33L92.86,187.06L94.22,187.13L94.67,184.88L95.58,182.79L96.03,183.86L97.84,184.9L98.29,184.23L99.2,181.83L99.65,182.53L100.11,182.36L101.47,183.84L101.92,184.41L103.28,184.77L103.73,186.38L104.64,186.63L105.09,186.34L105.54,187.79L106,187.12L106.45,187.7L107.81,188.27L108.26,188.92L108.71,188.63L109.17,189.95L110.07,191.07L110.53,190.17L110.98,187.87L111.43,188.33L111.88,188.27L112.34,187.69L112.79,188.67L113.24,187.73L113.7,188.19L114.15,188.63L114.6,189.32L115.05,188.54L116.87,190.65L117.32,189.51L118.23,192.81L118.68,191.34L119.13,191.18L119.58,189.92L120.49,198.42L120.94,194.36L121.85,199.07L122.3,198.59L122.76,198.89L123.21,197.61L123.66,200.6L124.57,201.06L125.02,200.21L127.74,205.04L128.19,205.36L128.64,204.17L129.1,204.49L129.55,203.98L130.46,202.2L130.91,202.82L131.36,203.06L132.27,202.44L132.72,202.55L133.63,195.11L134.08,195.87L134.53,195.79L136.34,198.67L136.8,197.47L137.7,200.16L138.16,197.42L138.61,199.47L139.06,199.09L139.52,198.72L139.97,197.83L140.42,198.89L140.87,198.95L141.33,197.53L141.78,198.13L142.23,200.27L143.59,202.58L144.05,203.13L145.86,210.37L146.31,209.11L147.22,212.09L147.67,208.75L148.12,209.26L148.57,208.44L149.03,208.91L149.48,210.64L151.29,210.7L151.75,209.48L152.65,212.36L153.1,212.61L153.56,212.47L154.01,211.1L154.46,211.06L154.92,209.91L155.37,209.31L155.82,210.78L156.28,211.36L156.73,210.52L157.63,210.06L158.09,208.84L158.99,209.27L159.45,208.35L160.81,208.55L161.26,206.78L161.71,205.93L162.16,206.72L163.07,206.14L163.52,207.2L163.98,207.48L164.43,204.33L164.88,204.57L165.33,205.79L165.79,205.44L166.24,203.79L168.05,209.27L168.51,208.6L168.96,207.53L169.41,208.03L169.86,208.46L170.77,209.56L171.22,208.18L171.68,207.6L172.13,208.17L172.58,208.33L173.49,208.16L173.94,208.75L175.75,210.6L176.21,208.9L177.11,211.03L177.57,211.26L178.02,212.61L178.47,211.85L178.92,211.75L180.74,216L181.19,215.37L181.64,214.62L182.09,215.44L183.45,215.63L183.91,213.65L185.72,216.44L186.17,215.84L187.53,218.72L187.98,217.14L188.44,217.42L188.89,216.38L189.34,216.97L189.8,215.3L190.7,217.05L191.15,216.92L191.61,215.82L192.06,216.55L192.51,216.76L193.87,216.49L194.33,216.88L194.78,216.01L195.23,216.63L195.68,216.74L197.95,215.34L198.4,215.45L199.76,217.07L200.21,217.17L200.67,217.87L201.12,220.74L202.48,219.39L202.93,217.07L203.84,218.62L204.29,217.73L206.56,219.19L207.01,218.76L207.46,219.42L207.91,218.24L208.82,218.86L209.27,219.33L210.18,217.93L210.63,218.17L211.09,218.3L211.99,219.08L212.44,220.34L212.9,219.54L213.35,221.55L214.26,219.37L214.71,220.21L215.61,217.95L216.07,218.79L217.43,220.59L217.88,218.99L219.69,218.06L220.14,218.21L221.96,216.58L222.41,217.93L223.32,218.85L223.77,220.12L224.67,217.93L225.13,218.46L225.58,218.24L226.49,219.61L226.94,217.13L227.84,217.75L228.3,216.9L228.75,217.72L229.2,216.86L229.66,218.62L230.11,217.36L230.56,217.5L231.02,216.64L232.37,217.7L232.83,216.78L234.64,218.07L235.09,217.6L236,219.47L236.45,218.52L238.26,220.33L238.72,219.45L240.08,222.72L240.53,224.87L240.98,199.87L241.43,200.92L241.89,200.04L242.34,199.91L242.79,201.27L243.7,202.69L244.15,204.1L244.6,205.74L245.06,205.22L245.51,205.88L246.42,203.62L246.87,204.55L247.32,203.51L247.78,204.41L248.23,204.56L248.68,206.16L249.13,205.24L249.59,205.76L250.04,205.59L250.49,206.17L250.95,205.33L252.31,203.91L252.76,204.51L253.66,204.63L254.12,206.33L255.93,211.2L256.38,211.43L256.84,209.4L257.29,210.42L257.74,210.9L258.19,210.21L258.65,207.91L259.55,209.02L260.01,207.5L261.36,210.3L261.82,209.59L262.72,209.91L263.18,209.91L264.08,209.18L264.54,209.87L264.99,209.45L265.44,210.25L265.89,211.89L266.35,211.38L266.8,210.77L267.25,210.29L267.71,211.28L268.16,210.74L268.61,209.02L269.52,207.2L269.97,208.4L270.88,206.47L271.33,207.17L271.78,207.36L272.24,206.41L272.69,205.62L273.14,206.82L273.6,204.33L274.05,205.59L274.5,204.54L275.86,205.66L276.31,204.65L277.22,207.92L277.67,207.4L278.12,206.99L278.58,207.55L279.03,206.75L280.39,209.55L280.84,208.55L281.3,208.9L281.75,206.9L282.2,207.35L282.65,206.39L284.01,207.49L284.47,206.15L285.83,205.5L286.28,207.22L286.73,208.03L287.18,206.7L288.54,209.2L289,209.63L289.45,209.41L289.9,208.13L290.36,206.58L290.81,206.99L291.26,207.65L294.88,211.37L295.34,209.54L296.24,207.28L296.7,207.96L300.32,208.7L300.77,208.12L302.13,207.18L302.59,207.52L303.49,207.08L303.94,208.22L304.4,208.09L304.85,209.55L305.3,209.29L305.76,210.51L306.66,210.6L307.12,210.04L307.57,210.51L308.02,209.75L308.47,209.67L308.93,211.27L309.38,211.09L309.83,212.21L311.64,215.02L312.1,213.48L312.55,213.49L313,214.68L313.46,214.56L313.91,215.5L314.36,214.23L314.82,215.59L315.27,215.77L315.72,214.53L316.63,215.81L317.08,215.27L317.99,217.21L318.44,216.59L318.89,216.34L320.25,216.39L320.7,215.16L321.16,216.29L321.61,215.46L322.06,215.19L323.42,216.8L323.88,216.1L324.33,215.8L324.78,216.87L325.23,215.16L325.69,215.93L326.14,216.69L327.5,216.27L327.95,217.09L328.4,216.1L328.86,217.14L329.31,217.77L329.76,217.17L330.22,217.55L330.67,217.42L331.12,219.13L332.03,219.38L332.48,218.66L332.93,220.23L333.39,218.97L334.29,221.05L334.75,220.99L335.2,220.34L335.65,220.71L336.11,220.64L336.56,221.23L337.01,220.68L337.46,220.55L339.73,225L340.18,223.95L340.64,225.14L341.09,224.51L341.54,224.93L342.45,222.41L342.9,222.86L343.81,223.09L344.26,222.3L344.71,221.86L345.16,223.21L345.62,221.27L346.07,221.98L346.52,222.5L347.43,224.11L347.88,223.43L348.34,223.31L348.79,224.71L349.24,225L349.69,219.75L351.51,216.04L351.96,216.2L353.77,211.93L354.22,211.59L355.13,212.67L355.58,211.73L356.04,212.45L356.49,211.48L356.94,210.6L357.4,210.94L357.85,210.47L358.3,210.44L358.75,209.62L359.66,209.61L360.11,210.69L360.57,208.63L361.02,216.11L361.92,194.92L362.38,197.99L362.83,197.53L363.28,198.08L363.74,199.74L364.64,202.66L365.1,202.24L365.55,201.32L367.36,210.37L367.81,207.91L368.27,206.76L368.72,207.76L370.08,209.43L370.53,208.6L372.34,206.55L372.8,206.93L373.25,207.84L373.7,205.93L374.16,207.04L374.61,205.06L375.06,203.45L375.51,204.71L375.97,206.27L376.42,204.82L377.33,204.33L377.78,205.15L379.59,202.45L380.04,200.19L381.4,199.28L381.86,200.71L383.21,203.7L383.67,205.71L384.12,204.24L384.57,205.12L385.03,205.88L385.93,204.69L386.39,204.67L387.74,204.24L388.2,204.3L389.56,201.35L390.01,202.68L391.37,205.85L391.82,205.07L392.27,203.92L392.73,205.1L393.18,204.36L393.63,205.2L394.09,203.83L394.54,204.36L394.99,205.1L395.44,204.78L395.9,205.6L396.8,207.24L397.26,207.21L397.71,208.02L398.16,207.06L399.52,206.67L399.97,208.04L400.43,208.02L400.88,206.22L401.33,206.08L401.79,207.85L402.69,206.02L403.15,207.04L403.6,204.95L404.05,206.03L404.5,206.04L405.41,206.52L405.86,205.91L406.77,206.74L407.22,207.35L408.13,205.31L408.58,206.34L409.49,207.31L409.94,206.01L410.39,205.95L410.85,206.74L412.2,208.18L412.66,207.14L413.11,206.62L413.56,207.83L414.47,207.29L414.92,207.04L415.83,207.2L416.28,207.7L417.19,206.45L417.64,207.78L418.55,206.86L419,208.15L419.91,206.73L420.36,207.99L420.81,208.39L421.26,206.41L422.17,205.63L422.62,205.96L423.53,206.13L423.98,206.58L424.43,206.84L424.89,206.23L425.79,206.55L426.25,206.44L426.7,203.93L427.15,204.62L427.61,205.33L428.06,205.19L428.51,203.59L429.42,203.93L429.87,204.15L430.78,203.94L431.23,206.17L432.14,205.18L432.59,205.09L433.49,207.15L433.95,207.86L434.4,208.97L434.85,208.06L435.31,207.66L435.76,209.14L437.12,206.75L437.57,206.33L438.48,207.48L438.93,207.24L440.29,206.48L440.74,207.98L441.65,205.88L442.1,206.11L443.01,207.15L443.46,208.15L443.91,208.37L444.37,206.93L444.82,206.19L445.27,206.94L445.72,206.96L446.18,205.68L446.63,207.77L447.08,206.87L447.54,207.74L448.44,206.4L448.9,207.6L449.35,208.15L449.8,207.71L450.25,207.6L450.71,207.49L451.16,209.75L451.61,210.05L452.07,209L452.52,209.89L452.97,208.8L453.88,208.91L454.33,210.29L454.78,208.67L455.24,209.64L455.69,210.56L456.14,208.55L456.6,209.57L457.05,209.28L457.95,210.53L458.41,208.9L459.77,210.16L460.22,210.12L460.67,209.81L461.13,211.17L463.39,210.2L463.84,210.23L465.2,209.95L465.66,209.67L466.56,211.1L467.01,210.41L467.92,211.69L468.37,210.84L469.73,210.67L470.19,212.68L472.9,216.07L473.36,217.51L474.26,215.67L474.71,215.7L475.17,216.69L475.62,215.83L477.43,215.59L477.89,214.92L478.79,216.01L479.24,213.53L480.6,213.98L481.06,217.33L482.87,250.59L483.32,250.23L483.77,249.92L484.23,247.29L485.59,238.51L486.04,240.5L486.95,243.83L487.4,241.72L487.85,245.56L488.3,244.63L488.76,246.63L489.66,243.61L490.12,246.98L490.57,246.67L491.02,249.26L491.93,245.38L492.38,246.05L492.83,246.43L493.29,247.51L493.74,243.98L494.19,243.1L494.65,245.1L495.1,245.08L495.55,247.3L496,245.97L496.46,246.74L496.91,248.62L497.36,248.94L497.82,247.77L498.72,248.5L499.18,247.49L499.63,246.9L500.08,248.64L500.53,247.01L500.99,248.2L501.44,248.3L501.89,250.45L502.8,247.37L503.25,247.47L503.71,247.9L504.16,246.99L504.61,246.86L505.06,247.69L505.97,246.56L506.42,246.61L507.33,248.11L507.78,246.85L508.23,246.67L508.69,248.36L510.05,245.78L510.5,245.09L510.95,246.26L511.41,245.2L513.22,243.77L513.67,242.98L514.58,239.22L515.03,240.28L515.48,240.96L515.94,240.02L517.29,238.28L517.75,242.41L518.2,240.89L518.65,242.22L520.01,242.61L520.47,244.51L520.92,243.47L521.37,243.95L521.82,244.1L522.73,245.78L523.18,247.45L524.54,247.73L524.99,249.16L526.81,246.78L527.26,248.82L527.71,250.91L528.17,250L528.62,250.42L530.88,252.03L531.34,251.45L531.79,251.67L532.24,254.49L532.7,255.75L533.15,254.08L533.6,254.45L534.05,251.89L534.51,251.35L534.96,252.58L535.41,252.51L535.87,253.46L536.32,252.6L536.77,253.79L538.58,254.17L539.04,256.22L540.4,255.17L540.85,255.43L541.3,255.45L541.75,256.61L543.11,256.39L543.57,254.92L544.02,253.09L544.47,254.33L544.93,253.08L545.83,254.23L546.28,254.19L548.55,257.86L549,257.24L549.46,259.46L549.91,258.77L550.36,258.96L550.81,257.8L551.27,260.3L552.17,257.39L552.63,257.69L553.08,257.41L553.53,257.68L553.98,256.53L554.44,257.06L554.89,256.1L555.8,256.17L556.25,255.27L556.7,255.44L557.16,256.49L557.61,256.84L558.06,254.95L558.97,254.73L559.42,253.61L559.87,253.3L560.33,256.34L561.23,254.9L561.69,255.71L562.14,254.22L562.59,255.19L563.04,254.5L563.5,252.54L563.95,253.82L564.4,255.49L565.31,254.01L565.76,255.93L566.22,255.99L566.67,254.15L567.57,253.71L568.03,255.23L568.93,251.86L569.39,252.4L569.84,252.07L570.29,251.33L570.74,252.89L572.1,252.8L572.56,252.2L573.92,251.65L574.37,252.26L574.82,251.2L575.27,251.79L575.73,251.68L576.63,252.69L577.09,251.6L577.99,252.41L578.45,252.16L579.35,251.6L579.8,251.96L580.71,251.95L581.16,251.67L581.62,253.03L582.07,251.68L583.88,250.67L584.33,251.34L584.79,251.09L585.24,253.63L585.69,254.06L586.15,252.42L587.05,254.3L587.5,254.18L587.96,254.63L588.41,254.1L588.86,252.92L589.32,254L589.77,252.85L590.22,252.91L590.68,250.5L591.13,249.42L591.58,250.22L592.03,250.46L592.94,251.5L593.39,251.33L593.85,251.15L594.3,252.15L594.75,250.27L595.21,251.04L595.66,250.29L596.11,251.21L596.56,250.02L597.02,250.05L597.47,251L598.83,251.54L599.28,251.01L599.74,251.29L600.19,252.53L601.55,252.23L602,245.31" style="vector-effect: none; fill: none; stroke: rgb(127, 127, 127); stroke-opacity: 1; stroke-width: 2px; opacity: 1;"/></g><g class="points"/><g class="text"/></g><g class="trace scatter trace2131bdb5-03c8-4971-b49f-e8b63aa332ac" style="stroke-miterlimit: 2;"><g class="fills"><g><path class="js-fill" d="M0,195.13L1.81,194.69L2.26,193.53L2.72,184.06L3.17,187.79L3.62,193.38L4.53,182.46L4.98,176.59L5.44,181.93L5.89,173.37L6.79,172.91L7.25,168.39L7.7,157.95L8.15,159.96L8.61,157.31L10.42,167.17L10.87,164.88L11.32,164.11L11.78,165.72L12.68,164.67L13.14,167.6L13.59,167.82L14.04,166.71L14.5,166.91L14.95,164.98L16.31,165.2L16.76,163.97L17.67,162.06L18.12,159.75L19.02,155.45L19.48,157.86L19.93,159.34L20.38,155.88L21.29,160.22L21.74,158.37L23.1,160.22L23.55,158.57L24.46,162.88L24.91,160.36L25.37,163.71L25.82,158.45L27.63,157.41L28.08,149.85L28.54,149.95L28.99,147.7L29.9,148.76L30.35,152.38L31.26,148.69L31.71,152.96L32.16,148.92L32.61,149.55L33.07,150.29L34.43,151.03L34.88,154.52L35.78,149.99L36.24,158.5L37.14,153.28L37.6,157.17L38.5,157.72L38.96,161.85L39.41,162.56L39.86,167.09L40.31,171.44L40.77,171.23L41.22,170.88L42.58,161.3L43.03,161.53L43.49,165.91L43.94,165.71L44.39,165.76L45.3,165.34L45.75,160.73L47.56,160.38L48.02,165.26L50.28,165.25L50.73,165.6L51.64,156.41L52.09,160.87L54.36,146.72L54.81,150.86L55.26,150.7L55.72,155.15L56.17,155.06L56.62,150.54L57.53,150.31L57.98,154.96L58.89,154.98L59.34,150.98L59.79,146.51L60.25,146.62L60.7,146.77L62.51,131.38L62.96,133.25L64.32,137.15L64.78,136.27L66.13,135.58L66.59,135.52L67.49,135.36L67.95,136.33L69.76,136.42L70.21,136.36L70.66,136.71L71.12,135.59L72.02,136.34L72.48,138.3L72.93,144.61L73.38,144.37L73.83,139.07L74.74,139.67L75.19,136.47L76.55,139.57L77.01,139.27L77.46,140.33L77.91,137.66L78.82,135.27L79.27,137.06L80.63,137.69L81.08,137.94L81.53,138.18L81.99,137.23L82.44,132.88L82.89,133.29L83.35,133.56L84.25,133.69L84.71,133.75L85.16,132.79L85.61,134.9L86.06,133.44L86.52,133.59L86.97,134.46L87.88,134.74L88.33,139.85L89.24,141.02L89.69,139.74L91.05,137.52L91.5,138.03L92.86,138.51L93.31,138.43L94.22,138.41L94.67,135.44L95.58,133.98L96.03,135.59L96.48,135.47L96.94,134.16L98.29,135.34L98.75,132.81L99.65,131.16L100.11,129.22L100.56,130.66L101.01,129.12L102.82,134.54L103.28,134.65L104.18,134.87L104.64,134.8L105.09,134.12L105.54,135.58L106.9,135.91L107.35,136.78L108.26,137.92L108.71,137.4L110.07,139.02L110.53,138.26L110.98,136.55L111.43,138.14L111.88,137.72L112.34,136.08L112.79,137.8L113.24,136.26L113.7,137.25L114.15,136.48L114.6,135L115.05,133.89L115.51,135.32L116.41,135.91L116.87,131.88L117.32,130.28L117.77,131.84L118.23,142.08L118.68,138.59L119.13,134.26L119.58,129.88L120.04,136.92L120.49,136.46L120.94,131.91L122.3,140.4L122.76,145.45L123.21,144.99L123.66,145.96L124.57,145.77L125.02,144.97L125.93,150.4L126.38,150.34L126.83,151.72L127.29,151.45L127.74,152.64L128.64,151.8L129.1,151.91L129.55,152.06L130,149.51L131.81,147.54L132.27,147.95L133.17,145.43L133.63,140.73L134.08,143.24L134.53,141.93L134.99,143.24L136.34,144.72L136.8,144.73L137.7,148.06L138.16,144.62L138.61,145.12L139.06,144.44L139.97,145.28L140.42,144.09L142.23,142.37L142.69,149.72L143.14,146.11L143.59,146.84L144.05,145.5L145.86,149.7L146.31,150.11L146.76,149.43L147.22,150.95L147.67,148.92L148.12,149.06L148.57,149.48L149.48,150.34L149.93,149.03L150.84,150.02L151.29,148.8L151.75,149.5L152.2,151.79L153.56,146.52L154.01,145.79L154.46,146.33L154.92,144.62L155.82,143.47L156.28,145.34L157.63,143.36L158.09,139.87L158.54,138.32L158.99,138.83L159.45,138.18L159.9,137.48L160.35,138.03L160.81,138.14L161.26,137.38L161.71,137.87L162.16,137.75L162.62,138.24L163.07,137.54L163.98,137.9L164.43,136.7L164.88,136.65L165.33,137.63L165.79,137.67L166.24,135.55L166.69,137.88L167.15,136.38L167.6,138.43L168.05,141.54L168.51,141.21L168.96,140.12L169.86,141.84L170.32,140.24L171.22,140.14L171.68,139.27L173.04,139.68L173.49,139.89L174.39,139.88L174.85,137.62L175.3,138.35L175.75,143.08L176.21,142.09L176.66,144.27L177.57,143.98L178.02,145.01L178.92,143.61L179.38,146.83L179.83,149.04L180.28,142.34L180.74,143.07L181.19,141.93L182.09,143.14L182.55,142.13L183.45,142.21L183.91,141.17L186.17,141.79L186.62,142.85L187.53,143.68L187.98,140.83L188.89,140.22L189.34,140L192.06,140.29L192.51,140.86L192.97,140.65L193.42,142.99L194.78,142.61L195.23,142.57L196.59,142.53L197.04,142.26L197.95,139.04L198.4,139.43L199.31,142.66L199.76,142.3L200.67,142.92L201.12,145.78L202.03,145.96L202.48,143.74L202.93,145.71L203.38,143.27L204.74,143.72L205.2,143.22L205.65,144.46L206.1,144.25L206.56,143.9L207.91,143.38L208.37,143.56L208.82,144.45L209.27,143.49L209.73,142.88L210.18,138.16L211.54,138.64L211.99,138.43L212.9,141.71L213.35,141.82L213.8,141.99L214.26,141.11L214.71,141.77L215.16,140.5L218.33,143.99L218.79,143.51L219.24,143.48L220.14,143.29L220.6,144.69L221.5,144.52L221.96,141.1L222.41,142.07L222.86,141.72L223.32,142.23L224.22,142.47L224.67,142.61L225.58,141.79L226.03,142.42L226.49,140.58L226.94,141.39L227.39,141.68L228.75,141.32L229.2,143.39L231.02,143.66L231.47,143.97L231.92,143.45L232.37,143.94L232.83,144.48L233.28,145.43L233.73,144.62L234.19,145.79L234.64,144.94L235.09,145.35L236,146.18L236.45,145.4L237.36,147.46L237.81,146.88L239.17,146.11L239.62,146.56L240.08,146.93L240.53,150.25L241.43,128.01L241.89,125.19L242.34,125.31L242.79,127.59L243.7,126.13L244.15,128.99L245.51,130.57L245.96,129.56L246.87,128.91L247.32,129.96L248.23,130.37L248.68,131.79L250.04,128.7L250.49,128.45L250.95,127.65L251.4,128.06L251.85,128.1L252.31,125.65L252.76,126.06L253.21,126.28L253.66,125.38L254.12,129.27L255.02,131.27L255.48,132.21L256.38,137.75L256.84,133.53L259.55,128.76L260.01,127.55L260.46,128.28L260.91,127.56L261.82,128.25L262.27,127.89L263.63,124.47L264.08,125.84L264.54,124.55L264.99,127.25L265.89,128.71L266.35,128.06L266.8,123.09L267.25,123.73L267.71,123.28L268.16,122.96L268.61,119.69L269.07,119.15L269.52,117.05L269.97,119.34L270.42,117.74L270.88,115.86L271.33,116.12L271.78,116.67L273.14,114.63L273.6,113.23L274.05,113.99L274.5,112.47L274.95,114.79L275.41,113.07L277.22,115.44L277.67,114.62L278.12,114.57L278.58,115.64L279.03,113.65L279.48,115.76L280.84,117.26L281.3,116.7L281.75,114.74L282.2,116.43L283.56,114.41L284.01,115.9L284.47,114.16L284.92,116.27L285.37,116.65L285.83,115.02L287.18,116.33L287.64,115.95L288.09,115.43L288.54,118.25L289.9,113.3L290.36,110.66L290.81,113.15L291.26,111.61L291.71,112.76L293.07,115.47L293.53,114.5L294.88,113.41L295.34,111.5L295.79,109.21L296.24,109.46L296.7,109.6L297.15,108.69L297.6,110.42L298.06,111.32L298.51,110.98L298.96,109.42L300.77,110.42L301.23,107.93L302.59,109.59L303.04,105.97L304.4,108.86L304.85,109.39L305.3,108.85L305.76,109.67L306.21,109.78L306.66,108.94L307.12,110.02L307.57,109.31L308.02,109.16L309.38,109.81L309.83,110.95L311.64,112.98L312.1,110.21L312.55,110.35L313,112.96L313.91,111.83L314.36,113.2L314.82,113.1L315.27,114.48L315.72,111.63L316.17,113.76L316.63,113.92L317.08,112.79L318.89,115.94L319.35,112.6L320.25,114.85L320.7,113.76L321.16,113.15L321.61,113.53L322.06,111.08L322.52,112.67L322.97,112.23L323.42,112.9L323.88,112.81L324.33,111.94L324.78,112.83L325.23,111.85L326.14,112.12L326.59,112.27L327.05,112.22L327.5,111.39L327.95,113.11L328.4,111.63L330.22,114.55L330.67,113.07L331.12,116.26L331.58,115.09L332.03,115.16L332.48,114.96L332.93,116.86L333.39,114.75L333.84,118.15L335.65,117.2L336.11,118.57L336.56,117.05L337.01,117.21L337.46,118.73L337.92,120.6L338.37,120.27L338.82,120.48L339.73,122.74L340.18,121.09L341.09,122.64L341.54,121.27L342.9,117.27L343.35,118.66L344.26,118.46L344.71,117.69L345.16,117.65L345.62,115.88L346.52,118.04L346.98,117.35L347.43,118.16L347.88,117.75L348.34,116.41L349.24,118.93L349.69,113.36L350.6,111.02L351.05,111.3L351.96,108.31L352.41,108.78L352.87,107.99L353.77,105.21L354.22,105.9L355.58,106.82L356.04,105.83L357.4,104.38L357.85,105.01L359.21,103.68L359.66,104.7L360.11,106.73L360.57,104.44L361.02,109.76L361.47,84.24L361.92,83.53L362.38,86.79L362.83,85.09L363.28,85.97L363.74,86.22L364.64,89.06L365.1,88.63L365.55,87.92L367.36,101.61L367.81,96.49L368.72,93.22L369.17,94.86L369.63,95.34L370.08,93.13L370.53,92.59L370.98,89.71L371.44,91.85L371.89,90.92L372.34,92.12L372.8,90.57L373.25,92.01L374.61,84.27L375.06,83.61L375.97,85.17L376.42,81.95L377.33,79.05L377.78,80.22L379.14,75.37L379.59,77.41L380.95,70.51L381.4,70.66L382.31,68.65L382.76,69.72L383.67,74.95L384.12,73.56L385.48,71.97L385.93,72.83L387.29,69.16L387.74,70.65L388.2,70.38L388.65,66.94L389.56,65.48L390.01,68.64L390.91,68.29L391.37,70.64L392.27,67.32L392.73,68.34L393.18,68.26L393.63,70.76L394.09,69.09L394.54,68.05L396.35,70.57L396.8,71.1L397.71,72.57L398.16,70.25L398.62,69.67L399.07,70.89L399.97,70.52L400.43,68.7L401.33,67.14L401.79,71.03L402.69,64.96L403.15,67.67L403.6,64.93L404.05,65.88L404.5,66.02L406.32,64.24L406.77,65.83L407.22,68.23L407.67,63.55L408.13,61.84L408.58,63.31L409.94,61.52L410.39,59.77L411.75,63L412.2,62.82L412.66,64.8L413.11,64.56L413.56,64.09L414.92,62.56L415.38,62.8L416.28,62.32L416.73,63.91L417.19,63.07L417.64,63.71L418.09,61.28L419.45,62.78L419.91,60.7L420.81,66.53L421.26,65.02L421.72,63.51L422.17,63.81L422.62,63.25L423.08,63.66L423.53,62.99L424.43,65.45L424.89,64.6L425.34,62.87L425.79,63.47L426.25,64.32L426.7,57.28L427.15,59.4L427.61,58.63L428.06,60.75L428.51,58.45L428.96,58.23L429.42,58.96L430.78,57.35L431.23,59.44L432.14,57.07L432.59,57.28L433.04,57.21L435.76,63.23L436.21,59.85L436.67,61.14L437.12,57.34L437.57,58.41L438.02,57.46L438.48,57.48L438.93,56.39L439.38,58.53L439.84,55.49L440.74,59.43L441.19,57.46L441.65,55.65L442.1,56.68L442.55,55.32L443.46,57.7L443.91,56.24L444.37,55.98L444.82,54.16L446.18,50.02L446.63,52.56L447.08,51.79L447.54,53.96L448.44,53.86L448.9,56.17L449.35,59.47L449.8,59.31L450.25,59.42L450.71,56L451.16,58.96L452.07,56.89L452.52,59.62L452.97,57.36L453.43,58.1L453.88,57.93L454.33,58.47L454.78,56.04L455.24,57.07L455.69,53.72L456.14,53.08L456.6,53.42L457.05,58.72L457.5,58.63L457.95,57.5L459.31,55.28L459.77,53.52L461.13,55.57L461.58,53.78L462.03,55.22L462.48,53.89L462.94,53.53L463.39,54.32L463.84,54.74L464.3,53.66L465.2,55.17L465.66,54.64L466.11,51.95L466.56,52.84L467.01,52.87L467.92,52.23L468.37,52.42L468.83,55.51L469.28,50.94L469.73,50.33L470.19,55.8L470.64,57.64L471.09,56.6L471.54,55.63L472,56.27L472.45,58.69L472.9,60.42L473.36,60.08L473.81,59.72L474.26,62.91L474.71,61.19L475.17,60.67L476.07,56.19L476.53,56.42L476.98,58.79L477.43,58.57L477.89,53.46L478.79,56.67L479.24,52.35L480.15,52.73L480.6,55.22L481.51,61.09L481.96,84.83L482.87,92.55L483.32,90.45L483.77,89.31L484.23,91.41L485.59,58.41L486.04,60.51L486.95,64.5L487.4,60.26L488.76,68.71L489.21,67.9L489.66,67.2L490.57,60.91L491.02,61.87L491.47,60.6L492.83,57L493.29,57.36L494.19,51.7L494.65,54.27L495.1,53.69L495.55,55.01L496,54.09L496.46,55.86L496.91,55.5L497.36,53.41L497.82,51.44L498.27,54.93L499.18,48.49L499.63,48.76L500.08,50.36L500.53,44.77L500.99,47.37L501.44,47.5L501.89,50.88L502.35,46.64L502.8,46.23L503.25,49.91L504.61,45.88L505.06,47.21L505.97,43.02L506.42,44.94L506.88,42.46L507.33,44.67L507.78,41.37L508.23,42.07L508.69,42.33L510.05,42.26L510.5,40.33L511.41,37.65L511.86,40.67L513.22,34.65L513.67,34.01L514.12,27.19L514.58,29.4L515.03,29.61L515.48,29.08L515.94,29.73L516.39,27.92L516.84,28.2L517.29,30.01L517.75,33.35L518.2,28.93L519.11,30.06L519.56,33.56L520.01,29.99L520.47,31.32L520.92,31.92L521.82,32.91L522.28,32.38L524.09,39.27L524.54,37.44L525.45,42.14L525.9,40.34L526.81,35.04L527.26,37.97L527.71,38.6L528.17,37.78L528.62,37.77L529.07,38.99L529.98,37.14L530.43,44.18L531.79,39.57L532.24,48.35L532.7,50.81L533.15,45.77L533.6,49.7L534.05,43.6L534.51,42.62L534.96,43.49L535.87,46.67L536.32,41.58L537.22,43.08L537.68,41.33L538.13,45.21L538.58,45.03L539.04,46.54L539.94,42.79L540.4,42.98L540.85,44.2L541.3,41.39L541.75,45.55L542.21,45.31L542.66,42.23L543.11,43.24L543.57,42.08L544.02,41.84L544.47,42.55L545.38,38.97L545.83,42.08L546.28,37.4L546.74,43.02L547.64,41.15L548.1,42.63L548.55,45.82L549,41.48L549.46,44.9L549.91,43.91L550.36,44.07L550.81,41.28L551.27,44.77L552.17,39.93L552.63,42.75L553.08,41.44L553.53,41.76L553.98,37.71L554.44,38.05L554.89,36.27L555.34,35.89L555.8,38.5L556.7,34.42L557.16,35.92L557.61,40.73L558.06,35.59L558.51,38.52L558.97,34.18L559.87,33.02L560.33,38.07L560.78,39.53L561.23,34.99L561.69,36.04L562.14,30.5L562.59,32.89L563.04,28.97L563.5,27.47L563.95,30.05L564.4,33.13L564.86,31.61L565.31,28.02L566.22,34.86L566.67,28.64L567.12,27.57L567.57,29.42L568.03,31.7L568.48,29.91L568.93,26.78L569.39,26.89L569.84,27.14L570.29,26.11L570.74,27.75L571.2,27.95L571.65,29.52L572.56,31.19L573.01,27.49L573.92,27.95L574.37,31.78L574.82,26.78L575.27,28.59L575.73,29.64L577.54,26.04L577.99,27.22L578.9,25.89L579.35,27.23L579.8,25.45L580.26,27.28L581.16,25.8L581.62,29.44L582.52,24.33L582.98,25.3L583.43,23.89L583.88,26.23L584.79,23.66L585.24,26.96L585.69,30L586.15,25.9L586.6,25.2L587.05,27.2L588.86,24.63L589.32,25.05L590.22,22.95L590.68,24.09L591.58,22.85L592.03,24.24L592.49,22.3L592.94,23.22L593.39,23.98L593.85,22.98L594.3,25.36L594.75,21.88L595.21,24.15L595.66,22.83L596.11,25.93L596.56,24.75L597.02,23.25L598.83,25.52L599.28,23.73L600.19,25.44L600.64,24.77L601.09,25.15L601.55,22.94L602,13.7L602,195.13L0,195.13Z" style="fill: rgb(0, 128, 0); fill-opacity: 0.3; stroke-width: 0;"/></g></g><g class="errorbars"/><g class="lines"><path class="js-line" d="M0,195.13L602,195.13" style="vector-effect: none; fill: none; stroke: rgb(0, 0, 0); stroke-opacity: 0; stroke-width: 0px; opacity: 1;"/></g><g class="points"/><g class="text"/></g><g class="trace scatter tracea9a532e5-d061-4643-a946-1abca3d629c3" style="stroke-miterlimit: 2;"><g class="fills"/><g class="errorbars"/><g class="lines"><path class="js-line" d="M0,195.13L1.81,194.69L2.26,193.53L2.72,184.06L3.17,187.79L3.62,193.38L4.53,182.46L4.98,176.59L5.44,181.93L5.89,173.37L6.79,172.91L7.25,168.39L7.7,157.95L8.15,159.96L8.61,157.31L10.42,167.17L10.87,164.88L11.32,164.11L11.78,165.72L12.68,164.67L13.14,167.6L13.59,167.82L14.04,166.71L14.5,166.91L14.95,164.98L16.31,165.2L16.76,163.97L17.67,162.06L18.12,159.75L19.02,155.45L19.48,157.86L19.93,159.34L20.38,155.88L21.29,160.22L21.74,158.37L23.1,160.22L23.55,158.57L24.46,162.88L24.91,160.36L25.37,163.71L25.82,158.45L27.63,157.41L28.08,149.85L28.54,149.95L28.99,147.7L29.9,148.76L30.35,152.38L31.26,148.69L31.71,152.96L32.16,148.92L32.61,149.55L33.07,150.29L34.43,151.03L34.88,154.52L35.78,149.99L36.24,158.5L37.14,153.28L37.6,157.17L38.5,157.72L38.96,161.85L39.41,162.56L39.86,167.09L40.31,171.44L40.77,171.23L41.22,170.88L42.58,161.3L43.03,161.53L43.49,165.91L43.94,165.71L44.39,165.76L45.3,165.34L45.75,160.73L47.56,160.38L48.02,165.26L50.28,165.25L50.73,165.6L51.64,156.41L52.09,160.87L54.36,146.72L54.81,150.86L55.26,150.7L55.72,155.15L56.17,155.06L56.62,150.54L57.53,150.31L57.98,154.96L58.89,154.98L59.34,150.98L59.79,146.51L60.25,146.62L60.7,146.77L62.51,131.38L62.96,133.25L64.32,137.15L64.78,136.27L66.13,135.58L66.59,135.52L67.49,135.36L67.95,136.33L69.76,136.42L70.21,136.36L70.66,136.71L71.12,135.59L72.02,136.34L72.48,138.3L72.93,144.61L73.38,144.37L73.83,139.07L74.74,139.67L75.19,136.47L76.55,139.57L77.01,139.27L77.46,140.33L77.91,137.66L78.82,135.27L79.27,137.06L80.63,137.69L81.08,137.94L81.53,138.18L81.99,137.23L82.44,132.88L82.89,133.29L83.35,133.56L84.25,133.69L84.71,133.75L85.16,132.79L85.61,134.9L86.06,133.44L86.52,133.59L86.97,134.46L87.88,134.74L88.33,139.85L89.24,141.02L89.69,139.74L91.05,137.52L91.5,138.03L92.86,138.51L93.31,138.43L94.22,138.41L94.67,135.44L95.58,133.98L96.03,135.59L96.48,135.47L96.94,134.16L98.29,135.34L98.75,132.81L99.65,131.16L100.11,129.22L100.56,130.66L101.01,129.12L102.82,134.54L103.28,134.65L104.18,134.87L104.64,134.8L105.09,134.12L105.54,135.58L106.9,135.91L107.35,136.78L108.26,137.92L108.71,137.4L110.07,139.02L110.53,138.26L110.98,136.55L111.43,138.14L111.88,137.72L112.34,136.08L112.79,137.8L113.24,136.26L113.7,137.25L114.15,136.48L114.6,135L115.05,133.89L115.51,135.32L116.41,135.91L116.87,131.88L117.32,130.28L117.77,131.84L118.23,142.08L118.68,138.59L119.13,134.26L119.58,129.88L120.04,136.92L120.49,136.46L120.94,131.91L122.3,140.4L122.76,145.45L123.21,144.99L123.66,145.96L124.57,145.77L125.02,144.97L125.93,150.4L126.38,150.34L126.83,151.72L127.29,151.45L127.74,152.64L128.64,151.8L129.1,151.91L129.55,152.06L130,149.51L131.81,147.54L132.27,147.95L133.17,145.43L133.63,140.73L134.08,143.24L134.53,141.93L134.99,143.24L136.34,144.72L136.8,144.73L137.7,148.06L138.16,144.62L138.61,145.12L139.06,144.44L139.97,145.28L140.42,144.09L142.23,142.37L142.69,149.72L143.14,146.11L143.59,146.84L144.05,145.5L145.86,149.7L146.31,150.11L146.76,149.43L147.22,150.95L147.67,148.92L148.12,149.06L148.57,149.48L149.48,150.34L149.93,149.03L150.84,150.02L151.29,148.8L151.75,149.5L152.2,151.79L153.56,146.52L154.01,145.79L154.46,146.33L154.92,144.62L155.82,143.47L156.28,145.34L157.63,143.36L158.09,139.87L158.54,138.32L158.99,138.83L159.45,138.18L159.9,137.48L160.35,138.03L160.81,138.14L161.26,137.38L161.71,137.87L162.16,137.75L162.62,138.24L163.07,137.54L163.98,137.9L164.43,136.7L164.88,136.65L165.33,137.63L165.79,137.67L166.24,135.55L166.69,137.88L167.15,136.38L167.6,138.43L168.05,141.54L168.51,141.21L168.96,140.12L169.86,141.84L170.32,140.24L171.22,140.14L171.68,139.27L173.04,139.68L173.49,139.89L174.39,139.88L174.85,137.62L175.3,138.35L175.75,143.08L176.21,142.09L176.66,144.27L177.57,143.98L178.02,145.01L178.92,143.61L179.38,146.83L179.83,149.04L180.28,142.34L180.74,143.07L181.19,141.93L182.09,143.14L182.55,142.13L183.45,142.21L183.91,141.17L186.17,141.79L186.62,142.85L187.53,143.68L187.98,140.83L188.89,140.22L189.34,140L192.06,140.29L192.51,140.86L192.97,140.65L193.42,142.99L194.78,142.61L195.23,142.57L196.59,142.53L197.04,142.26L197.95,139.04L198.4,139.43L199.31,142.66L199.76,142.3L200.67,142.92L201.12,145.78L202.03,145.96L202.48,143.74L202.93,145.71L203.38,143.27L204.74,143.72L205.2,143.22L205.65,144.46L206.1,144.25L206.56,143.9L207.91,143.38L208.37,143.56L208.82,144.45L209.27,143.49L209.73,142.88L210.18,138.16L211.54,138.64L211.99,138.43L212.9,141.71L213.35,141.82L213.8,141.99L214.26,141.11L214.71,141.77L215.16,140.5L218.33,143.99L218.79,143.51L219.24,143.48L220.14,143.29L220.6,144.69L221.5,144.52L221.96,141.1L222.41,142.07L222.86,141.72L223.32,142.23L224.22,142.47L224.67,142.61L225.58,141.79L226.03,142.42L226.49,140.58L226.94,141.39L227.39,141.68L228.75,141.32L229.2,143.39L231.02,143.66L231.47,143.97L231.92,143.45L232.37,143.94L232.83,144.48L233.28,145.43L233.73,144.62L234.19,145.79L234.64,144.94L235.09,145.35L236,146.18L236.45,145.4L237.36,147.46L237.81,146.88L239.17,146.11L239.62,146.56L240.08,146.93L240.53,150.25L241.43,128.01L241.89,125.19L242.34,125.31L242.79,127.59L243.7,126.13L244.15,128.99L245.51,130.57L245.96,129.56L246.87,128.91L247.32,129.96L248.23,130.37L248.68,131.79L250.04,128.7L250.49,128.45L250.95,127.65L251.4,128.06L251.85,128.1L252.31,125.65L252.76,126.06L253.21,126.28L253.66,125.38L254.12,129.27L255.02,131.27L255.48,132.21L256.38,137.75L256.84,133.53L259.55,128.76L260.01,127.55L260.46,128.28L260.91,127.56L261.82,128.25L262.27,127.89L263.63,124.47L264.08,125.84L264.54,124.55L264.99,127.25L265.89,128.71L266.35,128.06L266.8,123.09L267.25,123.73L267.71,123.28L268.16,122.96L268.61,119.69L269.07,119.15L269.52,117.05L269.97,119.34L270.42,117.74L270.88,115.86L271.33,116.12L271.78,116.67L273.14,114.63L273.6,113.23L274.05,113.99L274.5,112.47L274.95,114.79L275.41,113.07L277.22,115.44L277.67,114.62L278.12,114.57L278.58,115.64L279.03,113.65L279.48,115.76L280.84,117.26L281.3,116.7L281.75,114.74L282.2,116.43L283.56,114.41L284.01,115.9L284.47,114.16L284.92,116.27L285.37,116.65L285.83,115.02L287.18,116.33L287.64,115.95L288.09,115.43L288.54,118.25L289.9,113.3L290.36,110.66L290.81,113.15L291.26,111.61L291.71,112.76L293.07,115.47L293.53,114.5L294.88,113.41L295.34,111.5L295.79,109.21L296.24,109.46L296.7,109.6L297.15,108.69L297.6,110.42L298.06,111.32L298.51,110.98L298.96,109.42L300.77,110.42L301.23,107.93L302.59,109.59L303.04,105.97L304.4,108.86L304.85,109.39L305.3,108.85L305.76,109.67L306.21,109.78L306.66,108.94L307.12,110.02L307.57,109.31L308.02,109.16L309.38,109.81L309.83,110.95L311.64,112.98L312.1,110.21L312.55,110.35L313,112.96L313.91,111.83L314.36,113.2L314.82,113.1L315.27,114.48L315.72,111.63L316.17,113.76L316.63,113.92L317.08,112.79L318.89,115.94L319.35,112.6L320.25,114.85L320.7,113.76L321.16,113.15L321.61,113.53L322.06,111.08L322.52,112.67L322.97,112.23L323.42,112.9L323.88,112.81L324.33,111.94L324.78,112.83L325.23,111.85L326.14,112.12L326.59,112.27L327.05,112.22L327.5,111.39L327.95,113.11L328.4,111.63L330.22,114.55L330.67,113.07L331.12,116.26L331.58,115.09L332.03,115.16L332.48,114.96L332.93,116.86L333.39,114.75L333.84,118.15L335.65,117.2L336.11,118.57L336.56,117.05L337.01,117.21L337.46,118.73L337.92,120.6L338.37,120.27L338.82,120.48L339.73,122.74L340.18,121.09L341.09,122.64L341.54,121.27L342.9,117.27L343.35,118.66L344.26,118.46L344.71,117.69L345.16,117.65L345.62,115.88L346.52,118.04L346.98,117.35L347.43,118.16L347.88,117.75L348.34,116.41L349.24,118.93L349.69,113.36L350.6,111.02L351.05,111.3L351.96,108.31L352.41,108.78L352.87,107.99L353.77,105.21L354.22,105.9L355.58,106.82L356.04,105.83L357.4,104.38L357.85,105.01L359.21,103.68L359.66,104.7L360.11,106.73L360.57,104.44L361.02,109.76L361.47,84.24L361.92,83.53L362.38,86.79L362.83,85.09L363.28,85.97L363.74,86.22L364.64,89.06L365.1,88.63L365.55,87.92L367.36,101.61L367.81,96.49L368.72,93.22L369.17,94.86L369.63,95.34L370.08,93.13L370.53,92.59L370.98,89.71L371.44,91.85L371.89,90.92L372.34,92.12L372.8,90.57L373.25,92.01L374.61,84.27L375.06,83.61L375.97,85.17L376.42,81.95L377.33,79.05L377.78,80.22L379.14,75.37L379.59,77.41L380.95,70.51L381.4,70.66L382.31,68.65L382.76,69.72L383.67,74.95L384.12,73.56L385.48,71.97L385.93,72.83L387.29,69.16L387.74,70.65L388.2,70.38L388.65,66.94L389.56,65.48L390.01,68.64L390.91,68.29L391.37,70.64L392.27,67.32L392.73,68.34L393.18,68.26L393.63,70.76L394.09,69.09L394.54,68.05L396.35,70.57L396.8,71.1L397.71,72.57L398.16,70.25L398.62,69.67L399.07,70.89L399.97,70.52L400.43,68.7L401.33,67.14L401.79,71.03L402.69,64.96L403.15,67.67L403.6,64.93L404.05,65.88L404.5,66.02L406.32,64.24L406.77,65.83L407.22,68.23L407.67,63.55L408.13,61.84L408.58,63.31L409.94,61.52L410.39,59.77L411.75,63L412.2,62.82L412.66,64.8L413.11,64.56L413.56,64.09L414.92,62.56L415.38,62.8L416.28,62.32L416.73,63.91L417.19,63.07L417.64,63.71L418.09,61.28L419.45,62.78L419.91,60.7L420.81,66.53L421.26,65.02L421.72,63.51L422.17,63.81L422.62,63.25L423.08,63.66L423.53,62.99L424.43,65.45L424.89,64.6L425.34,62.87L425.79,63.47L426.25,64.32L426.7,57.28L427.15,59.4L427.61,58.63L428.06,60.75L428.51,58.45L428.96,58.23L429.42,58.96L430.78,57.35L431.23,59.44L432.14,57.07L432.59,57.28L433.04,57.21L435.76,63.23L436.21,59.85L436.67,61.14L437.12,57.34L437.57,58.41L438.02,57.46L438.48,57.48L438.93,56.39L439.38,58.53L439.84,55.49L440.74,59.43L441.19,57.46L441.65,55.65L442.1,56.68L442.55,55.32L443.46,57.7L443.91,56.24L444.37,55.98L444.82,54.16L446.18,50.02L446.63,52.56L447.08,51.79L447.54,53.96L448.44,53.86L448.9,56.17L449.35,59.47L449.8,59.31L450.25,59.42L450.71,56L451.16,58.96L452.07,56.89L452.52,59.62L452.97,57.36L453.43,58.1L453.88,57.93L454.33,58.47L454.78,56.04L455.24,57.07L455.69,53.72L456.14,53.08L456.6,53.42L457.05,58.72L457.5,58.63L457.95,57.5L459.31,55.28L459.77,53.52L461.13,55.57L461.58,53.78L462.03,55.22L462.48,53.89L462.94,53.53L463.39,54.32L463.84,54.74L464.3,53.66L465.2,55.17L465.66,54.64L466.11,51.95L466.56,52.84L467.01,52.87L467.92,52.23L468.37,52.42L468.83,55.51L469.28,50.94L469.73,50.33L470.19,55.8L470.64,57.64L471.09,56.6L471.54,55.63L472,56.27L472.45,58.69L472.9,60.42L473.36,60.08L473.81,59.72L474.26,62.91L474.71,61.19L475.17,60.67L476.07,56.19L476.53,56.42L476.98,58.79L477.43,58.57L477.89,53.46L478.79,56.67L479.24,52.35L480.15,52.73L480.6,55.22L481.51,61.09L481.96,84.83L482.87,92.55L483.32,90.45L483.77,89.31L484.23,91.41L485.59,58.41L486.04,60.51L486.95,64.5L487.4,60.26L488.76,68.71L489.21,67.9L489.66,67.2L490.57,60.91L491.02,61.87L491.47,60.6L492.83,57L493.29,57.36L494.19,51.7L494.65,54.27L495.1,53.69L495.55,55.01L496,54.09L496.46,55.86L496.91,55.5L497.36,53.41L497.82,51.44L498.27,54.93L499.18,48.49L499.63,48.76L500.08,50.36L500.53,44.77L500.99,47.37L501.44,47.5L501.89,50.88L502.35,46.64L502.8,46.23L503.25,49.91L504.61,45.88L505.06,47.21L505.97,43.02L506.42,44.94L506.88,42.46L507.33,44.67L507.78,41.37L508.23,42.07L508.69,42.33L510.05,42.26L510.5,40.33L511.41,37.65L511.86,40.67L513.22,34.65L513.67,34.01L514.12,27.19L514.58,29.4L515.03,29.61L515.48,29.08L515.94,29.73L516.39,27.92L516.84,28.2L517.29,30.01L517.75,33.35L518.2,28.93L519.11,30.06L519.56,33.56L520.01,29.99L520.47,31.32L520.92,31.92L521.82,32.91L522.28,32.38L524.09,39.27L524.54,37.44L525.45,42.14L525.9,40.34L526.81,35.04L527.26,37.97L527.71,38.6L528.17,37.78L528.62,37.77L529.07,38.99L529.98,37.14L530.43,44.18L531.79,39.57L532.24,48.35L532.7,50.81L533.15,45.77L533.6,49.7L534.05,43.6L534.51,42.62L534.96,43.49L535.87,46.67L536.32,41.58L537.22,43.08L537.68,41.33L538.13,45.21L538.58,45.03L539.04,46.54L539.94,42.79L540.4,42.98L540.85,44.2L541.3,41.39L541.75,45.55L542.21,45.31L542.66,42.23L543.11,43.24L543.57,42.08L544.02,41.84L544.47,42.55L545.38,38.97L545.83,42.08L546.28,37.4L546.74,43.02L547.64,41.15L548.1,42.63L548.55,45.82L549,41.48L549.46,44.9L549.91,43.91L550.36,44.07L550.81,41.28L551.27,44.77L552.17,39.93L552.63,42.75L553.08,41.44L553.53,41.76L553.98,37.71L554.44,38.05L554.89,36.27L555.34,35.89L555.8,38.5L556.7,34.42L557.16,35.92L557.61,40.73L558.06,35.59L558.51,38.52L558.97,34.18L559.87,33.02L560.33,38.07L560.78,39.53L561.23,34.99L561.69,36.04L562.14,30.5L562.59,32.89L563.04,28.97L563.5,27.47L563.95,30.05L564.4,33.13L564.86,31.61L565.31,28.02L566.22,34.86L566.67,28.64L567.12,27.57L567.57,29.42L568.03,31.7L568.48,29.91L568.93,26.78L569.39,26.89L569.84,27.14L570.29,26.11L570.74,27.75L571.2,27.95L571.65,29.52L572.56,31.19L573.01,27.49L573.92,27.95L574.37,31.78L574.82,26.78L575.27,28.59L575.73,29.64L577.54,26.04L577.99,27.22L578.9,25.89L579.35,27.23L579.8,25.45L580.26,27.28L581.16,25.8L581.62,29.44L582.52,24.33L582.98,25.3L583.43,23.89L583.88,26.23L584.79,23.66L585.24,26.96L585.69,30L586.15,25.9L586.6,25.2L587.05,27.2L588.86,24.63L589.32,25.05L590.22,22.95L590.68,24.09L591.58,22.85L592.03,24.24L592.49,22.3L592.94,23.22L593.39,23.98L593.85,22.98L594.3,25.36L594.75,21.88L595.21,24.15L595.66,22.83L596.11,25.93L596.56,24.75L597.02,23.25L598.83,25.52L599.28,23.73L600.19,25.44L600.64,24.77L601.09,25.15L601.55,22.94L602,13.7" style="vector-effect: none; fill: none; stroke: rgb(0, 0, 0); stroke-opacity: 0; stroke-width: 0px; opacity: 1;"/></g><g class="points"/><g class="text"/></g><g class="trace scatter tracedfb42583-a844-4848-8e74-13010978b81b" style="stroke-miterlimit: 2;"><g class="fills"><g><path class="js-fill" d="M0,199.53L0.45,195.13L0.91,196.51L1.36,197.67L2.26,195.13L2.72,195.13L602,195.13L602,195.13L0,195.13Z" style="fill: rgb(255, 0, 0); fill-opacity: 0.3; stroke-width: 0;"/></g></g><g class="errorbars"/><g class="lines"><path class="js-line" d="M0,195.13L602,195.13" style="vector-effect: none; fill: none; stroke: rgb(0, 0, 0); stroke-opacity: 0; stroke-width: 0px; opacity: 1;"/></g><g class="points"/><g class="text"/></g><g class="trace scatter tracef8eefa2f-1e9c-4b3d-8185-a388f033b9be" style="stroke-miterlimit: 2;"><g class="fills"/><g class="errorbars"/><g class="lines"><path class="js-line" d="M0,199.53L0.45,195.13L0.91,196.51L1.36,197.67L2.26,195.13L2.72,195.13L602,195.13" style="vector-effect: none; fill: none; stroke: rgb(0, 0, 0); stroke-opacity: 0; stroke-width: 0px; opacity: 1;"/></g><g class="points"/><g class="text"/></g><g class="trace scatter trace3cd3f89c-8323-4c96-b401-e268ce46fa37" style="stroke-miterlimit: 2; opacity: 1;"><g class="fills"/><g class="errorbars"/><g class="lines"><path class="js-line" d="M0,199.53L0.45,194.98L0.91,196.51L1.36,197.67L2.26,193.53L2.72,184.06L3.62,193.38L4.08,190L4.98,176.59L5.44,181.93L6.34,172.75L6.79,172.91L7.7,157.95L8.15,159.96L8.61,157.31L10.42,167.17L10.87,164.88L11.32,164.11L11.78,165.72L12.68,164.67L13.14,167.6L13.59,167.82L14.04,166.71L14.5,166.91L14.95,164.98L16.31,165.2L16.76,163.97L17.67,162.06L18.12,159.75L19.02,155.45L19.48,157.86L19.93,159.34L20.38,155.88L21.29,160.22L21.74,158.37L23.1,160.22L23.55,158.57L24.46,162.88L24.91,160.36L25.37,163.71L25.82,158.45L27.63,157.41L28.08,149.85L28.54,149.95L28.99,147.7L29.9,148.76L30.35,152.38L31.26,148.69L31.71,152.96L32.16,148.92L32.61,149.55L33.07,150.29L34.43,151.03L34.88,154.52L35.78,149.99L36.24,158.5L37.14,153.28L37.6,157.17L38.5,157.72L38.96,161.85L39.41,162.56L39.86,167.09L40.31,171.44L40.77,171.23L41.22,170.88L42.58,161.3L43.03,161.53L43.49,165.91L43.94,165.71L44.39,165.76L45.3,165.34L45.75,160.73L47.56,160.38L48.02,165.26L50.28,165.25L50.73,165.6L51.64,156.41L52.09,160.87L54.36,146.72L54.81,150.86L55.26,150.7L55.72,155.15L56.17,155.06L56.62,150.54L57.53,150.31L57.98,154.96L58.89,154.98L59.34,150.98L59.79,146.51L60.25,146.62L60.7,146.77L62.51,131.38L62.96,133.25L64.32,137.15L64.78,136.27L66.13,135.58L66.59,135.52L67.49,135.36L67.95,136.33L69.76,136.42L70.21,136.36L70.66,136.71L71.12,135.59L72.02,136.34L72.48,138.3L72.93,144.61L73.38,144.37L73.83,139.07L74.74,139.67L75.19,136.47L76.55,139.57L77.01,139.27L77.46,140.33L77.91,137.66L78.82,135.27L79.27,137.06L80.63,137.69L81.08,137.94L81.53,138.18L81.99,137.23L82.44,132.88L82.89,133.29L83.35,133.56L84.25,133.69L84.71,133.75L85.16,132.79L85.61,134.9L86.06,133.44L86.52,133.59L86.97,134.46L87.88,134.74L88.33,139.85L89.24,141.02L89.69,139.74L91.05,137.52L91.5,138.03L92.86,138.51L93.31,138.43L94.22,138.41L94.67,135.44L95.58,133.98L96.03,135.59L96.48,135.47L96.94,134.16L98.29,135.34L98.75,132.81L99.65,131.16L100.11,129.22L100.56,130.66L101.01,129.12L102.82,134.54L103.28,134.65L104.18,134.87L104.64,134.8L105.09,134.12L105.54,135.58L106.9,135.91L107.35,136.78L108.26,137.92L108.71,137.4L110.07,139.02L110.53,138.26L110.98,136.55L111.43,138.14L111.88,137.72L112.34,136.08L112.79,137.8L113.24,136.26L113.7,137.25L114.15,136.48L114.6,135L115.05,133.89L115.51,135.32L116.41,135.91L116.87,131.88L117.32,130.28L117.77,131.84L118.23,142.08L118.68,138.59L119.13,134.26L119.58,129.88L120.04,136.92L120.49,136.46L120.94,131.91L122.3,140.4L122.76,145.45L123.21,144.99L123.66,145.96L124.57,145.77L125.02,144.97L125.93,150.4L126.38,150.34L126.83,151.72L127.29,151.45L127.74,152.64L128.64,151.8L129.1,151.91L129.55,152.06L130,149.51L131.81,147.54L132.27,147.95L133.17,145.43L133.63,140.73L134.08,143.24L134.53,141.93L134.99,143.24L136.34,144.72L136.8,144.73L137.7,148.06L138.16,144.62L138.61,145.12L139.06,144.44L139.97,145.28L140.42,144.09L142.23,142.37L142.69,149.72L143.14,146.11L143.59,146.84L144.05,145.5L145.86,149.7L146.31,150.11L146.76,149.43L147.22,150.95L147.67,148.92L148.12,149.06L148.57,149.48L149.48,150.34L149.93,149.03L150.84,150.02L151.29,148.8L151.75,149.5L152.2,151.79L153.56,146.52L154.01,145.79L154.46,146.33L154.92,144.62L155.82,143.47L156.28,145.34L157.63,143.36L158.09,139.87L158.54,138.32L158.99,138.83L159.45,138.18L159.9,137.48L160.35,138.03L160.81,138.14L161.26,137.38L161.71,137.87L162.16,137.75L162.62,138.24L163.07,137.54L163.98,137.9L164.43,136.7L164.88,136.65L165.33,137.63L165.79,137.67L166.24,135.55L166.69,137.88L167.15,136.38L167.6,138.43L168.05,141.54L168.51,141.21L168.96,140.12L169.86,141.84L170.32,140.24L171.22,140.14L171.68,139.27L173.04,139.68L173.49,139.89L174.39,139.88L174.85,137.62L175.3,138.35L175.75,143.08L176.21,142.09L176.66,144.27L177.57,143.98L178.02,145.01L178.92,143.61L179.38,146.83L179.83,149.04L180.28,142.34L180.74,143.07L181.19,141.93L182.09,143.14L182.55,142.13L183.45,142.21L183.91,141.17L186.17,141.79L186.62,142.85L187.53,143.68L187.98,140.83L188.89,140.22L189.34,140L192.06,140.29L192.51,140.86L192.97,140.65L193.42,142.99L194.78,142.61L195.23,142.57L196.59,142.53L197.04,142.26L197.95,139.04L198.4,139.43L199.31,142.66L199.76,142.3L200.67,142.92L201.12,145.78L202.03,145.96L202.48,143.74L202.93,145.71L203.38,143.27L204.74,143.72L205.2,143.22L205.65,144.46L206.1,144.25L206.56,143.9L207.91,143.38L208.37,143.56L208.82,144.45L209.27,143.49L209.73,142.88L210.18,138.16L211.54,138.64L211.99,138.43L212.9,141.71L213.35,141.82L213.8,141.99L214.26,141.11L214.71,141.77L215.16,140.5L218.33,143.99L218.79,143.51L219.24,143.48L220.14,143.29L220.6,144.69L221.5,144.52L221.96,141.1L222.41,142.07L222.86,141.72L223.32,142.23L224.22,142.47L224.67,142.61L225.58,141.79L226.03,142.42L226.49,140.58L226.94,141.39L227.39,141.68L228.75,141.32L229.2,143.39L231.02,143.66L231.47,143.97L231.92,143.45L232.37,143.94L232.83,144.48L233.28,145.43L233.73,144.62L234.19,145.79L234.64,144.94L235.09,145.35L236,146.18L236.45,145.4L237.36,147.46L237.81,146.88L239.17,146.11L239.62,146.56L240.08,146.93L240.53,150.25L241.43,128.01L241.89,125.19L242.34,125.31L242.79,127.59L243.7,126.13L244.15,128.99L245.51,130.57L245.96,129.56L246.87,128.91L247.32,129.96L248.23,130.37L248.68,131.79L250.04,128.7L250.49,128.45L250.95,127.65L251.4,128.06L251.85,128.1L252.31,125.65L252.76,126.06L253.21,126.28L253.66,125.38L254.12,129.27L255.02,131.27L255.48,132.21L256.38,137.75L256.84,133.53L259.55,128.76L260.01,127.55L260.46,128.28L260.91,127.56L261.82,128.25L262.27,127.89L263.63,124.47L264.08,125.84L264.54,124.55L264.99,127.25L265.89,128.71L266.35,128.06L266.8,123.09L267.25,123.73L267.71,123.28L268.16,122.96L268.61,119.69L269.07,119.15L269.52,117.05L269.97,119.34L270.42,117.74L270.88,115.86L271.33,116.12L271.78,116.67L273.14,114.63L273.6,113.23L274.05,113.99L274.5,112.47L274.95,114.79L275.41,113.07L277.22,115.44L277.67,114.62L278.12,114.57L278.58,115.64L279.03,113.65L279.48,115.76L280.84,117.26L281.3,116.7L281.75,114.74L282.2,116.43L283.56,114.41L284.01,115.9L284.47,114.16L284.92,116.27L285.37,116.65L285.83,115.02L287.18,116.33L287.64,115.95L288.09,115.43L288.54,118.25L289.9,113.3L290.36,110.66L290.81,113.15L291.26,111.61L291.71,112.76L293.07,115.47L293.53,114.5L294.88,113.41L295.34,111.5L295.79,109.21L296.24,109.46L296.7,109.6L297.15,108.69L297.6,110.42L298.06,111.32L298.51,110.98L298.96,109.42L300.77,110.42L301.23,107.93L302.59,109.59L303.04,105.97L304.4,108.86L304.85,109.39L305.3,108.85L305.76,109.67L306.21,109.78L306.66,108.94L307.12,110.02L307.57,109.31L308.02,109.16L309.38,109.81L309.83,110.95L311.64,112.98L312.1,110.21L312.55,110.35L313,112.96L313.91,111.83L314.36,113.2L314.82,113.1L315.27,114.48L315.72,111.63L316.17,113.76L316.63,113.92L317.08,112.79L318.89,115.94L319.35,112.6L320.25,114.85L320.7,113.76L321.16,113.15L321.61,113.53L322.06,111.08L322.52,112.67L322.97,112.23L323.42,112.9L323.88,112.81L324.33,111.94L324.78,112.83L325.23,111.85L326.14,112.12L326.59,112.27L327.05,112.22L327.5,111.39L327.95,113.11L328.4,111.63L330.22,114.55L330.67,113.07L331.12,116.26L331.58,115.09L332.03,115.16L332.48,114.96L332.93,116.86L333.39,114.75L333.84,118.15L335.65,117.2L336.11,118.57L336.56,117.05L337.01,117.21L337.46,118.73L337.92,120.6L338.37,120.27L338.82,120.48L339.73,122.74L340.18,121.09L341.09,122.64L341.54,121.27L342.9,117.27L343.35,118.66L344.26,118.46L344.71,117.69L345.16,117.65L345.62,115.88L346.52,118.04L346.98,117.35L347.43,118.16L347.88,117.75L348.34,116.41L349.24,118.93L349.69,113.36L350.6,111.02L351.05,111.3L351.96,108.31L352.41,108.78L352.87,107.99L353.77,105.21L354.22,105.9L355.58,106.82L356.04,105.83L357.4,104.38L357.85,105.01L359.21,103.68L359.66,104.7L360.11,106.73L360.57,104.44L361.02,109.76L361.47,84.24L361.92,83.53L362.38,86.79L362.83,85.09L363.28,85.97L363.74,86.22L364.64,89.06L365.1,88.63L365.55,87.92L367.36,101.61L367.81,96.49L368.72,93.22L369.17,94.86L369.63,95.34L370.08,93.13L370.53,92.59L370.98,89.71L371.44,91.85L371.89,90.92L372.34,92.12L372.8,90.57L373.25,92.01L374.61,84.27L375.06,83.61L375.97,85.17L376.42,81.95L377.33,79.05L377.78,80.22L379.14,75.37L379.59,77.41L380.95,70.51L381.4,70.66L382.31,68.65L382.76,69.72L383.67,74.95L384.12,73.56L385.48,71.97L385.93,72.83L387.29,69.16L387.74,70.65L388.2,70.38L388.65,66.94L389.56,65.48L390.01,68.64L390.91,68.29L391.37,70.64L392.27,67.32L392.73,68.34L393.18,68.26L393.63,70.76L394.09,69.09L394.54,68.05L396.35,70.57L396.8,71.1L397.71,72.57L398.16,70.25L398.62,69.67L399.07,70.89L399.97,70.52L400.43,68.7L401.33,67.14L401.79,71.03L402.69,64.96L403.15,67.67L403.6,64.93L404.05,65.88L404.5,66.02L406.32,64.24L406.77,65.83L407.22,68.23L407.67,63.55L408.13,61.84L408.58,63.31L409.94,61.52L410.39,59.77L411.75,63L412.2,62.82L412.66,64.8L413.11,64.56L413.56,64.09L414.92,62.56L415.38,62.8L416.28,62.32L416.73,63.91L417.19,63.07L417.64,63.71L418.09,61.28L419.45,62.78L419.91,60.7L420.81,66.53L421.26,65.02L421.72,63.51L422.17,63.81L422.62,63.25L423.08,63.66L423.53,62.99L424.43,65.45L424.89,64.6L425.34,62.87L425.79,63.47L426.25,64.32L426.7,57.28L427.15,59.4L427.61,58.63L428.06,60.75L428.51,58.45L428.96,58.23L429.42,58.96L430.78,57.35L431.23,59.44L432.14,57.07L432.59,57.28L433.04,57.21L435.76,63.23L436.21,59.85L436.67,61.14L437.12,57.34L437.57,58.41L438.02,57.46L438.48,57.48L438.93,56.39L439.38,58.53L439.84,55.49L440.74,59.43L441.19,57.46L441.65,55.65L442.1,56.68L442.55,55.32L443.46,57.7L443.91,56.24L444.37,55.98L444.82,54.16L446.18,50.02L446.63,52.56L447.08,51.79L447.54,53.96L448.44,53.86L448.9,56.17L449.35,59.47L449.8,59.31L450.25,59.42L450.71,56L451.16,58.96L452.07,56.89L452.52,59.62L452.97,57.36L453.43,58.1L453.88,57.93L454.33,58.47L454.78,56.04L455.24,57.07L455.69,53.72L456.14,53.08L456.6,53.42L457.05,58.72L457.5,58.63L457.95,57.5L459.31,55.28L459.77,53.52L461.13,55.57L461.58,53.78L462.03,55.22L462.48,53.89L462.94,53.53L463.39,54.32L463.84,54.74L464.3,53.66L465.2,55.17L465.66,54.64L466.11,51.95L466.56,52.84L467.01,52.87L467.92,52.23L468.37,52.42L468.83,55.51L469.28,50.94L469.73,50.33L470.19,55.8L470.64,57.64L471.09,56.6L471.54,55.63L472,56.27L472.45,58.69L472.9,60.42L473.36,60.08L473.81,59.72L474.26,62.91L474.71,61.19L475.17,60.67L476.07,56.19L476.53,56.42L476.98,58.79L477.43,58.57L477.89,53.46L478.79,56.67L479.24,52.35L480.15,52.73L480.6,55.22L481.51,61.09L481.96,84.83L482.87,92.55L483.32,90.45L483.77,89.31L484.23,91.41L485.59,58.41L486.04,60.51L486.95,64.5L487.4,60.26L488.76,68.71L489.21,67.9L489.66,67.2L490.57,60.91L491.02,61.87L491.47,60.6L492.83,57L493.29,57.36L494.19,51.7L494.65,54.27L495.1,53.69L495.55,55.01L496,54.09L496.46,55.86L496.91,55.5L497.36,53.41L497.82,51.44L498.27,54.93L499.18,48.49L499.63,48.76L500.08,50.36L500.53,44.77L500.99,47.37L501.44,47.5L501.89,50.88L502.35,46.64L502.8,46.23L503.25,49.91L504.61,45.88L505.06,47.21L505.97,43.02L506.42,44.94L506.88,42.46L507.33,44.67L507.78,41.37L508.23,42.07L508.69,42.33L510.05,42.26L510.5,40.33L511.41,37.65L511.86,40.67L513.22,34.65L513.67,34.01L514.12,27.19L514.58,29.4L515.03,29.61L515.48,29.08L515.94,29.73L516.39,27.92L516.84,28.2L517.29,30.01L517.75,33.35L518.2,28.93L519.11,30.06L519.56,33.56L520.01,29.99L520.47,31.32L520.92,31.92L521.82,32.91L522.28,32.38L524.09,39.27L524.54,37.44L525.45,42.14L525.9,40.34L526.81,35.04L527.26,37.97L527.71,38.6L528.17,37.78L528.62,37.77L529.07,38.99L529.98,37.14L530.43,44.18L531.79,39.57L532.24,48.35L532.7,50.81L533.15,45.77L533.6,49.7L534.05,43.6L534.51,42.62L534.96,43.49L535.87,46.67L536.32,41.58L537.22,43.08L537.68,41.33L538.13,45.21L538.58,45.03L539.04,46.54L539.94,42.79L540.4,42.98L540.85,44.2L541.3,41.39L541.75,45.55L542.21,45.31L542.66,42.23L543.11,43.24L543.57,42.08L544.02,41.84L544.47,42.55L545.38,38.97L545.83,42.08L546.28,37.4L546.74,43.02L547.64,41.15L548.1,42.63L548.55,45.82L549,41.48L549.46,44.9L549.91,43.91L550.36,44.07L550.81,41.28L551.27,44.77L552.17,39.93L552.63,42.75L553.08,41.44L553.53,41.76L553.98,37.71L554.44,38.05L554.89,36.27L555.34,35.89L555.8,38.5L556.7,34.42L557.16,35.92L557.61,40.73L558.06,35.59L558.51,38.52L558.97,34.18L559.87,33.02L560.33,38.07L560.78,39.53L561.23,34.99L561.69,36.04L562.14,30.5L562.59,32.89L563.04,28.97L563.5,27.47L563.95,30.05L564.4,33.13L564.86,31.61L565.31,28.02L566.22,34.86L566.67,28.64L567.12,27.57L567.57,29.42L568.03,31.7L568.48,29.91L568.93,26.78L569.39,26.89L569.84,27.14L570.29,26.11L570.74,27.75L571.2,27.95L571.65,29.52L572.56,31.19L573.01,27.49L573.92,27.95L574.37,31.78L574.82,26.78L575.27,28.59L575.73,29.64L577.54,26.04L577.99,27.22L578.9,25.89L579.35,27.23L579.8,25.45L580.26,27.28L581.16,25.8L581.62,29.44L582.52,24.33L582.98,25.3L583.43,23.89L583.88,26.23L584.79,23.66L585.24,26.96L585.69,30L586.15,25.9L586.6,25.2L587.05,27.2L588.86,24.63L589.32,25.05L590.22,22.95L590.68,24.09L591.58,22.85L592.03,24.24L592.49,22.3L592.94,23.22L593.39,23.98L593.85,22.98L594.3,25.36L594.75,21.88L595.21,24.15L595.66,22.83L596.11,25.93L596.56,24.75L597.02,23.25L598.83,25.52L599.28,23.73L600.19,25.44L600.64,24.77L601.09,25.15L601.55,22.94L602,13.7" style="vector-effect: none; fill: none; stroke: rgb(148, 103, 189); stroke-opacity: 1; stroke-width: 2px; opacity: 1;"/></g><g class="points"/><g class="text"/></g><g class="trace scatter tracef778517c-5422-4454-9168-0d896535c7b3" style="stroke-miterlimit: 2; opacity: 0;"><g class="fills"/><g class="errorbars"/><g class="lines"><path class="js-line" d="M0,195.13L602,195.13" style="vector-effect: none; fill: none; stroke: rgb(0, 0, 0); stroke-opacity: 0; stroke-width: 0px; opacity: 1;"/></g><g class="points"/><g class="text"/></g></g></g></g><path class="xlines-above crisp" d="M0,0" style="fill: none;"/><path class="ylines-above crisp" d="M0,0" style="fill: none;"/><g class="overlines-above"/><g class="xaxislayer-above"><g class="xtick"><text text-anchor="middle" x="0" y="333" transform="translate(68,0)" style="font-family: 'Open Sans', verdana, arial, sans-serif; font-size: 12px; fill: rgb(42, 63, 95); fill-opacity: 1; white-space: pre; opacity: 1;">2025-05-26</text></g><g class="xtick"><text text-anchor="middle" x="0" y="333" transform="translate(188.49,0)" style="font-family: 'Open Sans', verdana, arial, sans-serif; font-size: 12px; fill: rgb(42, 63, 95); fill-opacity: 1; white-space: pre; opacity: 1;">2025-05-27</text></g><g class="xtick"><text text-anchor="middle" x="0" y="333" transform="translate(308.98,0)" style="font-family: 'Open Sans', verdana, arial, sans-serif; font-size: 12px; fill: rgb(42, 63, 95); fill-opacity: 1; white-space: pre; opacity: 1;">2025-05-28</text></g><g class="xtick"><text text-anchor="middle" x="0" y="333" transform="translate(429.47,0)" style="font-family: 'Open Sans', verdana, arial, sans-serif; font-size: 12px; fill: rgb(42, 63, 95); fill-opacity: 1; white-space: pre; opacity: 1;">2025-05-29</text></g><g class="xtick"><text text-anchor="middle" x="0" y="333" transform="translate(549.96,0)" style="font-family: 'Open Sans', verdana, arial, sans-serif; font-size: 12px; fill: rgb(42, 63, 95); fill-opacity: 1; white-space: pre; opacity: 1;">2025-06-02</text></g></g><g class="yaxislayer-above"><g class="ytick"><text text-anchor="end" x="67" y="4.199999999999999" transform="translate(0,294.03999999999996)" style="font-family: 'Open Sans', verdana, arial, sans-serif; font-size: 12px; fill: rgb(42, 63, 95); fill-opacity: 1; white-space: pre; opacity: 1;">98.00%</text></g><g class="ytick"><text text-anchor="end" x="67" y="4.199999999999999" style="font-family: 'Open Sans', verdana, arial, sans-serif; font-size: 12px; fill: rgb(42, 63, 95); fill-opacity: 1; white-space: pre; opacity: 1;" transform="translate(0,241.13)">100.00%</text></g><g class="ytick"><text text-anchor="end" x="67" y="4.199999999999999" style="font-family: 'Open Sans', verdana, arial, sans-serif; font-size: 12px; fill: rgb(42, 63, 95); fill-opacity: 1; white-space: pre; opacity: 1;" transform="translate(0,188.22)">102.00%</text></g><g class="ytick"><text text-anchor="end" x="67" y="4.199999999999999" style="font-family: 'Open Sans', verdana, arial, sans-serif; font-size: 12px; fill: rgb(42, 63, 95); fill-opacity: 1; white-space: pre; opacity: 1;" transform="translate(0,135.31)">104.00%</text></g><g class="ytick"><text text-anchor="end" x="67" y="4.199999999999999" style="font-family: 'Open Sans', verdana, arial, sans-serif; font-size: 12px; fill: rgb(42, 63, 95); fill-opacity: 1; white-space: pre; opacity: 1;" transform="translate(0,82.4)">106.00%</text></g></g><g class="overaxes-above"/></g></g><g class="polarlayer"/><g class="smithlayer"/><g class="ternarylayer"/><g class="geolayer"/><g class="funnelarealayer"/><g class="pielayer"/><g class="iciclelayer"/><g class="treemaplayer"/><g class="sunburstlayer"/><g class="glimages"/><defs id="topdefs-6d684a"><g class="clips"/><clipPath id="legend6d684a"><rect width="192" height="29" x="0" y="0"/></clipPath></defs><g class="layer-above"><g class="imagelayer"/><g class="shapelayer"><g class="shape-group" data-index="0" clip-path="url(#clip6d684ay)"><path data-index="0" fill-rule="evenodd" d="M68,241.13L670,241.13" style="opacity: 1; stroke: rgb(128, 128, 128); stroke-opacity: 1; fill: rgb(0, 0, 0); fill-opacity: 0; stroke-dasharray: 9px, 9px; stroke-width: 2px;"/></g></g></g><g class="infolayer"><g class="legend" pointer-events="all" transform="translate(478,11.519999999999996)"><rect class="bg" shape-rendering="crispEdges" style="stroke: rgb(68, 68, 68); stroke-opacity: 1; fill: rgb(255, 255, 255); fill-opacity: 1; stroke-width: 0px;" width="192" height="29" x="0" y="0"/><g class="scrollbox" transform="" clip-path="url(#legend6d684a)"><g class="groups"><g class="traces" transform="translate(0,14.5)" style="opacity: 1;"><text class="legendtext" text-anchor="start" x="40" y="4.680000000000001" style="font-family: 'Open Sans', verdana, arial, sans-serif; font-size: 12px; fill: rgb(42, 63, 95); fill-opacity: 1; white-space: pre;">Benchmark</text><g class="layers" style="opacity: 1;"><g class="legendfill"/><g class="legendlines"><path class="js-line" d="M5,0h30" style="fill: none; stroke: rgb(127, 127, 127); stroke-opacity: 1; stroke-width: 2px;"/></g><g class="legendsymbols"><g class="legendpoints"/></g></g><rect class="legendtoggle" x="0" y="-9.5" width="111.328125" height="19" style="fill: rgb(0, 0, 0); fill-opacity: 0;"/></g><g class="traces" transform="translate(113.828125,14.5)" style="opacity: 1;"><text class="legendtext" text-anchor="start" x="40" y="4.680000000000001" style="font-family: 'Open Sans', verdana, arial, sans-serif; font-size: 12px; fill: rgb(42, 63, 95); fill-opacity: 1; white-space: pre;">Value</text><g class="layers" style="opacity: 1;"><g class="legendfill"/><g class="legendlines"><path class="js-line" d="M5,0h30" style="fill: none; stroke: rgb(148, 103, 189); stroke-opacity: 1; stroke-width: 2px;"/></g><g class="legendsymbols"><g class="legendpoints"/></g></g><rect class="legendtoggle" x="0" y="-9.5" width="75.359375" height="19" style="fill: rgb(0, 0, 0); fill-opacity: 0;"/></g></g></g><rect class="scrollbar" rx="20" ry="3" width="0" height="0" style="fill: rgb(128, 139, 164); fill-opacity: 1;" x="0" y="0"/></g><g class="g-gtitle"><text class="gtitle" x="35" y="23" text-anchor="start" dy="0em" style="opacity: 1; font-family: 'Open Sans', verdana, arial, sans-serif; font-size: 17px; fill: rgb(42, 63, 95); fill-opacity: 1; white-space: pre;">Portfolio Cumulative Returns</text></g><g class="g-xtitle"/><g class="g-ytitle"/></g></svg>