<svg class="main-svg" xmlns="http://www.w3.org/2000/svg" xmlns:xlink="http://www.w3.org/1999/xlink" width="700" height="350" style="" viewBox="0 0 700 350"><rect x="0" y="0" width="700" height="350" style="fill: rgb(255, 255, 255); fill-opacity: 1;"/><defs id="defs-33637f"><g class="clips"><clipPath id="clip33637fxyplot" class="plotclip"><rect width="607" height="274"/></clipPath><clipPath class="axesclip" id="clip33637fx"><rect x="63" y="0" width="607" height="350"/></clipPath><clipPath class="axesclip" id="clip33637fy"><rect x="0" y="46" width="700" height="274"/></clipPath><clipPath class="axesclip" id="clip33637fxy"><rect x="63" y="46" width="607" height="274"/></clipPath></g><g class="gradients"/><g class="patterns"/></defs><g class="bglayer"><rect class="bg" x="63" y="46" width="607" height="274" style="fill: rgb(229, 236, 246); fill-opacity: 1; stroke-width: 0;"/></g><g class="layer-below"><g class="imagelayer"/><g class="shapelayer"/></g><g class="cartesianlayer"><g class="subplot xy"><g class="layer-subplot"><g class="shapelayer"/><g class="imagelayer"/></g><g class="minor-gridlayer"><g class="x"/><g class="y"/></g><g class="gridlayer"><g class="x"><path class="xgrid crisp" transform="translate(184.49,0)" d="M0,46v274" style="stroke: rgb(255, 255, 255); stroke-opacity: 1; stroke-width: 1px;"/><path class="xgrid crisp" transform="translate(305.98,0)" d="M0,46v274" style="stroke: rgb(255, 255, 255); stroke-opacity: 1; stroke-width: 1px;"/><path class="xgrid crisp" transform="translate(427.47,0)" d="M0,46v274" style="stroke: rgb(255, 255, 255); stroke-opacity: 1; stroke-width: 1px;"/><path class="xgrid crisp" transform="translate(548.97,0)" d="M0,46v274" style="stroke: rgb(255, 255, 255); stroke-opacity: 1; stroke-width: 1px;"/></g><g class="y"><path class="ygrid crisp" transform="translate(0,302.26)" d="M63,0h607" style="stroke: rgb(255, 255, 255); stroke-opacity: 1; stroke-width: 1px;"/><path class="ygrid crisp" transform="translate(0,217.18)" d="M63,0h607" style="stroke: rgb(255, 255, 255); stroke-opacity: 1; stroke-width: 1px;"/><path class="ygrid crisp" transform="translate(0,132.09)" d="M63,0h607" style="stroke: rgb(255, 255, 255); stroke-opacity: 1; stroke-width: 1px;"/></g></g><g class="zerolinelayer"><path class="yzl zl crisp" transform="translate(0,47)" d="M63,0h607" style="stroke: rgb(255, 255, 255); stroke-opacity: 1; stroke-width: 2px;"/></g><g class="layer-between"><g class="shapelayer"/><g class="imagelayer"/></g><path class="xlines-below"/><path class="ylines-below"/><g class="overlines-below"/><g class="xaxislayer-below"/><g class="yaxislayer-below"/><g class="overaxes-below"/><g class="overplot"><g class="xy" transform="translate(63,46)" clip-path="url(#clip33637fxyplot)"><g class="scatterlayer mlayer"><g class="trace scatter tracef701cbf4-0adb-4d8f-8089-18fcbdad9c15" style="stroke-miterlimit: 2;"><g class="fills"><g><path class="js-fill" d="M607,1L0,1L0,1L0.46,1L0.91,10.84L1.37,18.32L1.83,1L2.74,1L3.2,24.89L3.65,60.74L4.11,39.07L4.57,1L5.02,1L5.48,35.09L6.39,1L6.85,2.02L7.76,1L8.22,13.74L8.68,1L9.13,21.01L10.5,63.48L10.96,48.99L11.42,44.1L11.88,54.32L12.79,47.63L13.25,66.26L13.7,67.63L14.16,60.61L14.62,61.85L15.07,49.62L15.99,53.52L16.44,51L19.18,1L19.64,16.26L20.1,25.67L20.55,3.7L21.47,31.21L21.92,19.48L22.38,28.26L22.84,26.53L23.29,31.23L23.75,20.76L24.21,34.45L24.66,48.11L25.12,32.1L25.58,53.36L26.03,20.04L27.86,13.4L28.32,1L28.77,1.63L29.23,1L29.69,6.93L30.14,7.74L30.6,30.57L31.51,7.27L31.97,34.25L32.43,8.7L32.88,12.69L33.34,17.35L34.71,22.09L35.17,44.1L36.08,15.49L36.54,69.28L37.45,36.27L37.91,60.89L38.37,64.96L38.82,64.31L39.28,90.4L39.74,94.92L40.19,123.52L40.65,151.01L41.11,149.73L41.56,147.53L42.93,86.93L43.39,88.4L43.85,116.08L44.3,114.83L44.76,115.12L45.67,112.51L46.13,83.35L47.04,83.77L47.5,81.24L47.96,81.14L48.41,112.01L49.33,110.75L49.78,112.4L50.24,110.75L50.7,111.92L51.15,114.13L51.61,57.24L52.07,56.07L52.52,84.23L54.35,1L54.81,1L56.18,54.26L56.64,53.68L57.55,24.63L58.01,23.65L58.92,53.1L59.38,53.17L60.29,1L60.75,1.71L61.2,2.65L61.66,1L62.12,1.76L62.57,1L63.03,1L63.49,12.74L64.86,37.22L65.31,31.72L66.23,24.61L66.68,27.37L67.14,26.96L67.6,27.66L68.05,26.01L68.51,32.07L68.97,33.45L69.42,31.81L69.88,35.69L70.34,32.65L70.79,32.26L71.25,34.45L71.71,27.41L72.16,30.5L72.62,32.12L73.08,44.44L73.53,84.07L73.99,82.6L74.45,49.27L74.9,48.78L75.36,53.06L75.82,32.95L76.27,44.82L76.73,41.31L78.1,57.21L78.56,40.4L79.47,25.4L79.93,36.68L80.39,40.01L80.84,39.72L81.3,40.62L82.21,43.71L82.67,37.73L83.13,10.38L83.58,12.98L84.04,14.69L84.5,12.56L84.95,15.51L85.41,15.86L85.87,9.85L86.32,23.1L86.78,13.94L87.24,14.88L87.69,20.34L88.61,22.08L89.06,54.17L89.98,61.53L90.43,53.48L91.8,39.52L92.26,42.77L93.63,45.79L94.09,45.29L94.54,43.64L95,45.13L96.37,17.33L96.83,27.44L97.28,26.69L97.74,18.45L98.65,27.09L99.11,25.85L99.57,9.95L100.94,1L101.4,10.02L101.85,1L102.31,10.85L102.77,11.2L103.22,34.42L104.14,35.7L104.59,39.05L105.96,32.42L106.42,41.58L106.88,43.11L107.33,39.55L109.16,56.25L109.62,53.01L110.07,55.33L110.53,62.99L110.99,63.15L111.44,58.36L111.9,47.64L112.36,57.65L112.81,54.97L113.27,44.7L113.73,55.47L114.18,45.82L114.64,52.04L115.1,47.2L116.01,30.96L116.47,39.93L117.38,43.65L117.84,18.34L118.29,8.31L118.75,18.06L119.21,82.32L119.66,60.45L120.12,33.25L120.58,5.8L121.03,49.99L121.49,47.06L121.95,18.51L122.86,64.56L123.32,71.81L123.78,103.51L124.23,100.59L124.69,106.68L125.15,107.28L125.6,105.48L126.06,100.48L126.52,125.42L127.89,142.84L128.34,141.15L128.8,148.63L129.26,143.66L129.71,143.32L130.17,144.03L130.63,144.99L131.08,129.01L131.54,125.12L132,125.2L132.45,125.32L134.28,103.4L134.74,73.85L135.19,89.66L135.65,81.4L136.11,89.65L137.02,99.96L137.48,98.89L137.93,98.99L138.85,119.9L139.3,98.29L139.76,101.44L140.22,97.15L141.13,102.43L141.59,94.97L143.41,84.2L143.87,130.28L144.33,107.63L144.78,112.19L145.24,103.84L146.61,130.88L147.07,130.18L147.53,132.73L147.98,128.5L148.44,138.04L148.9,125.26L149.35,126.13L149.81,128.81L150.72,134.18L151.18,125.94L152.09,132.15L152.55,124.55L153.01,128.93L153.46,143.29L154.83,110.23L155.29,105.66L155.75,109L156.2,98.32L157.12,91.1L157.57,102.8L158.94,90.4L159.4,68.45L159.86,58.77L160.31,61.95L160.77,57.89L161.23,53.49L161.68,56.91L162.14,57.65L162.6,52.85L163.97,58.26L164.42,53.85L164.88,54.23L165.34,56.11L166.25,48.3L166.71,54.45L167.16,54.7L167.62,41.38L168.08,55.96L168.53,46.57L168.99,59.47L169.45,78.99L169.91,76.87L170.36,70.06L171.28,80.81L171.73,70.8L172.19,72.31L172.65,70.18L173.1,64.71L173.56,67.51L174.02,68.76L174.47,67.32L174.93,68.62L175.39,67.27L175.84,68.57L176.3,54.36L176.76,58.93L177.21,88.63L177.67,82.44L178.13,96.1L178.58,97.33L179.04,94.3L179.5,100.75L179.95,97.31L180.41,91.97L181.32,126.04L181.78,83.99L182.24,88.54L182.69,81.4L183.61,89.01L184.06,82.68L184.52,85.45L184.98,83.15L185.43,76.65L185.89,77.41L186.35,79.34L187.26,82.48L187.72,80.54L189.09,92.42L189.54,74.52L190,74.61L190.46,70.69L191.37,69.31L191.83,70.38L192.29,69.05L192.74,71.79L193.2,72.33L193.66,71.11L194.11,74.69L194.57,73.4L195.03,88.07L195.48,85.74L195.94,87.4L196.85,85.42L197.31,87.14L197.77,84.09L198.22,85.17L198.68,83.51L199.59,63.25L200.05,65.73L200.96,85.96L201.42,83.75L202.33,87.63L202.79,105.59L203.25,105.63L203.7,106.69L204.16,92.78L204.62,105.12L205.07,89.82L205.53,91L205.99,92.65L206.44,92.64L206.9,89.53L207.36,97.27L207.81,95.95L208.27,93.76L209.64,90.54L210.1,91.63L210.55,97.23L211.01,91.21L211.47,87.36L211.92,57.77L212.38,58.49L212.84,63.06L213.75,59.42L214.21,79.07L215.58,81.8L216.04,76.29L216.49,80.41L216.95,72.43L218.32,81.46L218.78,80.98L219.23,82.45L220.15,94.36L220.6,91.33L221.52,91.28L221.97,89.94L222.43,98.73L222.89,97.09L223.34,97.67L223.8,76.18L224.26,82.27L224.71,80.07L225.63,86.71L226.08,84.8L226.54,85.69L227.45,80.51L227.91,84.46L228.37,72.93L228.82,78L229.28,79.86L229.74,79.88L230.19,75.74L230.65,77.6L231.11,90.6L232.48,89.48L232.93,92.24L233.39,94.2L233.85,90.92L235.22,103.37L235.67,98.27L236.13,105.62L236.59,100.33L237.96,108.07L238.42,103.19L239.33,116.09L239.79,112.48L240.24,109.25L240.7,111.96L241.16,107.64L241.61,110.48L242.07,112.82L242.53,133.62L242.98,1L243.9,1L244.35,1.79L244.81,16.04L245.27,7.24L245.72,6.93L246.64,28.2L247.09,26L247.55,34.75L248.01,28.42L248.92,24.31L249.38,30.91L250.29,33.49L250.75,42.35L252.12,22.99L252.57,21.41L253.03,16.42L253.49,19.01L253.94,19.25L254.4,3.88L254.86,6.49L255.31,7.87L255.77,2.22L256.23,26.58L257.14,39.1L257.6,45.03L258.51,79.7L258.97,53.28L260.34,43.33L260.8,32.36L261.25,31.47L261.71,23.38L262.17,15.79L262.62,20.36L263.08,15.88L263.99,20.17L264.45,17.91L265.36,1L265.82,1L266.28,9.63L266.73,1.5L268.1,27.62L268.56,23.5L269.02,1L269.47,4.99L269.93,2.17L270.84,1L271.3,1L271.76,1L272.21,15.32L273.13,1L273.58,2.65L274.04,6.08L274.5,1L275.87,1L276.32,5.77L276.78,1L277.24,15.49L277.69,4.78L278.15,8.98L278.61,5.35L279.52,19.51L279.98,14.44L280.43,14.09L280.89,20.79L281.35,8.38L281.81,21.52L282.72,31.08L283.18,30.92L283.63,27.43L284.09,15.16L284.55,25.7L285.92,13.13L286.37,22.44L286.83,11.53L287.29,24.69L287.74,27.1L288.2,16.94L289.57,25.06L290.03,22.69L290.48,19.49L290.94,37.07L291.85,27.25L292.31,6.21L292.77,1L293.22,16.5L293.68,6.93L294.14,14.1L295.51,30.99L295.96,24.92L297.33,18.14L297.79,6.26L298.25,1L298.7,2.55L299.16,3.44L299.62,1L300.07,11.77L300.53,17.42L300.99,15.26L301.44,5.55L302.81,12.46L303.27,11.82L303.73,1L305.1,11.33L305.56,1L306.93,18.97L307.38,22.25L307.84,18.89L308.3,23.96L308.75,24.67L309.21,19.46L309.67,26.15L310.12,21.72L311.04,20.8L311.49,23.51L311.95,24.86L312.41,31.97L314.23,44.59L314.69,27.38L315.15,28.22L315.6,44.48L316.52,37.42L316.97,45.95L317.43,45.35L317.89,53.93L318.34,36.22L318.8,49.47L319.26,50.45L319.71,43.42L321.54,62.99L322,42.25L322.91,56.25L323.37,49.43L323.82,45.63L324.28,47.99L324.74,32.75L325.19,42.67L325.65,39.94L326.11,44.07L326.57,43.56L327.02,38.11L327.48,43.63L327.94,37.58L328.39,41.25L328.85,39.24L329.31,40.14L329.76,39.86L330.22,34.69L330.68,45.41L331.13,36.17L332.96,54.33L333.42,45.15L333.87,65.03L334.33,57.73L334.79,58.18L335.24,56.89L335.7,68.74L336.16,55.6L336.61,76.77L337.07,76.44L337.53,72.91L337.98,74.5L338.44,70.83L338.9,79.35L339.35,69.93L339.81,70.92L340.27,80.35L340.72,92.01L341.18,89.98L341.64,91.25L342.55,105.32L343.01,95.07L343.92,104.7L344.38,96.21L345.75,71.26L346.2,79.93L347.12,78.7L347.57,73.88L348.03,73.63L348.49,62.66L349.4,76.07L349.86,71.78L350.32,76.81L350.77,74.27L351.23,65.93L352.14,81.62L352.6,46.95L353.51,32.42L353.97,34.15L354.88,15.55L355.34,18.43L356.71,1L357.17,5.32L357.62,6.83L358.08,11.34L358.54,11.07L358.99,4.91L359.91,1L360.36,1.11L360.82,5L361.73,1L362.19,1L363.1,19.94L363.56,5.73L364.02,38.78L364.47,1L364.93,1L365.39,21.07L365.84,10.58L366.3,16.07L366.76,17.57L367.67,35.11L368.13,32.46L368.58,28.05L370.41,112.57L370.87,81L371.78,60.82L372.24,70.91L372.7,73.87L373.15,60.25L373.61,56.91L374.07,39.14L374.52,52.31L374.98,46.6L375.44,54.01L375.89,44.46L376.35,53.34L377.72,5.57L378.18,1.46L379.09,11.12L379.55,1L380.46,1L380.92,8.22L381.83,1L382.29,1L382.74,13.53L383.2,1L384.11,1L384.57,1.94L385.48,1L385.94,7.62L386.85,39.7L387.31,31.2L388.68,21.4L389.14,26.66L390.51,4.18L390.96,13.27L391.42,11.62L391.88,1L392.79,1.65L393.25,21.02L393.71,17.81L394.16,18.89L394.62,33.33L395.53,12.92L395.99,19.18L396.45,18.69L396.9,34.03L397.36,23.8L397.82,17.42L398.27,23.93L398.73,18.78L399.19,32.05L399.64,32.89L400.1,36.11L401.01,45.16L401.47,30.95L401.93,27.36L402.38,34.82L403.3,32.54L403.75,21.4L404.67,11.83L405.12,35.72L406.04,1L406.49,17.63L406.95,1L407.41,6.81L407.86,7.67L409.23,1L409.69,1.25L410.6,25.74L411.06,1L411.52,1L411.97,10.04L413.8,1L414.26,10.91L416.09,31.75L416.54,30.28L417.46,21.01L417.91,23.99L418.37,18.03L418.83,19.5L419.28,16.29L419.74,16.62L420.2,26.33L420.65,21.16L421.11,25.1L421.57,10.23L422.02,14.72L422.48,16.18L422.94,19.42L423.39,6.67L424.31,42.35L424.76,33.1L425.22,23.87L425.68,25.71L426.13,22.31L426.59,24.8L427.05,20.69L427.5,24.5L427.96,35.75L428.87,19.97L429.33,23.63L429.79,28.82L430.24,1L431.61,22.23L432.07,8.12L432.53,6.82L432.98,11.23L434.35,1.42L434.81,14.22L435.72,1L436.18,2.26L436.64,1.83L439.38,38.64L439.84,17.99L440.29,25.86L440.75,2.64L441.21,9.17L441.66,3.36L442.12,3.5L442.58,1L443.03,14.05L443.49,1L444.4,25.06L444.86,13.07L445.32,1.98L445.77,8.26L446.23,1L447.14,15.58L447.6,6.62L448.97,1L449.43,5.84L449.88,1L450.34,16.44L450.8,11.79L451.25,25L451.71,26.2L452.17,24.39L453.08,58.6L453.54,57.64L453.99,58.27L454.45,37.44L454.91,55.49L455.82,42.84L456.28,59.51L456.73,45.75L457.19,50.27L457.65,49.21L458.1,52.53L458.56,37.66L459.02,43.96L459.47,23.56L459.93,19.64L460.39,21.69L460.84,54.01L461.3,53.46L461.76,46.61L463.13,33.03L463.59,22.31L464.96,34.84L465.41,23.93L465.87,32.67L466.33,24.57L466.78,22.39L467.24,27.21L467.7,29.76L468.15,23.17L469.07,32.35L469.52,29.15L469.98,12.77L470.44,18.18L470.89,18.35L471.35,14L471.81,14.42L472.26,15.63L472.72,34.48L473.18,6.56L473.63,2.88L474.09,36.2L474.55,47.45L475,41.13L475.46,35.17L475.92,39.07L476.37,53.84L476.83,64.38L477.29,62.31L477.74,60.11L478.2,79.59L478.66,69.09L479.11,65.89L480.03,38.61L480.48,40.02L480.94,54.45L481.4,53.1L481.85,21.93L482.31,41.92L482.77,41.55L483.22,15.19L484.14,17.5L484.6,32.68L485.51,68.46L485.97,213.24L486.88,260.3L487.34,247.53L487.79,240.55L488.25,253.36L489.62,52.12L490.08,64.92L490.99,89.25L491.45,63.44L492.82,114.97L493.27,109.98L493.73,105.75L494.19,87.69L494.64,67.36L495.1,73.24L495.56,65.47L496.93,43.54L497.38,45.75L498.3,11.24L498.75,26.89L499.21,23.35L499.67,31.4L500.12,25.81L500.58,36.58L501.04,34.41L501.49,21.62L501.95,9.61L502.41,30.9L503.32,1L503.78,2.67L504.23,12.4L504.69,1L506.06,38.2L506.52,12.39L506.98,9.87L507.43,32.3L508.8,7.78L509.26,15.86L510.17,1L510.63,12.71L511.09,1L511.54,14.43L512,1L512.46,5.28L512.91,6.86L513.37,7.03L513.83,9.8L515.2,1L515.65,1L516.11,19.37L516.57,1L517.02,12.43L517.48,1L518.39,1L518.85,14.41L519.31,15.65L519.76,12.43L520.22,16.42L520.68,5.42L521.13,7.13L521.59,18.07L522.05,38.27L522.5,11.55L522.96,19.1L523.42,18.41L523.87,39.58L524.33,17.96L524.79,26.02L525.24,29.66L526.16,35.65L526.61,32.44L528.44,74.13L528.9,63.01L529.81,91.48L530.27,80.54L531.18,48.53L531.64,66.22L532.1,70.07L532.55,65.1L533.01,64.99L533.47,72.39L534.38,61.2L534.84,103.78L536.21,75.93L536.66,129.01L537.12,143.91L537.58,113.43L538.03,137.21L538.49,100.29L538.95,94.38L539.4,99.6L540.32,118.85L540.77,88.07L541.23,90.43L541.69,97.14L542.14,86.57L542.6,110.05L543.06,108.96L543.51,118.08L544.43,95.41L544.88,96.52L545.34,103.93L545.8,86.92L546.25,112.1L546.71,110.64L547.17,92L547.62,98.13L548.08,91.07L548.54,89.62L548.99,93.94L549.45,72.22L549.91,72.29L550.36,91.1L550.82,62.81L551.28,96.81L552.19,85.45L552.65,94.43L553.11,113.72L553.56,87.47L554.02,108.15L554.48,102.14L554.93,103.14L555.39,86.25L555.85,107.38L556.76,78.11L557.22,95.14L557.67,87.25L558.13,89.18L558.59,64.65L559.04,66.74L559.5,55.97L559.96,53.68L560.41,69.45L561.33,44.78L561.78,53.84L562.24,82.96L562.7,51.86L563.15,69.58L563.61,43.33L564.52,36.32L564.98,66.82L565.44,75.69L565.89,48.22L566.35,54.54L566.81,21.03L567.26,35.48L567.72,11.81L568.18,2.71L568.63,18.34L569.09,36.98L569.55,27.78L570,6.08L570.92,47.45L571.37,9.83L571.83,3.31L572.29,14.49L572.74,28.31L573.2,17.46L573.66,1L574.12,1.7L574.57,3.2L575.03,1L575.49,10.92L575.94,12.18L576.4,21.63L577.31,31.77L577.77,9.39L578.68,12.18L579.14,35.29L579.6,5.07L580.05,16L580.51,22.39L581.88,7.37L582.34,1L582.79,8.13L583.25,4.87L583.71,1L584.16,9.09L584.62,1L585.08,12.02L585.53,4.51L585.99,3.1L586.45,25.07L587.36,1L587.82,6.86L588.27,1L588.73,15.19L589.64,1L590.1,20.92L590.56,39.31L591.01,14.51L591.47,10.29L591.93,22.37L593.75,6.87L594.21,9.41L595.12,1L595.58,7.9L596.5,1L596.95,9.39L597.41,1L597.87,6.6L598.32,11.19L598.78,5.15L599.24,19.52L599.69,1L601.06,25.45L601.52,18.32L601.98,9.24L602.43,12.27L602.89,14.34L603.8,22.98L604.26,12.15L605.17,22.47L605.63,18.46L606.09,20.73L606.54,7.38L607,1" style="fill: rgb(220, 57, 18); fill-opacity: 0.3; stroke-width: 0;"/></g></g><g class="errorbars"/><g class="lines"><path class="js-line" d="M0,1L0.46,1L0.91,10.84L1.37,18.32L1.83,1L2.74,1L3.2,24.89L3.65,60.74L4.11,39.07L4.57,1L5.02,1L5.48,35.09L6.39,1L6.85,2.02L7.76,1L8.22,13.74L8.68,1L9.13,21.01L10.5,63.48L10.96,48.99L11.42,44.1L11.88,54.32L12.79,47.63L13.25,66.26L13.7,67.63L14.16,60.61L14.62,61.85L15.07,49.62L15.99,53.52L16.44,51L19.18,1L19.64,16.26L20.1,25.67L20.55,3.7L21.47,31.21L21.92,19.48L22.38,28.26L22.84,26.53L23.29,31.23L23.75,20.76L24.21,34.45L24.66,48.11L25.12,32.1L25.58,53.36L26.03,20.04L27.86,13.4L28.32,1L28.77,1.63L29.23,1L29.69,6.93L30.14,7.74L30.6,30.57L31.51,7.27L31.97,34.25L32.43,8.7L32.88,12.69L33.34,17.35L34.71,22.09L35.17,44.1L36.08,15.49L36.54,69.28L37.45,36.27L37.91,60.89L38.37,64.96L38.82,64.31L39.28,90.4L39.74,94.92L40.19,123.52L40.65,151.01L41.11,149.73L41.56,147.53L42.93,86.93L43.39,88.4L43.85,116.08L44.3,114.83L44.76,115.12L45.67,112.51L46.13,83.35L47.04,83.77L47.5,81.24L47.96,81.14L48.41,112.01L49.33,110.75L49.78,112.4L50.24,110.75L50.7,111.92L51.15,114.13L51.61,57.24L52.07,56.07L52.52,84.23L54.35,1L54.81,1L56.18,54.26L56.64,53.68L57.55,24.63L58.01,23.65L58.92,53.1L59.38,53.17L60.29,1L60.75,1.71L61.2,2.65L61.66,1L62.12,1.76L62.57,1L63.03,1L63.49,12.74L64.86,37.22L65.31,31.72L66.23,24.61L66.68,27.37L67.14,26.96L67.6,27.66L68.05,26.01L68.51,32.07L68.97,33.45L69.42,31.81L69.88,35.69L70.34,32.65L70.79,32.26L71.25,34.45L71.71,27.41L72.16,30.5L72.62,32.12L73.08,44.44L73.53,84.07L73.99,82.6L74.45,49.27L74.9,48.78L75.36,53.06L75.82,32.95L76.27,44.82L76.73,41.31L78.1,57.21L78.56,40.4L79.47,25.4L79.93,36.68L80.39,40.01L80.84,39.72L81.3,40.62L82.21,43.71L82.67,37.73L83.13,10.38L83.58,12.98L84.04,14.69L84.5,12.56L84.95,15.51L85.41,15.86L85.87,9.85L86.32,23.1L86.78,13.94L87.24,14.88L87.69,20.34L88.61,22.08L89.06,54.17L89.98,61.53L90.43,53.48L91.8,39.52L92.26,42.77L93.63,45.79L94.09,45.29L94.54,43.64L95,45.13L96.37,17.33L96.83,27.44L97.28,26.69L97.74,18.45L98.65,27.09L99.11,25.85L99.57,9.95L100.94,1L101.4,10.02L101.85,1L102.31,10.85L102.77,11.2L103.22,34.42L104.14,35.7L104.59,39.05L105.96,32.42L106.42,41.58L106.88,43.11L107.33,39.55L109.16,56.25L109.62,53.01L110.07,55.33L110.53,62.99L110.99,63.15L111.44,58.36L111.9,47.64L112.36,57.65L112.81,54.97L113.27,44.7L113.73,55.47L114.18,45.82L114.64,52.04L115.1,47.2L116.01,30.96L116.47,39.93L117.38,43.65L117.84,18.34L118.29,8.31L118.75,18.06L119.21,82.32L119.66,60.45L120.12,33.25L120.58,5.8L121.03,49.99L121.49,47.06L121.95,18.51L122.86,64.56L123.32,71.81L123.78,103.51L124.23,100.59L124.69,106.68L125.15,107.28L125.6,105.48L126.06,100.48L126.52,125.42L127.89,142.84L128.34,141.15L128.8,148.63L129.26,143.66L129.71,143.32L130.17,144.03L130.63,144.99L131.08,129.01L131.54,125.12L132,125.2L132.45,125.32L134.28,103.4L134.74,73.85L135.19,89.66L135.65,81.4L136.11,89.65L137.02,99.96L137.48,98.89L137.93,98.99L138.85,119.9L139.3,98.29L139.76,101.44L140.22,97.15L141.13,102.43L141.59,94.97L143.41,84.2L143.87,130.28L144.33,107.63L144.78,112.19L145.24,103.84L146.61,130.88L147.07,130.18L147.53,132.73L147.98,128.5L148.44,138.04L148.9,125.26L149.35,126.13L149.81,128.81L150.72,134.18L151.18,125.94L152.09,132.15L152.55,124.55L153.01,128.93L153.46,143.29L154.83,110.23L155.29,105.66L155.75,109L156.2,98.32L157.12,91.1L157.57,102.8L158.94,90.4L159.4,68.45L159.86,58.77L160.31,61.95L160.77,57.89L161.23,53.49L161.68,56.91L162.14,57.65L162.6,52.85L163.97,58.26L164.42,53.85L164.88,54.23L165.34,56.11L166.25,48.3L166.71,54.45L167.16,54.7L167.62,41.38L168.08,55.96L168.53,46.57L168.99,59.47L169.45,78.99L169.91,76.87L170.36,70.06L171.28,80.81L171.73,70.8L172.19,72.31L172.65,70.18L173.1,64.71L173.56,67.51L174.02,68.76L174.47,67.32L174.93,68.62L175.39,67.27L175.84,68.57L176.3,54.36L176.76,58.93L177.21,88.63L177.67,82.44L178.13,96.1L178.58,97.33L179.04,94.3L179.5,100.75L179.95,97.31L180.41,91.97L181.32,126.04L181.78,83.99L182.24,88.54L182.69,81.4L183.61,89.01L184.06,82.68L184.52,85.45L184.98,83.15L185.43,76.65L185.89,77.41L186.35,79.34L187.26,82.48L187.72,80.54L189.09,92.42L189.54,74.52L190,74.61L190.46,70.69L191.37,69.31L191.83,70.38L192.29,69.05L192.74,71.79L193.2,72.33L193.66,71.11L194.11,74.69L194.57,73.4L195.03,88.07L195.48,85.74L195.94,87.4L196.85,85.42L197.31,87.14L197.77,84.09L198.22,85.17L198.68,83.51L199.59,63.25L200.05,65.73L200.96,85.96L201.42,83.75L202.33,87.63L202.79,105.59L203.25,105.63L203.7,106.69L204.16,92.78L204.62,105.12L205.07,89.82L205.53,91L205.99,92.65L206.44,92.64L206.9,89.53L207.36,97.27L207.81,95.95L208.27,93.76L209.64,90.54L210.1,91.63L210.55,97.23L211.01,91.21L211.47,87.36L211.92,57.77L212.38,58.49L212.84,63.06L213.75,59.42L214.21,79.07L215.58,81.8L216.04,76.29L216.49,80.41L216.95,72.43L218.32,81.46L218.78,80.98L219.23,82.45L220.15,94.36L220.6,91.33L221.52,91.28L221.97,89.94L222.43,98.73L222.89,97.09L223.34,97.67L223.8,76.18L224.26,82.27L224.71,80.07L225.63,86.71L226.08,84.8L226.54,85.69L227.45,80.51L227.91,84.46L228.37,72.93L228.82,78L229.28,79.86L229.74,79.88L230.19,75.74L230.65,77.6L231.11,90.6L232.48,89.48L232.93,92.24L233.39,94.2L233.85,90.92L235.22,103.37L235.67,98.27L236.13,105.62L236.59,100.33L237.96,108.07L238.42,103.19L239.33,116.09L239.79,112.48L240.24,109.25L240.7,111.96L241.16,107.64L241.61,110.48L242.07,112.82L242.53,133.62L242.98,1L243.9,1L244.35,1.79L244.81,16.04L245.27,7.24L245.72,6.93L246.64,28.2L247.09,26L247.55,34.75L248.01,28.42L248.92,24.31L249.38,30.91L250.29,33.49L250.75,42.35L252.12,22.99L252.57,21.41L253.03,16.42L253.49,19.01L253.94,19.25L254.4,3.88L254.86,6.49L255.31,7.87L255.77,2.22L256.23,26.58L257.14,39.1L257.6,45.03L258.51,79.7L258.97,53.28L260.34,43.33L260.8,32.36L261.25,31.47L261.71,23.38L262.17,15.79L262.62,20.36L263.08,15.88L263.99,20.17L264.45,17.91L265.36,1L265.82,1L266.28,9.63L266.73,1.5L268.1,27.62L268.56,23.5L269.02,1L269.47,4.99L269.93,2.17L270.84,1L271.3,1L271.76,1L272.21,15.32L273.13,1L273.58,2.65L274.04,6.08L274.5,1L275.87,1L276.32,5.77L276.78,1L277.24,15.49L277.69,4.78L278.15,8.98L278.61,5.35L279.52,19.51L279.98,14.44L280.43,14.09L280.89,20.79L281.35,8.38L281.81,21.52L282.72,31.08L283.18,30.92L283.63,27.43L284.09,15.16L284.55,25.7L285.92,13.13L286.37,22.44L286.83,11.53L287.29,24.69L287.74,27.1L288.2,16.94L289.57,25.06L290.03,22.69L290.48,19.49L290.94,37.07L291.85,27.25L292.31,6.21L292.77,1L293.22,16.5L293.68,6.93L294.14,14.1L295.51,30.99L295.96,24.92L297.33,18.14L297.79,6.26L298.25,1L298.7,2.55L299.16,3.44L299.62,1L300.07,11.77L300.53,17.42L300.99,15.26L301.44,5.55L302.81,12.46L303.27,11.82L303.73,1L305.1,11.33L305.56,1L306.93,18.97L307.38,22.25L307.84,18.89L308.3,23.96L308.75,24.67L309.21,19.46L309.67,26.15L310.12,21.72L311.04,20.8L311.49,23.51L311.95,24.86L312.41,31.97L314.23,44.59L314.69,27.38L315.15,28.22L315.6,44.48L316.52,37.42L316.97,45.95L317.43,45.35L317.89,53.93L318.34,36.22L318.8,49.47L319.26,50.45L319.71,43.42L321.54,62.99L322,42.25L322.91,56.25L323.37,49.43L323.82,45.63L324.28,47.99L324.74,32.75L325.19,42.67L325.65,39.94L326.11,44.07L326.57,43.56L327.02,38.11L327.48,43.63L327.94,37.58L328.39,41.25L328.85,39.24L329.31,40.14L329.76,39.86L330.22,34.69L330.68,45.41L331.13,36.17L332.96,54.33L333.42,45.15L333.87,65.03L334.33,57.73L334.79,58.18L335.24,56.89L335.7,68.74L336.16,55.6L336.61,76.77L337.07,76.44L337.53,72.91L337.98,74.5L338.44,70.83L338.9,79.35L339.35,69.93L339.81,70.92L340.27,80.35L340.72,92.01L341.18,89.98L341.64,91.25L342.55,105.32L343.01,95.07L343.92,104.7L344.38,96.21L345.75,71.26L346.2,79.93L347.12,78.7L347.57,73.88L348.03,73.63L348.49,62.66L349.4,76.07L349.86,71.78L350.32,76.81L350.77,74.27L351.23,65.93L352.14,81.62L352.6,46.95L353.51,32.42L353.97,34.15L354.88,15.55L355.34,18.43L356.71,1L357.17,5.32L357.62,6.83L358.08,11.34L358.54,11.07L358.99,4.91L359.91,1L360.36,1.11L360.82,5L361.73,1L362.19,1L363.1,19.94L363.56,5.73L364.02,38.78L364.47,1L364.93,1L365.39,21.07L365.84,10.58L366.3,16.07L366.76,17.57L367.67,35.11L368.13,32.46L368.58,28.05L370.41,112.57L370.87,81L371.78,60.82L372.24,70.91L372.7,73.87L373.15,60.25L373.61,56.91L374.07,39.14L374.52,52.31L374.98,46.6L375.44,54.01L375.89,44.46L376.35,53.34L377.72,5.57L378.18,1.46L379.09,11.12L379.55,1L380.46,1L380.92,8.22L381.83,1L382.29,1L382.74,13.53L383.2,1L384.11,1L384.57,1.94L385.48,1L385.94,7.62L386.85,39.7L387.31,31.2L388.68,21.4L389.14,26.66L390.51,4.18L390.96,13.27L391.42,11.62L391.88,1L392.79,1.65L393.25,21.02L393.71,17.81L394.16,18.89L394.62,33.33L395.53,12.92L395.99,19.18L396.45,18.69L396.9,34.03L397.36,23.8L397.82,17.42L398.27,23.93L398.73,18.78L399.19,32.05L399.64,32.89L400.1,36.11L401.01,45.16L401.47,30.95L401.93,27.36L402.38,34.82L403.3,32.54L403.75,21.4L404.67,11.83L405.12,35.72L406.04,1L406.49,17.63L406.95,1L407.41,6.81L407.86,7.67L409.23,1L409.69,1.25L410.6,25.74L411.06,1L411.52,1L411.97,10.04L413.8,1L414.26,10.91L416.09,31.75L416.54,30.28L417.46,21.01L417.91,23.99L418.37,18.03L418.83,19.5L419.28,16.29L419.74,16.62L420.2,26.33L420.65,21.16L421.11,25.1L421.57,10.23L422.02,14.72L422.48,16.18L422.94,19.42L423.39,6.67L424.31,42.35L424.76,33.1L425.22,23.87L425.68,25.71L426.13,22.31L426.59,24.8L427.05,20.69L427.5,24.5L427.96,35.75L428.87,19.97L429.33,23.63L429.79,28.82L430.24,1L431.61,22.23L432.07,8.12L432.53,6.82L432.98,11.23L434.35,1.42L434.81,14.22L435.72,1L436.18,2.26L436.64,1.83L439.38,38.64L439.84,17.99L440.29,25.86L440.75,2.64L441.21,9.17L441.66,3.36L442.12,3.5L442.58,1L443.03,14.05L443.49,1L444.4,25.06L444.86,13.07L445.32,1.98L445.77,8.26L446.23,1L447.14,15.58L447.6,6.62L448.97,1L449.43,5.84L449.88,1L450.34,16.44L450.8,11.79L451.25,25L451.71,26.2L452.17,24.39L453.08,58.6L453.54,57.64L453.99,58.27L454.45,37.44L454.91,55.49L455.82,42.84L456.28,59.51L456.73,45.75L457.19,50.27L457.65,49.21L458.1,52.53L458.56,37.66L459.02,43.96L459.47,23.56L459.93,19.64L460.39,21.69L460.84,54.01L461.3,53.46L461.76,46.61L463.13,33.03L463.59,22.31L464.96,34.84L465.41,23.93L465.87,32.67L466.33,24.57L466.78,22.39L467.24,27.21L467.7,29.76L468.15,23.17L469.07,32.35L469.52,29.15L469.98,12.77L470.44,18.18L470.89,18.35L471.35,14L471.81,14.42L472.26,15.63L472.72,34.48L473.18,6.56L473.63,2.88L474.09,36.2L474.55,47.45L475,41.13L475.46,35.17L475.92,39.07L476.37,53.84L476.83,64.38L477.29,62.31L477.74,60.11L478.2,79.59L478.66,69.09L479.11,65.89L480.03,38.61L480.48,40.02L480.94,54.45L481.4,53.1L481.85,21.93L482.31,41.92L482.77,41.55L483.22,15.19L484.14,17.5L484.6,32.68L485.51,68.46L485.97,213.24L486.88,260.3L487.34,247.53L487.79,240.55L488.25,253.36L489.62,52.12L490.08,64.92L490.99,89.25L491.45,63.44L492.82,114.97L493.27,109.98L493.73,105.75L494.19,87.69L494.64,67.36L495.1,73.24L495.56,65.47L496.93,43.54L497.38,45.75L498.3,11.24L498.75,26.89L499.21,23.35L499.67,31.4L500.12,25.81L500.58,36.58L501.04,34.41L501.49,21.62L501.95,9.61L502.41,30.9L503.32,1L503.78,2.67L504.23,12.4L504.69,1L506.06,38.2L506.52,12.39L506.98,9.87L507.43,32.3L508.8,7.78L509.26,15.86L510.17,1L510.63,12.71L511.09,1L511.54,14.43L512,1L512.46,5.28L512.91,6.86L513.37,7.03L513.83,9.8L515.2,1L515.65,1L516.11,19.37L516.57,1L517.02,12.43L517.48,1L518.39,1L518.85,14.41L519.31,15.65L519.76,12.43L520.22,16.42L520.68,5.42L521.13,7.13L521.59,18.07L522.05,38.27L522.5,11.55L522.96,19.1L523.42,18.41L523.87,39.58L524.33,17.96L524.79,26.02L525.24,29.66L526.16,35.65L526.61,32.44L528.44,74.13L528.9,63.01L529.81,91.48L530.27,80.54L531.18,48.53L531.64,66.22L532.1,70.07L532.55,65.1L533.01,64.99L533.47,72.39L534.38,61.2L534.84,103.78L536.21,75.93L536.66,129.01L537.12,143.91L537.58,113.43L538.03,137.21L538.49,100.29L538.95,94.38L539.4,99.6L540.32,118.85L540.77,88.07L541.23,90.43L541.69,97.14L542.14,86.57L542.6,110.05L543.06,108.96L543.51,118.08L544.43,95.41L544.88,96.52L545.34,103.93L545.8,86.92L546.25,112.1L546.71,110.64L547.17,92L547.62,98.13L548.08,91.07L548.54,89.62L548.99,93.94L549.45,72.22L549.91,72.29L550.36,91.1L550.82,62.81L551.28,96.81L552.19,85.45L552.65,94.43L553.11,113.72L553.56,87.47L554.02,108.15L554.48,102.14L554.93,103.14L555.39,86.25L555.85,107.38L556.76,78.11L557.22,95.14L557.67,87.25L558.13,89.18L558.59,64.65L559.04,66.74L559.5,55.97L559.96,53.68L560.41,69.45L561.33,44.78L561.78,53.84L562.24,82.96L562.7,51.86L563.15,69.58L563.61,43.33L564.52,36.32L564.98,66.82L565.44,75.69L565.89,48.22L566.35,54.54L566.81,21.03L567.26,35.48L567.72,11.81L568.18,2.71L568.63,18.34L569.09,36.98L569.55,27.78L570,6.08L570.92,47.45L571.37,9.83L571.83,3.31L572.29,14.49L572.74,28.31L573.2,17.46L573.66,1L574.12,1.7L574.57,3.2L575.03,1L575.49,10.92L575.94,12.18L576.4,21.63L577.31,31.77L577.77,9.39L578.68,12.18L579.14,35.29L579.6,5.07L580.05,16L580.51,22.39L581.88,7.37L582.34,1L582.79,8.13L583.25,4.87L583.71,1L584.16,9.09L584.62,1L585.08,12.02L585.53,4.51L585.99,3.1L586.45,25.07L587.36,1L587.82,6.86L588.27,1L588.73,15.19L589.64,1L590.1,20.92L590.56,39.31L591.01,14.51L591.47,10.29L591.93,22.37L593.75,6.87L594.21,9.41L595.12,1L595.58,7.9L596.5,1L596.95,9.39L597.41,1L597.87,6.6L598.32,11.19L598.78,5.15L599.24,19.52L599.69,1L601.06,25.45L601.52,18.32L601.98,9.24L602.43,12.27L602.89,14.34L603.8,22.98L604.26,12.15L605.17,22.47L605.63,18.46L606.09,20.73L606.54,7.38L607,1" style="vector-effect: none; fill: none; stroke: rgb(220, 57, 18); stroke-opacity: 1; stroke-width: 2px; opacity: 1;"/></g><g class="points"/><g class="text"/></g></g></g></g><path class="xlines-above crisp" d="M0,0" style="fill: none;"/><path class="ylines-above crisp" d="M0,0" style="fill: none;"/><g class="overlines-above"/><g class="xaxislayer-above"><g class="xtick"><text text-anchor="middle" x="0" y="333" transform="translate(63,0)" style="font-family: 'Open Sans', verdana, arial, sans-serif; font-size: 12px; fill: rgb(42, 63, 95); fill-opacity: 1; white-space: pre; opacity: 1;">2025-05-26</text></g><g class="xtick"><text text-anchor="middle" x="0" y="333" transform="translate(184.49,0)" style="font-family: 'Open Sans', verdana, arial, sans-serif; font-size: 12px; fill: rgb(42, 63, 95); fill-opacity: 1; white-space: pre; opacity: 1;">2025-05-27</text></g><g class="xtick"><text text-anchor="middle" x="0" y="333" transform="translate(305.98,0)" style="font-family: 'Open Sans', verdana, arial, sans-serif; font-size: 12px; fill: rgb(42, 63, 95); fill-opacity: 1; white-space: pre; opacity: 1;">2025-05-28</text></g><g class="xtick"><text text-anchor="middle" x="0" y="333" transform="translate(427.47,0)" style="font-family: 'Open Sans', verdana, arial, sans-serif; font-size: 12px; fill: rgb(42, 63, 95); fill-opacity: 1; white-space: pre; opacity: 1;">2025-05-29</text></g><g class="xtick"><text text-anchor="middle" x="0" y="333" transform="translate(548.97,0)" style="font-family: 'Open Sans', verdana, arial, sans-serif; font-size: 12px; fill: rgb(42, 63, 95); fill-opacity: 1; white-space: pre; opacity: 1;">2025-06-02</text></g></g><g class="yaxislayer-above"><g class="ytick"><text text-anchor="end" x="62" y="4.199999999999999" transform="translate(0,302.26)" style="font-family: 'Open Sans', verdana, arial, sans-serif; font-size: 12px; fill: rgb(42, 63, 95); fill-opacity: 1; white-space: pre; opacity: 1;">−1.50%</text></g><g class="ytick"><text text-anchor="end" x="62" y="4.199999999999999" style="font-family: 'Open Sans', verdana, arial, sans-serif; font-size: 12px; fill: rgb(42, 63, 95); fill-opacity: 1; white-space: pre; opacity: 1;" transform="translate(0,217.18)">−1.00%</text></g><g class="ytick"><text text-anchor="end" x="62" y="4.199999999999999" style="font-family: 'Open Sans', verdana, arial, sans-serif; font-size: 12px; fill: rgb(42, 63, 95); fill-opacity: 1; white-space: pre; opacity: 1;" transform="translate(0,132.09)">−0.50%</text></g><g class="ytick"><text text-anchor="end" x="62" y="4.199999999999999" style="font-family: 'Open Sans', verdana, arial, sans-serif; font-size: 12px; fill: rgb(42, 63, 95); fill-opacity: 1; white-space: pre; opacity: 1;" transform="translate(0,47)">0.00%</text></g></g><g class="overaxes-above"/></g></g><g class="polarlayer"/><g class="smithlayer"/><g class="ternarylayer"/><g class="geolayer"/><g class="funnelarealayer"/><g class="pielayer"/><g class="iciclelayer"/><g class="treemaplayer"/><g class="sunburstlayer"/><g class="glimages"/><defs id="topdefs-33637f"><g class="clips"/><clipPath id="legend33637f"><rect width="109" height="29" x="0" y="0"/></clipPath></defs><g class="layer-above"><g class="imagelayer"/><g class="shapelayer"><g class="shape-group" data-index="0" clip-path="url(#clip33637fy)"><path data-index="0" fill-rule="evenodd" d="M63,47L670,47" style="opacity: 1; stroke: rgb(128, 128, 128); stroke-opacity: 1; fill: rgb(0, 0, 0); fill-opacity: 0; stroke-dasharray: 9px, 9px; stroke-width: 2px;"/></g></g></g><g class="infolayer"><g class="legend" pointer-events="all" transform="translate(561,11.519999999999996)"><rect class="bg" shape-rendering="crispEdges" style="stroke: rgb(68, 68, 68); stroke-opacity: 1; fill: rgb(255, 255, 255); fill-opacity: 1; stroke-width: 0px;" width="109" height="29" x="0" y="0"/><g class="scrollbox" transform="" clip-path="url(#legend33637f)"><g class="groups"><g class="traces" transform="translate(0,14.5)" style="opacity: 1;"><text class="legendtext" text-anchor="start" x="40" y="4.680000000000001" style="font-family: 'Open Sans', verdana, arial, sans-serif; font-size: 12px; fill: rgb(42, 63, 95); fill-opacity: 1; white-space: pre;">Drawdown</text><g class="layers"><g class="legendfill"><path class="js-fill" d="M5,-2h30v6h-30z" style="stroke-width: 0; fill: rgb(220, 57, 18); fill-opacity: 0.3;"/></g><g class="legendlines"><path class="js-line" d="M5,-2h30" style="fill: none; stroke: rgb(220, 57, 18); stroke-opacity: 1; stroke-width: 2px;"/></g><g class="legendsymbols"><g class="legendpoints"/></g></g><rect class="legendtoggle" x="0" y="-9.5" width="105.8125" height="19" style="fill: rgb(0, 0, 0); fill-opacity: 0;"/></g></g></g><rect class="scrollbar" rx="20" ry="3" width="0" height="0" style="fill: rgb(128, 139, 164); fill-opacity: 1;" x="0" y="0"/></g><g class="g-gtitle"><text class="gtitle" x="35" y="23" text-anchor="start" dy="0em" style="opacity: 1; font-family: 'Open Sans', verdana, arial, sans-serif; font-size: 17px; fill: rgb(42, 63, 95); fill-opacity: 1; white-space: pre;">Portfolio Drawdown</text></g><g class="g-xtitle"/><g class="g-ytitle"/></g></svg>