<svg class="main-svg" xmlns="http://www.w3.org/2000/svg" xmlns:xlink="http://www.w3.org/1999/xlink" width="700" height="350" style="" viewBox="0 0 700 350"><rect x="0" y="0" width="700" height="350" style="fill: rgb(255, 255, 255); fill-opacity: 1;"/><defs id="defs-a214d1"><g class="clips"><clipPath id="clipa214d1xyplot" class="plotclip"><rect width="609" height="274"/></clipPath><clipPath class="axesclip" id="clipa214d1x"><rect x="61" y="0" width="609" height="350"/></clipPath><clipPath class="axesclip" id="clipa214d1y"><rect x="0" y="46" width="700" height="274"/></clipPath><clipPath class="axesclip" id="clipa214d1xy"><rect x="61" y="46" width="609" height="274"/></clipPath></g><g class="gradients"/><g class="patterns"/></defs><g class="bglayer"><rect class="bg" x="61" y="46" width="609" height="274" style="fill: rgb(229, 236, 246); fill-opacity: 1; stroke-width: 0;"/></g><g class="layer-below"><g class="imagelayer"/><g class="shapelayer"/></g><g class="cartesianlayer"><g class="subplot xy"><g class="layer-subplot"><g class="shapelayer"/><g class="imagelayer"/></g><g class="minor-gridlayer"><g class="x"/><g class="y"/></g><g class="gridlayer"><g class="x"><path class="xgrid crisp" transform="translate(182.89,0)" d="M0,46v274" style="stroke: rgb(255, 255, 255); stroke-opacity: 1; stroke-width: 1px;"/><path class="xgrid crisp" transform="translate(304.78,0)" d="M0,46v274" style="stroke: rgb(255, 255, 255); stroke-opacity: 1; stroke-width: 1px;"/><path class="xgrid crisp" transform="translate(426.67,0)" d="M0,46v274" style="stroke: rgb(255, 255, 255); stroke-opacity: 1; stroke-width: 1px;"/><path class="xgrid crisp" transform="translate(548.5699999999999,0)" d="M0,46v274" style="stroke: rgb(255, 255, 255); stroke-opacity: 1; stroke-width: 1px;"/></g><g class="y"><path class="ygrid crisp" transform="translate(0,259.47)" d="M61,0h609" style="stroke: rgb(255, 255, 255); stroke-opacity: 1; stroke-width: 1px;"/><path class="ygrid crisp" transform="translate(0,212.64)" d="M61,0h609" style="stroke: rgb(255, 255, 255); stroke-opacity: 1; stroke-width: 1px;"/><path class="ygrid crisp" transform="translate(0,165.81)" d="M61,0h609" style="stroke: rgb(255, 255, 255); stroke-opacity: 1; stroke-width: 1px;"/><path class="ygrid crisp" transform="translate(0,118.98)" d="M61,0h609" style="stroke: rgb(255, 255, 255); stroke-opacity: 1; stroke-width: 1px;"/><path class="ygrid crisp" transform="translate(0,72.15)" d="M61,0h609" style="stroke: rgb(255, 255, 255); stroke-opacity: 1; stroke-width: 1px;"/></g></g><g class="zerolinelayer"><path class="yzl zl crisp" transform="translate(0,306.3)" d="M61,0h609" style="stroke: rgb(255, 255, 255); stroke-opacity: 1; stroke-width: 2px;"/></g><g class="layer-between"><g class="shapelayer"/><g class="imagelayer"/></g><path class="xlines-below"/><path class="ylines-below"/><g class="overlines-below"/><g class="xaxislayer-below"/><g class="yaxislayer-below"/><g class="overaxes-below"/><g class="overplot"><g class="xy" transform="translate(61,46)" clip-path="url(#clipa214d1xyplot)"><g class="scatterlayer mlayer"><g class="trace scatter trace22836aa8-ef52-4de1-86c9-3e75268dfbc5" style="stroke-miterlimit: 2; opacity: 1;"><g class="fills"/><g class="errorbars"/><g class="lines"><path class="js-line" d="M0,113.57L0.46,260.28L0.92,226.25L1.37,260L2.75,260.3L3.21,260.3L4.58,260.26L5.04,217.18L5.96,260.3L6.42,259.8L7.33,260.3L7.79,157.39L8.25,165.16L8.71,63.19L9.16,13.7L9.62,181.36L10.54,260.3L11,260.3L20.16,260.26L20.62,257.71L21.08,237.62L21.54,260.04L23.37,260.29L23.83,260.29L28.41,260.29L28.87,185.99L30.24,107.41L30.7,237.6L31.16,238.32L31.62,223.39L32.53,252.27L32.99,244.08L33.45,241.92L33.91,255.25L34.37,260.3L34.83,252.13L35.28,254.87L35.74,254.78L36.2,252.63L37.12,260.29L37.58,254.05L38.03,247.83L38.49,257.65L38.95,248.01L39.41,250.08L39.87,260.3L62.78,260.3L63.24,216.3L64.15,67.26L64.61,116.51L66.44,260.29L66.9,260.29L84.32,260.29L84.77,227.85L86.15,260.28L86.61,260.28L91.65,260.29L92.11,258.99L93.02,260.29L93.48,260.29L125.56,260.28L126.02,233.6L126.47,233.08L126.93,219.92L128.31,247.2L128.77,256.16L129.22,260.28L129.68,256.41L130.14,246.35L130.6,260.29L131.51,260.29L131.97,247.54L132.89,260.3L133.35,258.7L134.26,260.3L134.72,260.29L136.56,260.3L137.01,250.39L137.47,257.27L137.93,252.05L138.39,252.06L138.85,260.3L139.3,260.3L139.76,258.84L140.68,260.3L141.14,260.3L142.51,260.3L142.97,257.3L143.89,260.3L144.35,260.3L160.84,260.3L161.3,256L162.67,255.99L163.13,249.54L164.05,260.29L164.51,253.15L165.42,260.28L165.88,255.99L166.34,252.95L166.8,232.6L167.72,252.54L168.17,231.64L168.63,230.85L169.09,260.29L169.55,252.85L170.01,260.29L170.47,260.28L170.92,207.49L171.38,210.36L171.84,252.92L172.76,260.27L173.21,260.27L173.67,200.11L174.13,208.52L174.59,223.34L175.96,260.29L176.42,260.29L176.88,249.87L177.34,259.87L177.8,260.27L178.26,250.57L178.71,260.3L179.17,259.75L179.63,260.29L180.55,260.3L181,259.33L181.92,260.29L182.38,260.23L188.34,260.3L188.79,260.3L202.08,260.3L202.54,244.29L203.46,260.3L203.92,260.29L228.66,260.29L229.12,227.03L229.58,210.29L230.04,226.51L230.49,222.75L230.95,260.29L235.08,260.3L235.53,223.79L237.37,260.29L237.83,260.29L242.87,260.29L243.33,243.45L244.7,182.45L245.16,184.62L246.53,260.29L246.99,260.29L247.91,203.51L248.37,259.42L248.82,260.28L249.28,254.45L249.74,255.84L250.2,245.46L251.57,260.29L252.03,223.85L252.95,260.3L253.41,223.66L253.86,228.48L254.32,260.3L271.74,260.29L272.19,246.35L272.65,203.12L273.11,260.29L273.57,231.4L274.03,250.91L274.94,260.29L275.4,260.29L275.86,260.21L276.32,212.46L276.78,189.85L277.23,195.95L277.69,202.05L279.07,240.4L279.53,239.02L280.9,260.2L281.36,260.28L286.86,260.27L287.32,250.38L288.23,260.29L288.69,260.3L289.15,259.64L289.61,260.28L290.07,260.29L290.52,257.88L290.98,260.28L292.36,260.29L292.81,258.47L293.27,260.29L293.73,239.07L294.65,260.28L295.11,257.81L295.56,260.27L296.94,260.29L297.4,257.67L298.31,260.3L298.77,260.3L299.69,236.66L300.15,240.32L300.6,243.97L301.52,260.29L301.98,260.29L304.27,260.3L304.73,256.07L305.19,256.06L305.65,250.26L306.1,260.3L306.56,236.74L308.4,135.88L308.85,122.8L309.31,123.58L309.77,141.22L310.23,142.7L310.69,153.51L311.14,154.83L311.6,160.96L312.06,157.79L312.52,167.92L312.98,170.92L313.44,187.35L314.35,260.28L314.81,260.29L317.56,260.3L318.02,253.35L318.93,260.29L319.39,260.29L319.85,255.84L320.31,260.29L337.26,260.3L337.72,260.3L364.3,260.3L364.76,235.75L365.22,235.7L365.67,260.28L366.59,260.28L367.05,256.13L367.51,256.12L367.97,260.29L372.55,260.3L373.01,243.65L373.92,260.29L374.38,260.19L375.76,260.24L376.21,256.06L376.67,256.07L377.13,260.29L377.59,256.09L378.05,260.3L378.51,260.3L378.96,256.1L379.88,256.09L380.34,260.3L383.09,260.26L383.55,257.81L384,257.85L384.46,260.26L385.38,260.29L385.84,257.85L386.75,257.62L387.21,260.29L388.13,257.84L388.59,257.85L389.5,260.29L389.96,260.26L391.79,260.23L392.25,260.29L422.5,260.03L422.95,241.13L424.33,260.3L424.79,260.3L431.2,260.08L431.66,252.37L432.12,260.29L432.58,252.37L433.04,260.25L433.49,246.11L434.87,260.3L435.33,260.3L436.7,260.28L437.16,258.25L438.08,260.29L438.53,260.29L440.83,260.3L441.28,253.63L442.2,260.29L442.66,260.29L444.49,260.29L444.95,228.62L445.41,214.96L445.87,260.29L446.33,260.29L446.78,256.3L447.7,260.29L448.16,260.29L463.28,260.28L463.74,253.62L464.2,260.3L464.65,260.08L465.11,260.28L466.49,260.28L466.95,260.28L469.24,260.3L469.7,258.35L470.61,260.28L471.07,260.3L471.53,258.91L471.99,260.3L476.57,260.3L477.03,232.61L477.94,260.29L478.4,260.29L482.98,260.3L483.44,228.5L484.36,247.78L484.82,215.97L485.28,215.97L485.73,217.57L486.19,217.53L486.65,234.24L487.11,253.85L487.57,143.64L488.02,150.46L488.48,251.66L488.94,260.3L489.4,260.13L489.86,249.32L490.32,260.3L490.77,196.35L491.69,84.88L492.15,122.37L492.61,166L493.07,134.03L493.98,204.64L494.44,252.06L495.36,256.16L495.81,256.16L496.27,260.29L496.73,254.38L497.19,256.01L497.65,228.12L498.56,204.96L499.02,226.15L499.48,241.33L499.94,220.64L500.4,240.22L500.86,227.3L501.77,260.3L502.23,228.17L502.69,260.25L503.15,260.17L503.6,260.29L504.06,260.29L504.52,247.56L505.9,260.3L506.35,260.3L506.81,260.3L507.27,228.46L508.65,260.29L509.1,260.29L509.56,260.27L510.02,256.08L510.94,260.24L511.4,258.51L512.31,260.26L512.77,260.24L517.81,260.3L518.27,254.79L518.73,260.27L519.19,259.76L519.64,259.78L520.1,250.72L520.56,251.68L521.02,256.14L523.31,229.14L523.77,236.1L524.23,232L524.68,241.2L525.14,239.08L525.6,246.3L526.98,243.08L527.43,247.07L527.89,241.89L528.35,245.79L528.81,206.41L529.27,238.78L530.18,260.28L530.64,260.3L564.55,260.3L565.01,257.92L565.93,260.3L566.38,257.92L567.3,260.3L567.76,260.3L568.67,260.19L569.13,257.93L570.05,260.3L570.51,260.3L575.09,260.27L575.55,256.74L576.47,260.2L576.92,242.46L577.38,260.27L577.84,260.2L578.3,260.3L581.96,260.28L582.42,255.62L583.34,260.3L583.8,260.27L585.17,260.29L585.63,253.62L586.55,260.27L587,260.29L587.46,260.28L587.92,253.63L588.38,260.28L588.84,253.63L589.75,260.29L590.21,260.29L591.13,260.29L591.59,253.62L592.5,260.29L592.96,259.96L594.34,260.29L594.79,260.29L600.75,260.3L601.21,246.38L601.67,246.23L602.13,260.07L602.58,260.27L603.04,257.17L603.96,260.29L604.42,260.28L608.08,260.3L608.54,253.53L609,234.34" style="vector-effect: none; fill: none; stroke: rgb(31, 119, 180); stroke-opacity: 1; stroke-width: 2px; opacity: 1;"/></g><g class="points"/><g class="text"/></g></g></g></g><path class="xlines-above crisp" d="M0,0" style="fill: none;"/><path class="ylines-above crisp" d="M0,0" style="fill: none;"/><g class="overlines-above"/><g class="xaxislayer-above"><g class="xtick"><text text-anchor="middle" x="0" y="333" transform="translate(61,0)" style="font-family: 'Open Sans', verdana, arial, sans-serif; font-size: 12px; fill: rgb(42, 63, 95); fill-opacity: 1; white-space: pre; opacity: 1;">2025-05-26</text></g><g class="xtick"><text text-anchor="middle" x="0" y="333" transform="translate(182.89,0)" style="font-family: 'Open Sans', verdana, arial, sans-serif; font-size: 12px; fill: rgb(42, 63, 95); fill-opacity: 1; white-space: pre; opacity: 1;">2025-05-27</text></g><g class="xtick"><text text-anchor="middle" x="0" y="333" transform="translate(304.78,0)" style="font-family: 'Open Sans', verdana, arial, sans-serif; font-size: 12px; fill: rgb(42, 63, 95); fill-opacity: 1; white-space: pre; opacity: 1;">2025-05-28</text></g><g class="xtick"><text text-anchor="middle" x="0" y="333" transform="translate(426.67,0)" style="font-family: 'Open Sans', verdana, arial, sans-serif; font-size: 12px; fill: rgb(42, 63, 95); fill-opacity: 1; white-space: pre; opacity: 1;">2025-05-29</text></g><g class="xtick"><text text-anchor="middle" x="0" y="333" transform="translate(548.5699999999999,0)" style="font-family: 'Open Sans', verdana, arial, sans-serif; font-size: 12px; fill: rgb(42, 63, 95); fill-opacity: 1; white-space: pre; opacity: 1;">2025-06-02</text></g></g><g class="yaxislayer-above"><g class="ytick"><text text-anchor="end" x="60" y="4.199999999999999" transform="translate(0,306.3)" style="font-family: 'Open Sans', verdana, arial, sans-serif; font-size: 12px; fill: rgb(42, 63, 95); fill-opacity: 1; white-space: pre; opacity: 1;">0.00%</text></g><g class="ytick"><text text-anchor="end" x="60" y="4.199999999999999" style="font-family: 'Open Sans', verdana, arial, sans-serif; font-size: 12px; fill: rgb(42, 63, 95); fill-opacity: 1; white-space: pre; opacity: 1;" transform="translate(0,259.47)">10.00%</text></g><g class="ytick"><text text-anchor="end" x="60" y="4.199999999999999" style="font-family: 'Open Sans', verdana, arial, sans-serif; font-size: 12px; fill: rgb(42, 63, 95); fill-opacity: 1; white-space: pre; opacity: 1;" transform="translate(0,212.64)">20.00%</text></g><g class="ytick"><text text-anchor="end" x="60" y="4.199999999999999" style="font-family: 'Open Sans', verdana, arial, sans-serif; font-size: 12px; fill: rgb(42, 63, 95); fill-opacity: 1; white-space: pre; opacity: 1;" transform="translate(0,165.81)">30.00%</text></g><g class="ytick"><text text-anchor="end" x="60" y="4.199999999999999" style="font-family: 'Open Sans', verdana, arial, sans-serif; font-size: 12px; fill: rgb(42, 63, 95); fill-opacity: 1; white-space: pre; opacity: 1;" transform="translate(0,118.98)">40.00%</text></g><g class="ytick"><text text-anchor="end" x="60" y="4.199999999999999" style="font-family: 'Open Sans', verdana, arial, sans-serif; font-size: 12px; fill: rgb(42, 63, 95); fill-opacity: 1; white-space: pre; opacity: 1;" transform="translate(0,72.15)">50.00%</text></g></g><g class="overaxes-above"/></g></g><g class="polarlayer"/><g class="smithlayer"/><g class="ternarylayer"/><g class="geolayer"/><g class="funnelarealayer"/><g class="pielayer"/><g class="iciclelayer"/><g class="treemaplayer"/><g class="sunburstlayer"/><g class="glimages"/><defs id="topdefs-a214d1"><g class="clips"/><clipPath id="legenda214d1"><rect width="80" height="29" x="0" y="0"/></clipPath></defs><g class="layer-above"><g class="imagelayer"/><g class="shapelayer"/></g><g class="infolayer"><g class="legend" pointer-events="all" transform="translate(590,11.519999999999996)"><rect class="bg" shape-rendering="crispEdges" style="stroke: rgb(68, 68, 68); stroke-opacity: 1; fill: rgb(255, 255, 255); fill-opacity: 1; stroke-width: 0px;" width="80" height="29" x="0" y="0"/><g class="scrollbox" transform="" clip-path="url(#legenda214d1)"><g class="groups"><g class="traces" transform="translate(0,14.5)" style="opacity: 1;"><text class="legendtext" text-anchor="start" x="40" y="4.680000000000001" style="font-family: 'Open Sans', verdana, arial, sans-serif; font-size: 12px; fill: rgb(42, 63, 95); fill-opacity: 1; white-space: pre;">group</text><g class="layers" style="opacity: 1;"><g class="legendfill"/><g class="legendlines"><path class="js-line" d="M5,0h30" style="fill: none; stroke: rgb(31, 119, 180); stroke-opacity: 1; stroke-width: 2px;"/></g><g class="legendsymbols"><g class="legendpoints"/></g></g><rect class="legendtoggle" x="0" y="-9.5" width="77.453125" height="19" style="fill: rgb(0, 0, 0); fill-opacity: 0;"/></g></g></g><rect class="scrollbar" rx="20" ry="3" width="0" height="0" style="fill: rgb(128, 139, 164); fill-opacity: 1;" x="0" y="0"/></g><g class="g-gtitle"><text class="gtitle" x="35" y="23" text-anchor="start" dy="0em" style="opacity: 1; font-family: 'Open Sans', verdana, arial, sans-serif; font-size: 17px; fill: rgb(42, 63, 95); fill-opacity: 1; white-space: pre;">Portfolio Cash-to-Equity Ratio</text></g><g class="g-xtitle"/><g class="g-ytitle"/></g></svg>